<svg width="39" height="39" viewBox="0 0 39 39" fill="none" xmlns="http://www.w3.org/2000/svg">
<path d="M24.5 11.375C24.5 12.2034 25.1716 12.875 26 12.875C26.8284 12.875 27.5 12.2034 27.5 11.375H24.5ZM27.5 27.625C27.5 26.7966 26.8284 26.125 26 26.125C25.1716 26.125 24.5 26.7966 24.5 27.625H27.5ZM20.8 32.625C19.9716 32.625 19.3 33.2966 19.3 34.125C19.3 34.9534 19.9716 35.625 20.8 35.625V32.625ZM24.2255 33.7511L24.936 35.0721L24.936 35.0721L24.2255 33.7511ZM25.6458 32.2519L24.2949 31.5998L24.2949 31.5998L25.6458 32.2519ZM8.27453 3.62391L8.98504 4.94496L8.98504 4.94496L8.27453 3.62391ZM5 8.73889C5 9.56732 5.67157 10.2389 6.5 10.2389C7.32843 10.2389 8 9.56732 8 8.73889H5ZM6.85423 5.12312L8.20508 5.77518L8.20508 5.77518L6.85423 5.12312ZM25.6458 5.12312L24.2949 5.77518L24.2949 5.77518L25.6458 5.12312ZM24.2255 3.62391L24.936 2.30286L24.936 2.30286L24.2255 3.62391ZM10.9384 4.99365L10.3899 6.38977L10.9384 4.99365ZM17.4384 7.54722L17.9868 6.15109L17.9868 6.15109L17.4384 7.54722ZM15.0616 37.2564L15.6101 35.8602L15.6101 35.8602L15.0616 37.2564ZM8.56163 34.7028L8.01315 36.0989L8.01315 36.0989L8.56163 34.7028ZM34.125 21C34.9534 21 35.625 20.3284 35.625 19.5C35.625 18.6716 34.9534 18 34.125 18V21ZM19.5 18C18.6716 18 18 18.6716 18 19.5C18 20.3284 18.6716 21 19.5 21V18ZM29.8143 23.3143C29.2286 23.9001 29.2286 24.8499 29.8143 25.4357C30.4001 26.0214 31.3499 26.0214 31.9357 25.4357L29.8143 23.3143ZM33.9115 21.3385L34.9722 22.3991L34.9722 22.3991L33.9115 21.3385ZM33.9115 17.6615L34.9722 16.6009L34.9722 16.6009L33.9115 17.6615ZM31.9357 13.5643C31.3499 12.9786 30.4001 12.9786 29.8143 13.5643C29.2286 14.1501 29.2286 15.0999 29.8143 15.6857L31.9357 13.5643ZM34.9974 20.0022L33.5708 19.5386L33.5708 19.5386L34.9974 20.0022ZM34.9974 18.9979L33.5708 19.4614L33.5708 19.4614L34.9974 18.9979ZM27.5 11.375V8.73889H24.5V11.375H27.5ZM20.8 1.75H11.7V4.75H20.8V1.75ZM27.5 28.6361V27.625H24.5V28.6361H27.5ZM20.8 35.625C21.684 35.625 22.4422 35.6263 23.0635 35.5727C23.7049 35.5174 24.3347 35.3955 24.936 35.0721L23.515 32.43C23.421 32.4806 23.2482 32.5456 22.8057 32.5838C22.3431 32.6237 21.7362 32.625 20.8 32.625V35.625ZM24.5 28.6361C24.5 29.6202 24.499 30.2728 24.4602 30.7735C24.4226 31.259 24.3565 31.4723 24.2949 31.5998L26.9966 32.904C27.2893 32.2977 27.4003 31.6637 27.4512 31.0051C27.501 30.3617 27.5 29.5733 27.5 28.6361H24.5ZM24.936 35.0721C25.8356 34.5883 26.5522 33.8246 26.9966 32.904L24.2949 31.5998C24.1161 31.9702 23.8384 32.2561 23.515 32.43L24.936 35.0721ZM11.7 1.75C10.816 1.75 10.0578 1.7487 9.43652 1.80229C8.79514 1.8576 8.1653 1.97947 7.56403 2.30286L8.98504 4.94496C9.07897 4.89444 9.25178 4.82935 9.69429 4.79119C10.1569 4.7513 10.7638 4.75 11.7 4.75V1.75ZM8 8.73889C8 7.75478 8.00105 7.10219 8.03981 6.60147C8.07738 6.11601 8.14352 5.90273 8.20508 5.77518L5.50338 4.47105C5.21071 5.07734 5.09973 5.7113 5.04875 6.36995C4.99895 7.01333 5 7.8017 5 8.73889H8ZM7.56403 2.30285C6.66437 2.78672 5.94776 3.55043 5.50337 4.47105L8.20508 5.77518C8.38387 5.4048 8.66164 5.11889 8.98504 4.94496L7.56403 2.30285ZM27.5 8.73889C27.5 7.8017 27.501 7.01333 27.4512 6.36995C27.4003 5.7113 27.2893 5.07734 26.9966 4.47105L24.2949 5.77518C24.3565 5.90273 24.4226 6.11601 24.4602 6.60147C24.499 7.10219 24.5 7.75478 24.5 8.73889H27.5ZM20.8 4.75C21.7362 4.75 22.3431 4.7513 22.8057 4.79119C23.2482 4.82935 23.421 4.89444 23.515 4.94496L24.936 2.30286C24.3347 1.97947 23.7049 1.8576 23.0635 1.80229C22.4422 1.7487 21.684 1.75 20.8 1.75V4.75ZM26.9966 4.47105C26.5522 3.55043 25.8356 2.78672 24.936 2.30286L23.515 4.94496C23.8384 5.11889 24.1161 5.4048 24.2949 5.77518L26.9966 4.47105ZM10.3899 6.38977L16.8899 8.94334L17.9868 6.15109L11.4868 3.59752L10.3899 6.38977ZM18 10.5722V34.2314H21V10.5722H18ZM15.6101 35.8602L9.11011 33.3067L8.01315 36.0989L14.5132 38.6525L15.6101 35.8602ZM8 31.6778V8.0186H5V31.6778H8ZM9.11011 33.3067C8.44041 33.0436 8 32.3974 8 31.6778H5C5 33.6308 6.1954 35.3848 8.01315 36.0989L9.11011 33.3067ZM18 34.2314C18 35.4649 16.7581 36.3112 15.6101 35.8602L14.5132 38.6525C17.6293 39.8767 21 37.5793 21 34.2314H18ZM16.8899 8.94334C17.5596 9.20644 18 9.85264 18 10.5722H21C21 8.61917 19.8046 6.86521 17.9868 6.15109L16.8899 8.94334ZM11.4868 3.59752C8.37074 2.37333 5 4.67066 5 8.0186H8C8 6.78514 9.24186 5.93876 10.3899 6.38977L11.4868 3.59752ZM34.125 18H19.5V21H34.125V18ZM31.9357 25.4357L34.9722 22.3991L32.8509 20.2778L29.8143 23.3143L31.9357 25.4357ZM34.9722 16.6009L31.9357 13.5643L29.8143 15.6857L32.8509 18.7222L34.9722 16.6009ZM34.9722 22.3991C35.2764 22.0949 35.5693 21.8037 35.7941 21.5389C36.0303 21.2607 36.2781 20.9145 36.424 20.4657L33.5708 19.5386C33.5961 19.4608 33.6228 19.4611 33.507 19.5974C33.38 19.7471 33.1901 19.9386 32.8509 20.2778L34.9722 22.3991ZM32.8509 18.7222C33.1901 19.0614 33.38 19.2529 33.507 19.4026C33.6228 19.539 33.5961 19.5392 33.5708 19.4614L36.424 18.5343C36.2781 18.0855 36.0302 17.7393 35.7941 17.4611C35.5693 17.1963 35.2764 16.9051 34.9722 16.6009L32.8509 18.7222ZM36.424 20.4657C36.6279 19.8381 36.6279 19.162 36.424 18.5343L33.5708 19.4614C33.5789 19.4865 33.5789 19.5135 33.5708 19.5386L36.424 20.4657Z" fill="url(#paint0_linear_36_49)"/>
<defs>
<linearGradient id="paint0_linear_36_49" x1="7" y1="20" x2="38" y2="20" gradientUnits="userSpaceOnUse">
<stop stop-color="#FF9A8B"/>
<stop offset="0.525" stop-color="#FF6B88"/>
<stop offset="1" stop-color="#FF98AB"/>
</linearGradient>
</defs>
</svg>
