<svg width="150" height="52" viewBox="0 0 150 52" fill="none" xmlns="http://www.w3.org/2000/svg">
<path d="M40.208 35C39.9093 35 39.7067 34.936 39.6 34.808C39.4933 34.68 39.44 34.5093 39.44 34.296V19.8C39.44 19.5867 39.4933 19.416 39.6 19.288C39.7067 19.16 39.9093 19.096 40.208 19.096H48.144C50.2133 19.096 51.728 19.5013 52.688 20.312C53.6693 21.1227 54.16 22.264 54.16 23.736C54.16 23.8853 54.128 24.0773 54.064 24.312C54.0213 24.5467 53.936 24.8027 53.808 25.08C53.68 25.336 53.488 25.6027 53.232 25.88C52.9973 26.136 52.688 26.36 52.304 26.552C52.816 26.7653 53.2213 27.032 53.52 27.352C53.84 27.6507 54.0747 27.96 54.224 28.28C54.3947 28.6 54.5013 28.9093 54.544 29.208C54.608 29.5067 54.64 29.7627 54.64 29.976C54.64 30.7867 54.4693 31.512 54.128 32.152C53.808 32.7707 53.36 33.2933 52.784 33.72C52.2293 34.1467 51.5787 34.4667 50.832 34.68C50.1067 34.8933 49.328 35 48.496 35H40.208ZM48.592 29.56C48.592 29.2827 48.5067 29.0587 48.336 28.888C48.1653 28.696 47.8773 28.6 47.472 28.6H45.296V30.584H47.472C47.8773 30.584 48.1653 30.4773 48.336 30.264C48.5067 30.0293 48.592 29.7947 48.592 29.56ZM48.016 24.312C48.016 24.0987 47.952 23.9067 47.824 23.736C47.696 23.5653 47.4507 23.48 47.088 23.48H45.296V25.08H47.088C47.4293 25.08 47.664 24.9947 47.792 24.824C47.9413 24.6533 48.016 24.4827 48.016 24.312ZM66.374 28.76H64.294C63.8887 28.76 63.5687 28.856 63.334 29.048C63.0993 29.24 62.982 29.5813 62.982 30.072C62.982 30.392 63.046 30.616 63.174 30.744C63.3233 30.872 63.5793 30.936 63.942 30.936C64.3047 30.936 64.71 30.8613 65.158 30.712C65.6273 30.5413 66.0327 30.36 66.374 30.168V28.76ZM67.078 32.984C66.6513 33.4533 66.1713 33.8373 65.638 34.136C65.126 34.4347 64.6033 34.6693 64.07 34.84C63.558 34.9893 63.0673 35.096 62.598 35.16C62.15 35.224 61.7767 35.256 61.478 35.256C60.4753 35.256 59.6753 35.1173 59.078 34.84C58.4807 34.5413 58.022 34.1573 57.702 33.688C57.382 33.2187 57.1687 32.696 57.062 32.12C56.9553 31.544 56.902 30.9787 56.902 30.424C56.8807 29.4 57.03 28.5467 57.35 27.864C57.67 27.1813 58.1073 26.6373 58.662 26.232C59.2167 25.8267 59.878 25.5387 60.646 25.368C61.414 25.1973 62.246 25.112 63.142 25.112H66.502V24.856C66.502 24.6427 66.47 24.4613 66.406 24.312C66.3633 24.1413 66.2567 24.0027 66.086 23.896C65.9367 23.768 65.702 23.6827 65.382 23.64C65.062 23.576 64.6353 23.544 64.102 23.544C63.91 23.544 63.6433 23.5547 63.302 23.576C62.982 23.5973 62.63 23.6187 62.246 23.64C61.862 23.6613 61.478 23.6933 61.094 23.736C60.71 23.7787 60.3687 23.8107 60.07 23.832C59.7927 23.8747 59.5687 23.9067 59.398 23.928C59.2273 23.928 59.0887 23.9067 58.982 23.864C58.8753 23.8213 58.79 23.7467 58.726 23.64C58.6833 23.5333 58.6407 23.384 58.598 23.192L58.15 21.144C58.086 20.824 58.118 20.5573 58.246 20.344C58.3953 20.1093 58.7793 19.8747 59.398 19.64C59.782 19.4907 60.2193 19.3627 60.71 19.256C61.222 19.1493 61.734 19.064 62.246 19C62.758 18.936 63.2593 18.8933 63.75 18.872C64.2407 18.8293 64.6673 18.808 65.03 18.808C66.63 18.808 67.91 18.9467 68.87 19.224C69.83 19.5013 70.566 19.9067 71.078 20.44C71.6113 20.952 71.9633 21.6027 72.134 22.392C72.3047 23.16 72.39 24.0453 72.39 25.048V29.144C72.39 29.8267 72.4647 30.2533 72.614 30.424C72.7847 30.5733 73.1153 30.68 73.606 30.744C73.9047 30.7867 74.0967 30.8507 74.182 30.936C74.2673 31 74.31 31.1493 74.31 31.384V34.008C74.31 34.2853 74.214 34.488 74.022 34.616C73.83 34.744 73.574 34.8507 73.254 34.936C72.87 35.0427 72.486 35.1067 72.102 35.128C71.718 35.1707 71.3127 35.192 70.886 35.192C70.4807 35.192 70.0753 35.16 69.67 35.096C69.286 35.0533 68.9233 34.9573 68.582 34.808C68.262 34.6373 67.974 34.4133 67.718 34.136C67.462 33.8587 67.27 33.4853 67.142 33.016L67.078 32.984ZM76.6975 24.376C76.6975 23.1173 76.8255 21.8373 77.0815 20.536C77.3375 19.2347 77.8175 18.0613 78.5215 17.016C79.2468 15.9707 80.2495 15.1173 81.5295 14.456C82.8095 13.7947 84.4628 13.464 86.4895 13.464C87.6628 13.464 88.7722 13.56 89.8175 13.752C90.8628 13.9227 91.8015 14.1893 92.6335 14.552C92.9962 14.7227 93.2842 14.9253 93.4975 15.16C93.7322 15.3733 93.7962 15.7467 93.6895 16.28L93.2095 18.552C93.1242 18.9573 92.9962 19.2027 92.8255 19.288C92.6762 19.352 92.3562 19.3627 91.8655 19.32C90.9055 19.2347 90.0202 19.1707 89.2095 19.128C88.4202 19.064 87.7482 19.032 87.1935 19.032C86.4468 19.032 85.8282 19.1707 85.3375 19.448C84.8468 19.704 84.4522 20.0667 84.1535 20.536C83.8762 20.984 83.6735 21.528 83.5455 22.168C83.4388 22.808 83.3855 23.5013 83.3855 24.248C83.3855 25.2293 83.4388 26.072 83.5455 26.776C83.6735 27.48 83.8762 28.056 84.1535 28.504C84.4522 28.952 84.8362 29.2827 85.3055 29.496C85.7962 29.7093 86.4148 29.816 87.1615 29.816C87.5668 29.816 87.9402 29.816 88.2815 29.816C88.6442 29.7947 88.9962 29.7733 89.3375 29.752C89.7002 29.7307 90.0842 29.7093 90.4895 29.688C90.9162 29.6453 91.4068 29.592 91.9615 29.528C92.4522 29.4853 92.7722 29.496 92.9215 29.56C93.0708 29.624 93.1988 29.8693 93.3055 30.296L93.8495 32.376C93.9988 32.888 93.9562 33.272 93.7215 33.528C93.4868 33.784 93.1882 33.9973 92.8255 34.168C91.9935 34.5307 91.0228 34.808 89.9135 35C88.8255 35.2133 87.6948 35.32 86.5215 35.32C85.1562 35.32 83.9722 35.1707 82.9695 34.872C81.9668 34.5733 81.0922 34.168 80.3455 33.656C79.6202 33.1227 79.0228 32.5147 78.5535 31.832C78.0842 31.128 77.7108 30.3707 77.4335 29.56C77.1562 28.7493 76.9642 27.9067 76.8575 27.032C76.7508 26.136 76.6975 25.2507 76.6975 24.376ZM103.55 27.544L104.83 23.384L105.918 19.864C106.003 19.6293 106.121 19.448 106.27 19.32C106.441 19.1707 106.771 19.096 107.262 19.096H111.102C111.55 19.096 111.806 19.1813 111.87 19.352C111.934 19.5013 111.902 19.736 111.774 20.056L104.03 40.664C103.881 41.0267 103.721 41.2613 103.55 41.368C103.379 41.4747 103.081 41.528 102.654 41.528H98.846C98.4833 41.528 98.238 41.464 98.11 41.336C98.0033 41.208 98.0353 40.9627 98.206 40.6L100.542 34.392L95.07 20.024C94.814 19.4053 95.0167 19.096 95.678 19.096H99.902C100.243 19.096 100.51 19.128 100.702 19.192C100.915 19.256 101.075 19.5013 101.182 19.928L102.238 23.512L103.358 27.544H103.55ZM125.081 26.936C125.828 27.128 126.436 27.4907 126.905 28.024C127.375 28.5573 127.823 29.464 128.249 30.744L129.337 34.2C129.423 34.3707 129.412 34.552 129.305 34.744C129.199 34.9147 129.017 35 128.761 35H124.665C124.367 35 124.121 34.9893 123.929 34.968C123.759 34.9253 123.609 34.8613 123.481 34.776C123.375 34.6907 123.289 34.584 123.225 34.456C123.161 34.3067 123.087 34.1253 123.001 33.912L122.041 30.904C121.785 30.136 121.465 29.6453 121.081 29.432C120.719 29.2187 120.345 29.112 119.961 29.112H119.737V34.232C119.737 34.36 119.695 34.52 119.609 34.712C119.545 34.904 119.343 35 119.001 35H114.489C114.191 35 113.988 34.9253 113.881 34.776C113.775 34.6267 113.721 34.4453 113.721 34.232V19.864C113.721 19.6507 113.775 19.4693 113.881 19.32C113.988 19.1707 114.191 19.096 114.489 19.096H119.001C119.343 19.096 119.545 19.192 119.609 19.384C119.695 19.576 119.737 19.736 119.737 19.864V24.248H119.961C120.153 24.248 120.335 24.248 120.505 24.248C120.697 24.248 120.879 24.2053 121.049 24.12C121.22 24.0347 121.38 23.9067 121.529 23.736C121.679 23.544 121.828 23.256 121.977 22.872L123.065 20.216C123.151 20.0027 123.225 19.832 123.289 19.704C123.353 19.5547 123.439 19.4373 123.545 19.352C123.673 19.2667 123.823 19.2133 123.993 19.192C124.185 19.1493 124.431 19.128 124.729 19.128H128.569C128.825 19.128 129.007 19.224 129.113 19.416C129.22 19.5867 129.231 19.7573 129.145 19.928L128.089 23.032C127.663 24.312 127.204 25.2293 126.713 25.784C126.244 26.3173 125.7 26.6693 125.081 26.84V26.936ZM140.718 28.76H138.638C138.232 28.76 137.912 28.856 137.678 29.048C137.443 29.24 137.326 29.5813 137.326 30.072C137.326 30.392 137.39 30.616 137.518 30.744C137.667 30.872 137.923 30.936 138.286 30.936C138.648 30.936 139.054 30.8613 139.502 30.712C139.971 30.5413 140.376 30.36 140.718 30.168V28.76ZM141.422 32.984C140.995 33.4533 140.515 33.8373 139.982 34.136C139.47 34.4347 138.947 34.6693 138.414 34.84C137.902 34.9893 137.411 35.096 136.942 35.16C136.494 35.224 136.12 35.256 135.822 35.256C134.819 35.256 134.019 35.1173 133.422 34.84C132.824 34.5413 132.366 34.1573 132.046 33.688C131.726 33.2187 131.512 32.696 131.406 32.12C131.299 31.544 131.246 30.9787 131.246 30.424C131.224 29.4 131.374 28.5467 131.694 27.864C132.014 27.1813 132.451 26.6373 133.006 26.232C133.56 25.8267 134.222 25.5387 134.99 25.368C135.758 25.1973 136.59 25.112 137.486 25.112H140.846V24.856C140.846 24.6427 140.814 24.4613 140.75 24.312C140.707 24.1413 140.6 24.0027 140.43 23.896C140.28 23.768 140.046 23.6827 139.726 23.64C139.406 23.576 138.979 23.544 138.446 23.544C138.254 23.544 137.987 23.5547 137.646 23.576C137.326 23.5973 136.974 23.6187 136.59 23.64C136.206 23.6613 135.822 23.6933 135.438 23.736C135.054 23.7787 134.712 23.8107 134.414 23.832C134.136 23.8747 133.912 23.9067 133.742 23.928C133.571 23.928 133.432 23.9067 133.326 23.864C133.219 23.8213 133.134 23.7467 133.07 23.64C133.027 23.5333 132.984 23.384 132.942 23.192L132.494 21.144C132.43 20.824 132.462 20.5573 132.59 20.344C132.739 20.1093 133.123 19.8747 133.742 19.64C134.126 19.4907 134.563 19.3627 135.054 19.256C135.566 19.1493 136.078 19.064 136.59 19C137.102 18.936 137.603 18.8933 138.094 18.872C138.584 18.8293 139.011 18.808 139.374 18.808C140.974 18.808 142.254 18.9467 143.214 19.224C144.174 19.5013 144.91 19.9067 145.422 20.44C145.955 20.952 146.307 21.6027 146.478 22.392C146.648 23.16 146.734 24.0453 146.734 25.048V29.144C146.734 29.8267 146.808 30.2533 146.958 30.424C147.128 30.5733 147.459 30.68 147.95 30.744C148.248 30.7867 148.44 30.8507 148.526 30.936C148.611 31 148.654 31.1493 148.654 31.384V34.008C148.654 34.2853 148.558 34.488 148.366 34.616C148.174 34.744 147.918 34.8507 147.598 34.936C147.214 35.0427 146.83 35.1067 146.446 35.128C146.062 35.1707 145.656 35.192 145.23 35.192C144.824 35.192 144.419 35.16 144.014 35.096C143.63 35.0533 143.267 34.9573 142.926 34.808C142.606 34.6373 142.318 34.4133 142.062 34.136C141.806 33.8587 141.614 33.4853 141.486 33.016L141.422 32.984Z" fill="white"/>
<path d="M13.9978 35.5737C13.8537 36.1212 13.6376 36.4958 13.3495 36.6975C13.0614 36.8992 12.6724 37 12.1825 37H6.21807C5.81468 37 5.54094 36.928 5.39687 36.7839C5.28162 36.6398 5.31043 36.2797 5.48332 35.7034L13.5224 9.72769C13.6665 9.23785 13.8681 8.86327 14.1275 8.60395C14.3868 8.34462 14.891 8.21496 15.6402 8.21496H22.4259C23.175 8.21496 23.6649 8.34462 23.8954 8.60395C24.1259 8.86327 24.3276 9.25226 24.5005 9.77091L33.015 35.7898C33.2743 36.5966 33.087 37 32.4531 37H25.8403C25.264 37 24.8606 36.8703 24.6301 36.611C24.3996 36.3229 24.2123 35.8907 24.0683 35.3144L22.9013 31.0788H15.208L13.9978 35.5737ZM20.2648 21.138L19.1843 16.643H18.925L16.8936 24.7685H21.1725L20.2648 21.138Z" fill="white"/>
<path fill-rule="evenodd" clip-rule="evenodd" d="M27.8873 2.38709C27.906 2.37604 27.9263 2.36893 27.9471 2.36572C27.9703 2.36211 27.9933 2.36344 28.015 2.36905C28.0391 2.37521 28.062 2.38674 28.0819 2.40359C28.0874 2.4082 28.0926 2.41317 28.0975 2.41847C28.9878 3.35184 29.9984 5.02359 30.1721 6.90918C30.3474 8.81108 29.6686 10.9118 27.2088 12.6659C27.1329 12.72 27.0274 12.7024 26.9733 12.6265C26.9624 12.6111 26.9543 12.5945 26.9492 12.5774L25.5048 8.12742L25.5176 8.12326L25.4528 7.89014C26.8722 7.49544 27.5598 6.5373 27.8474 5.49173C28.1372 4.43811 28.0178 3.2991 27.8117 2.58264C27.8094 2.57531 27.8077 2.56785 27.8064 2.56034C27.8024 2.53604 27.8038 2.51182 27.8098 2.4891C27.816 2.46601 27.827 2.444 27.8431 2.42475C27.8553 2.40993 27.8702 2.39712 27.8873 2.38709ZM25.8562 8.1163L27.1994 12.2546C29.4094 10.5989 29.9955 8.6724 29.8359 6.94016C29.698 5.44335 29.0014 4.07847 28.2802 3.14954C28.3918 3.85945 28.4039 4.74162 28.173 5.58127C27.8816 6.64068 27.2009 7.63508 25.8562 8.1163Z" fill="white"/>
<path d="M28.5153 7.22995C28.5179 7.24838 28.5681 7.20075 28.5729 7.19704C28.6506 7.13623 28.7266 7.07286 28.8026 7.00986C28.8077 7.00559 28.8778 6.94547 28.8602 6.94884C28.8173 6.95701 28.7711 6.97985 28.7333 6.99957C28.5249 7.10838 28.331 7.25064 28.1409 7.38765C27.9683 7.51208 27.4731 7.91449 27.6308 7.77161C27.7901 7.62728 27.9461 7.4781 28.1135 7.34308C28.1872 7.28365 28.2628 7.22654 28.3384 7.16961C28.3499 7.16094 28.4289 7.0855 28.4508 7.08734C28.4686 7.08881 28.4395 7.12112 28.4323 7.13739C28.399 7.21277 28.3695 7.28917 28.3425 7.36708C28.2951 7.50394 28.255 7.64444 28.1814 7.77023C28.1246 7.8673 28.0394 7.94485 27.9874 8.04449C27.9551 8.10624 27.8876 8.2657 27.9174 8.09934C27.9305 8.02647 28.0068 7.81707 27.9819 7.88679C27.9375 8.01089 27.8825 8.13157 27.8365 8.2543" stroke="white" stroke-width="1.01299" stroke-linecap="round"/>
<path d="M27.6144 9.13054C27.4519 9.13054 27.2918 9.12015 27.1324 9.08666C26.9707 9.05269 26.8762 8.99959 26.9335 8.82132C26.9929 8.63672 27.1558 8.49343 27.3326 8.42433C27.4841 8.36508 27.728 8.31687 27.8571 8.44833C27.9613 8.55445 27.9623 8.7312 27.9003 8.85834C27.805 9.05364 27.5948 9.16042 27.3874 9.18882C27.1308 9.22398 26.8518 9.18896 26.6325 9.04278C26.5083 8.95997 26.4109 8.81976 26.5023 8.67528C26.5856 8.54348 26.754 8.48519 26.8986 8.4545C27.0025 8.43244 27.2243 8.38072 27.2606 8.53129C27.2997 8.69365 27.1298 8.8486 27.0192 8.93719C26.9048 9.02882 26.6947 9.15258 26.5434 9.0702C26.4405 9.0142 26.4311 8.83568 26.4501 8.73561C26.4795 8.58109 26.6098 8.49553 26.7587 8.47233C26.8468 8.45859 27.0752 8.4316 27.1399 8.51895C27.1887 8.58483 27.1359 8.6498 27.096 8.69859" stroke="white" stroke-width="1.01299" stroke-linecap="round"/>
<path d="M26.9849 10.2536C26.9783 10.2595 26.9454 10.1244 26.9356 10.0987C26.8847 9.96592 26.8481 9.8323 26.7827 9.70648C26.7673 9.67684 26.7608 9.65743 26.7628 9.62421C26.763 9.62153 26.8824 9.80248 26.8986 9.8395C26.9684 9.99997 27.0382 10.1621 27.0953 10.3277C27.1533 10.4957 27.1726 10.6671 27.2078 10.8398C27.2379 10.988 27.2706 11.1352 27.3182 11.278" stroke="white" stroke-width="1.01299" stroke-linecap="round"/>
<path d="M27.3182 11.9444C27.3182 11.6633 27.5254 11.4131 27.6939 11.2039C27.7877 11.0875 27.8917 10.984 27.9846 10.868C28.0943 10.7308 28.1658 10.6059 28.2376 10.4456C28.2681 10.3775 28.309 10.2893 28.3549 10.2303C28.3631 10.2197 28.3864 10.1738 28.3974 10.1707C28.4074 10.1678 28.4155 10.2491 28.4159 10.255C28.4207 10.3424 28.4039 10.4207 28.3926 10.5059C28.387 10.548 28.3894 10.6132 28.3644 10.6486C28.3107 10.7247 28.2893 10.8 28.2198 10.8652C28.1844 10.8984 28.1444 10.952 28.1204 10.9941C28.0713 11.08 28.071 11.0264 28.071 10.9571C28.071 10.8296 28.0794 10.7187 28.0093 10.606C27.934 10.485 27.7982 10.4364 27.7131 10.3277C27.6441 10.2396 27.5789 10.1486 27.5156 10.0562C27.4611 9.97659 27.4539 9.94393 27.4539 9.84636C27.4539 9.74171 27.5293 9.63886 27.6096 9.57622C27.6682 9.53043 27.795 9.45556 27.8735 9.45143C28.0883 9.44012 28.1893 9.62944 28.287 9.79219C28.3157 9.84005 28.3554 9.94509 28.4227 9.94509C28.4422 9.94509 28.4612 9.96932 28.4783 9.97937C28.5025 9.99365 28.5247 10.0665 28.5276 10.0932C28.53 10.1146 28.5789 10.1055 28.5955 10.1055C28.6535 10.1055 28.7073 10.0416 28.7374 9.9972C28.7717 9.94684 28.7788 9.87765 28.817 9.83402C28.8495 9.79686 28.8211 9.6507 28.83 9.60638C28.8348 9.58256 28.856 9.40322 28.8334 9.43223C28.722 9.57549 28.6243 9.72484 28.4783 9.83676C28.4025 9.89483 28.3219 9.92869 28.2547 9.99583C28.1652 10.0854 28.0619 10.1559 27.9791 10.2529C27.9657 10.2686 27.8735 10.4002 27.8735 10.3524C27.8735 9.98073 28.0821 9.64436 28.1519 9.28276C28.1795 9.13988 28.2046 9.00067 28.1937 8.85424C28.1871 8.76436 28.0386 8.68475 27.9777 8.63689C27.8695 8.55173 27.7927 8.50113 27.6541 8.50113C27.4801 8.50113 27.329 8.59309 27.1584 8.61015C27.0455 8.62144 26.9092 8.62737 26.7991 8.59986C26.7078 8.57704 26.6198 8.54731 26.5276 8.52581C26.4907 8.51719 26.2951 8.51506 26.2822 8.46959C26.2745 8.44284 26.2815 8.40539 26.2815 8.37771C26.2815 8.30256 26.3854 8.23052 26.4481 8.21659C26.4985 8.20539 26.5388 8.17598 26.5914 8.16722C26.7234 8.14522 26.8618 8.09509 26.9726 8.01981C27.0833 7.94459 27.1825 7.85518 27.2763 7.75927C27.5516 7.47789 27.8304 7.19382 28.0806 6.89124C28.2264 6.71491 28.3353 6.51138 28.4721 6.32902C28.5575 6.21518 28.5871 6.07319 28.6634 5.95877" stroke="white" stroke-width="1.01299" stroke-linecap="round"/>
<path d="M28.3425 8.7603C28.3376 8.77463 28.3039 8.86812 28.3069 8.85492C28.3321 8.74125 28.3781 8.6276 28.4172 8.51827C28.4831 8.33435 28.5476 8.15063 28.6442 7.98004C28.6915 7.89659 28.7445 7.7938 28.8053 7.7195C28.8294 7.69002 28.8438 7.783 28.8458 7.7908C28.8809 7.93134 28.8961 8.07343 28.9102 8.21727C28.934 8.45919 28.9398 8.70279 28.9815 8.94268C28.995 9.0199 28.9843 9.10668 28.9843 9.18471C28.9843 9.22729 28.9979 9.24938 29.0083 9.2855C29.0204 9.32806 29.0213 9.36935 29.0213 9.41578C29.0213 9.44937 29.0095 9.54776 29.022 9.51656C29.0387 9.47474 29.0535 9.43208 29.0707 9.39041C29.1331 9.23887 29.1912 9.0786 29.2338 8.92074C29.242 8.89062 29.2639 8.86593 29.2674 8.83435C29.2713 8.79946 29.2701 8.77971 29.286 8.74796C29.3043 8.71129 29.2941 8.7233 29.2798 8.7555C29.2483 8.82626 29.212 8.88987 29.1763 8.95845C29.1155 9.07515 29.0683 9.21262 29.0364 9.34035C29.0257 9.38298 29.0151 9.43707 28.9966 9.47611C28.9547 9.56491 28.943 9.67779 28.8732 9.74763" stroke="white" stroke-width="1.01299" stroke-linecap="round"/>
<path d="M29.2311 9.00713C29.2605 8.81597 29.332 8.63646 29.3429 8.44079C29.3496 8.31902 29.3545 8.19874 29.3545 8.07603C29.3545 8.01211 29.3685 7.9449 29.3765 7.8813C29.3876 7.79188 29.3792 7.69713 29.3792 7.60705C29.3792 7.4689 29.4162 7.33344 29.4162 7.19429C29.4162 6.96181 29.354 6.74382 29.3298 6.51414C29.3212 6.43241 29.2848 6.32913 29.2558 6.25222C29.1762 6.04167 29.1447 5.82521 29.1447 5.60086" stroke="white" stroke-width="1.01299" stroke-linecap="round"/>
<path d="M28.2701 6.26671C28.2729 6.21641 28.3058 6.15927 28.3317 6.11865C28.3924 6.02344 28.4533 5.9368 28.5243 5.84904C28.6878 5.64677 28.9017 5.43565 28.9017 5.15749C28.9017 5.10349 28.9112 5.03846 28.8829 4.98974C28.8557 4.94289 28.7972 4.92499 28.7939 4.86478C28.7918 4.82668 28.7689 4.77231 28.7571 4.73554C28.7525 4.72138 28.7422 4.71852 28.7485 4.72955C28.7532 4.73774 28.791 4.73622 28.8016 4.74154" stroke="white" stroke-width="1.01299" stroke-linecap="round"/>
<path d="M28.4473 5.61966C28.5232 5.5437 28.5219 5.40763 28.5414 5.30983C28.5499 5.26759 28.5551 5.22234 28.5671 5.18102C28.5795 5.13804 28.6004 5.09373 28.6073 5.04964C28.6154 4.99792 28.6398 4.94837 28.6398 4.89558" stroke="white" stroke-width="1.01299" stroke-linecap="round"/>
<path d="M28.5705 4.37949C28.5445 4.3766 28.5162 4.30988 28.4978 4.29048C28.4813 4.27319 28.4786 4.25992 28.4742 4.23613C28.4705 4.21604 28.4768 4.15555 28.4704 4.17494C28.4582 4.21163 28.4588 4.25408 28.4498 4.29177C28.4353 4.35272 28.4043 4.41266 28.3643 4.4608C28.3465 4.48216 28.3394 4.5056 28.3394 4.46936C28.3394 4.39664 28.3637 4.32946 28.3779 4.25881C28.3976 4.16181 28.4227 4.06531 28.4314 3.96653C28.4343 3.93374 28.4466 3.89015 28.4379 3.85741C28.4195 3.78851 28.3935 3.7225 28.3643 3.65713C28.3493 3.62383 28.3367 3.58218 28.3133 3.55357C28.3107 3.55042 28.3335 3.6112 28.3394 3.62204C28.4337 3.79463 28.6035 3.88835 28.746 4.0166C28.7983 4.06365 28.8478 4.13014 28.8478 4.20275C28.8478 4.23143 28.8478 4.2601 28.8478 4.28877C28.8478 4.30447 28.8568 4.34776 28.8465 4.33584C28.7837 4.26253 28.6929 4.2172 28.6078 4.17622C28.6027 4.17378 28.589 4.15606 28.5876 4.15953C28.5775 4.18553 28.6175 4.23879 28.6283 4.25924C28.6318 4.26586 28.6731 4.34985 28.6784 4.34954C28.6926 4.3487 28.686 4.24998 28.6856 4.23999C28.6842 4.20133 28.6806 4.14821 28.6612 4.11332C28.6494 4.09197 28.6442 4.1594 28.6403 4.1835C28.6256 4.2738 28.6167 4.35879 28.6167 4.45053C28.6167 4.54097 28.6167 4.26966 28.6167 4.17922" stroke="white" stroke-width="0.337662" stroke-linecap="round"/>
<path d="M28.2756 3.18486C28.2764 3.19272 28.2822 3.19961 28.2854 3.20665C28.2946 3.2272 28.3024 3.24843 28.3134 3.26819C28.3383 3.31316 28.3599 3.36066 28.3882 3.40363C28.4046 3.42868 28.4223 3.45205 28.4397 3.47643C28.4683 3.51639 28.4944 3.55811 28.524 3.59735C28.5466 3.62747 28.5686 3.65789 28.5911 3.68794C28.603 3.70378 28.6132 3.71866 28.6318 3.72589C28.6526 3.73399 28.6742 3.73373 28.6874 3.75348" stroke="white" stroke-width="0.337662" stroke-linecap="round"/>
<path fill-rule="evenodd" clip-rule="evenodd" d="M10.1936 2.38744C10.1746 2.37615 10.154 2.3689 10.1328 2.36568C10.1097 2.36211 10.0867 2.36347 10.065 2.36911C10.0413 2.3752 10.0188 2.38646 9.99917 2.40287C9.99336 2.4077 9.98786 2.41293 9.98272 2.41853C9.09241 3.35191 8.08186 5.02363 7.90813 6.90918C7.73289 8.81108 8.41169 10.9118 10.8715 12.6659C10.9474 12.72 11.0528 12.7024 11.1069 12.6265C11.1179 12.611 11.126 12.5944 11.1312 12.5772L12.5755 8.12742L12.5626 8.12326L12.6274 7.89014C11.208 7.49544 10.5204 6.5373 10.2329 5.49173C9.94311 4.43816 10.0625 3.29921 10.2685 2.58273C10.2709 2.57516 10.2727 2.56745 10.2739 2.55967C10.2778 2.5361 10.2765 2.51262 10.2708 2.49052C10.2646 2.46647 10.2531 2.44353 10.2363 2.42363C10.2243 2.40946 10.21 2.39716 10.1936 2.38744ZM12.2241 8.1163L10.8809 12.2546C8.67083 10.5989 8.08476 8.6724 8.24437 6.94016C8.38228 5.44335 9.07881 4.07848 9.80006 3.14954C9.68845 3.85945 9.67637 4.74162 9.90729 5.58127C10.1987 6.64068 10.8793 7.63508 12.2241 8.1163Z" fill="white"/>
<path d="M9.56495 7.22995C9.56232 7.24838 9.5121 7.20075 9.50736 7.19704C9.42961 7.13623 9.35364 7.07286 9.27767 7.00986C9.27252 7.00559 9.2024 6.94547 9.22007 6.94884C9.26299 6.95701 9.30914 6.97985 9.34692 6.99957C9.55532 7.10838 9.74922 7.25064 9.93931 7.38765C10.112 7.51208 10.6072 7.91449 10.4494 7.77161C10.2901 7.62728 10.1341 7.4781 9.96674 7.34308C9.89306 7.28365 9.81746 7.22654 9.74185 7.16961C9.73033 7.16094 9.65139 7.0855 9.6294 7.08734C9.61167 7.08881 9.64072 7.12112 9.64791 7.13739C9.68126 7.21277 9.71077 7.28917 9.73773 7.36708C9.78511 7.50394 9.82522 7.64444 9.89886 7.77023C9.95568 7.8673 10.0409 7.94485 10.0929 8.04449C10.1251 8.10624 10.1927 8.2657 10.1628 8.09934C10.1498 8.02647 10.0735 7.81707 10.0984 7.88679C10.1427 8.01089 10.1977 8.13157 10.2437 8.2543" stroke="white" stroke-width="1.01299" stroke-linecap="round"/>
<path d="M10.4659 9.13054C10.6283 9.13054 10.7885 9.12015 10.9479 9.08666C11.1096 9.05269 11.204 8.99959 11.1467 8.82132C11.0874 8.63672 10.9245 8.49343 10.7477 8.42433C10.5961 8.36508 10.3522 8.31687 10.2232 8.44833C10.119 8.55445 10.1179 8.7312 10.18 8.85834C10.2753 9.05364 10.4855 9.16042 10.6928 9.18882C10.9495 9.22398 11.2285 9.18896 11.4477 9.04278C11.5719 8.95997 11.6694 8.81976 11.578 8.67528C11.4947 8.54348 11.3263 8.48519 11.1817 8.4545C11.0778 8.43244 10.8559 8.38072 10.8197 8.53129C10.7806 8.69365 10.9504 8.8486 11.061 8.93719C11.1754 9.02882 11.3856 9.15258 11.5369 9.0702C11.6397 9.0142 11.6491 8.83568 11.6301 8.73561C11.6007 8.58109 11.4704 8.49553 11.3216 8.47233C11.2335 8.45859 11.0051 8.4316 10.9404 8.51895C10.8916 8.58483 10.9443 8.6498 10.9842 8.69859" stroke="white" stroke-width="1.01299" stroke-linecap="round"/>
<path d="M11.0953 10.2536C11.102 10.2595 11.1348 10.1244 11.1447 10.0987C11.1955 9.96592 11.2321 9.8323 11.2976 9.70648C11.313 9.67684 11.3194 9.65743 11.3174 9.62421C11.3173 9.62153 11.1978 9.80248 11.1817 9.8395C11.1118 9.99997 11.042 10.1621 10.9849 10.3277C10.927 10.4957 10.9076 10.6671 10.8725 10.8398C10.8423 10.988 10.8097 11.1352 10.7621 11.278" stroke="white" stroke-width="1.01299" stroke-linecap="round"/>
<path d="M10.7621 11.9444C10.7621 11.6633 10.5548 11.4131 10.3863 11.2039C10.2926 11.0875 10.1885 10.984 10.0956 10.868C9.98592 10.7308 9.91446 10.6059 9.84263 10.4456C9.8121 10.3775 9.77124 10.2893 9.72539 10.2303C9.71715 10.2197 9.6938 10.1738 9.68288 10.1707C9.67285 10.1678 9.66469 10.2491 9.66437 10.255C9.65951 10.3424 9.67631 10.4207 9.68768 10.5059C9.69328 10.548 9.69083 10.6132 9.71579 10.6486C9.76957 10.7247 9.79092 10.8 9.86046 10.8652C9.89586 10.8984 9.9358 10.952 9.95988 10.9941C10.009 11.08 10.0092 11.0264 10.0092 10.9571C10.0092 10.8296 10.0009 10.7187 10.071 10.606C10.1463 10.485 10.2821 10.4364 10.3671 10.3277C10.4361 10.2396 10.5013 10.1486 10.5646 10.0562C10.6191 9.97659 10.6263 9.94393 10.6263 9.84636C10.6263 9.74171 10.5509 9.63886 10.4707 9.57622C10.412 9.53043 10.2853 9.45556 10.2067 9.45143C9.99191 9.44012 9.89092 9.62944 9.79327 9.79219C9.76455 9.84005 9.72486 9.94509 9.65751 9.94509C9.63802 9.94509 9.61907 9.96932 9.60197 9.97937C9.5777 9.99365 9.55557 10.0665 9.55261 10.0932C9.55023 10.1146 9.50133 10.1055 9.48473 10.1055C9.42675 10.1055 9.37297 10.0416 9.3428 9.9972C9.30855 9.94684 9.30145 9.87765 9.26327 9.83402C9.23075 9.79686 9.2591 9.6507 9.25024 9.60638C9.24547 9.58256 9.22425 9.40322 9.24681 9.43223C9.35824 9.57549 9.45593 9.72484 9.60197 9.83676C9.67775 9.89483 9.75836 9.92869 9.82549 9.99583C9.91507 10.0854 10.0183 10.1559 10.1011 10.2529C10.1145 10.2686 10.2067 10.4002 10.2067 10.3524C10.2067 9.98073 9.99812 9.64436 9.92834 9.28276C9.90076 9.13988 9.87567 9.00067 9.88651 8.85424C9.89317 8.76436 10.0416 8.68475 10.1025 8.63689C10.2108 8.55173 10.2875 8.50113 10.4261 8.50113C10.6001 8.50113 10.7512 8.59309 10.9218 8.61015C11.0347 8.62144 11.1711 8.62737 11.2811 8.59986C11.3724 8.57704 11.4605 8.54731 11.5526 8.52581C11.5896 8.51719 11.7851 8.51506 11.7981 8.46959C11.8057 8.44284 11.7988 8.40539 11.7988 8.37771C11.7988 8.30256 11.6948 8.23052 11.6322 8.21659C11.5818 8.20539 11.5414 8.17598 11.4889 8.16722C11.3568 8.14522 11.2185 8.09509 11.1076 8.01981C10.9969 7.94459 10.8977 7.85518 10.8039 7.75927C10.5286 7.47789 10.2499 7.19382 9.99964 6.89124C9.85383 6.71491 9.74491 6.51138 9.60814 6.32902C9.52276 6.21518 9.49313 6.07319 9.41685 5.95877" stroke="white" stroke-width="1.01299" stroke-linecap="round"/>
<path d="M9.73773 8.7603C9.7426 8.77463 9.77631 8.86812 9.77338 8.85492C9.74812 8.74125 9.70212 8.6276 9.66299 8.51827C9.59717 8.33435 9.53264 8.15063 9.43604 7.98004C9.38879 7.89659 9.33571 7.7938 9.27492 7.7195C9.2508 7.69002 9.23642 7.783 9.23446 7.7908C9.19933 7.93134 9.18416 8.07343 9.17001 8.21727C9.14622 8.45919 9.14043 8.70279 9.09871 8.94268C9.08528 9.0199 9.09597 9.10668 9.09597 9.18471C9.09597 9.22729 9.08229 9.24938 9.07197 9.2855C9.05981 9.32806 9.05894 9.36935 9.05894 9.41578C9.05894 9.44937 9.07073 9.54776 9.05825 9.51656C9.04153 9.47474 9.02673 9.43208 9.00957 9.39041C8.94718 9.23887 8.88906 9.0786 8.84639 8.92074C8.83825 8.89062 8.8163 8.86593 8.8128 8.83435C8.80892 8.79946 8.81016 8.77971 8.79428 8.74796C8.77595 8.71129 8.78614 8.7233 8.80045 8.7555C8.8319 8.82626 8.86827 8.88987 8.90399 8.95845C8.96477 9.07515 9.01192 9.21262 9.04386 9.34035C9.05451 9.38298 9.06519 9.43707 9.08362 9.47611C9.12556 9.56491 9.1372 9.67779 9.20704 9.74763" stroke="white" stroke-width="1.01299" stroke-linecap="round"/>
<path d="M8.84914 9.00713C8.81973 8.81597 8.74825 8.63646 8.73738 8.44079C8.73062 8.31902 8.72573 8.19874 8.72573 8.07603C8.72573 8.01211 8.71173 7.9449 8.70378 7.8813C8.69261 7.79188 8.70104 7.69713 8.70104 7.60705C8.70104 7.4689 8.66402 7.33344 8.66402 7.19429C8.66402 6.96181 8.72623 6.74382 8.75041 6.51414C8.75901 6.43241 8.7954 6.32913 8.82446 6.25222C8.904 6.04167 8.93553 5.82521 8.93553 5.60086" stroke="white" stroke-width="1.01299" stroke-linecap="round"/>
<path d="M9.81016 6.26671C9.80736 6.21641 9.77443 6.15927 9.74853 6.11865C9.68784 6.02344 9.62691 5.9368 9.55596 5.84904C9.39242 5.64677 9.17852 5.43565 9.17852 5.15749C9.17852 5.10349 9.16906 5.03846 9.19735 4.98974C9.22455 4.94289 9.28301 4.92499 9.28636 4.86478C9.28848 4.82668 9.31134 4.77231 9.32316 4.73554C9.32772 4.72138 9.33803 4.71852 9.33172 4.72955C9.32705 4.73774 9.28929 4.73622 9.27866 4.74154" stroke="white" stroke-width="1.01299" stroke-linecap="round"/>
<path d="M9.63298 5.61966C9.55702 5.5437 9.55839 5.40763 9.53883 5.30983C9.53039 5.26759 9.52512 5.22234 9.51316 5.18102C9.50072 5.13804 9.47986 5.09373 9.47293 5.04964C9.4648 4.99792 9.44041 4.94837 9.44041 4.89558" stroke="white" stroke-width="1.01299" stroke-linecap="round"/>
<path d="M9.50973 4.37949C9.53577 4.3766 9.56401 4.30988 9.58248 4.29048C9.59895 4.27319 9.60161 4.25992 9.60601 4.23613C9.60973 4.21604 9.6034 4.15555 9.60986 4.17494C9.62209 4.21163 9.62143 4.25408 9.6304 4.29177C9.64492 4.35272 9.67599 4.41266 9.71599 4.4608C9.73374 4.48216 9.74081 4.5056 9.74081 4.46936C9.74081 4.39664 9.71658 4.32946 9.7023 4.25881C9.68269 4.16181 9.65752 4.06531 9.64881 3.96653C9.64591 3.93374 9.63366 3.89015 9.64239 3.85741C9.66076 3.78851 9.68671 3.7225 9.71599 3.65713C9.73091 3.62383 9.74351 3.58218 9.76692 3.55357C9.7695 3.55042 9.74674 3.6112 9.74081 3.62204C9.64651 3.79463 9.47677 3.88835 9.33427 4.0166C9.28199 4.06365 9.23242 4.13014 9.23242 4.20275C9.23242 4.23143 9.23242 4.2601 9.23242 4.28877C9.23242 4.30447 9.22349 4.34776 9.2337 4.33584C9.29655 4.26253 9.38738 4.2172 9.47249 4.17622C9.47756 4.17378 9.49126 4.15606 9.49261 4.15953C9.50272 4.18553 9.46278 4.23879 9.45195 4.25924C9.44845 4.26586 9.40719 4.34985 9.40188 4.34954C9.38764 4.3487 9.39424 4.24998 9.39461 4.23999C9.39604 4.20133 9.39961 4.14821 9.419 4.11332C9.43086 4.09197 9.43606 4.1594 9.43997 4.1835C9.45462 4.2738 9.46351 4.35879 9.46351 4.45053C9.46351 4.54097 9.46351 4.26966 9.46351 4.17922" stroke="white" stroke-width="0.337662" stroke-linecap="round"/>
<path d="M9.80466 3.18486C9.80387 3.19272 9.79802 3.19961 9.79485 3.20665C9.7856 3.2272 9.77787 3.24843 9.76689 3.26819C9.74191 3.31316 9.72036 3.36066 9.69209 3.40363C9.67561 3.42868 9.65795 3.45205 9.64053 3.47643C9.612 3.51639 9.5858 3.55811 9.55629 3.59735C9.53363 3.62747 9.51165 3.65789 9.48912 3.68794C9.47724 3.70378 9.46704 3.71866 9.44845 3.72589C9.42761 3.73399 9.40606 3.73373 9.39289 3.75348" stroke="white" stroke-width="0.337662" stroke-linecap="round"/>
<path d="M9.06391 40.3506C-1.91011 41.7013 -0.897131 24.7933 7.37558 25.6375L6.19376 29.7143C1.46649 27.5195 -0.221826 46.4286 16.8301 35.7922L22.2327 31.9091L22.4015 32.4156C16.1886 38.2234 11.2024 40.2381 9.06391 40.3506Z" stroke="white" stroke-width="0.337662"/>
<path d="M35.7392 29.3766C36.921 24.987 32.8691 24.8744 31.5184 26.8441L31.0119 25.6623C34.7262 22.6234 37.934 26.1688 36.921 29.5455C37.2587 29.7143 38.1101 28.7013 38.4405 28.3636C37.6301 31.8753 35.3453 33.4848 34.0509 33.4286C36.4145 32.0779 34.0509 27.5195 34.3886 28.026L34.3886 28.026C35.1018 29.0958 35.4016 29.5455 35.7392 29.3766Z" stroke="white" stroke-width="0.337662"/>
<path d="M10.9992 39.258C11.1806 39.258 11.3616 39.1845 11.5324 39.1326C11.9473 39.0066 12.366 38.8979 12.7816 38.7769C12.8259 38.764 12.9492 38.7066 12.9138 38.7361C12.8511 38.7883 12.7623 38.832 12.6925 38.8743C12.2883 39.1194 11.8448 39.2985 11.4418 39.5457C11.3698 39.5899 11.2715 39.5757 11.1896 39.6039C11.1503 39.6174 11.01 39.6788 11.0189 39.6764C11.0834 39.6585 11.1457 39.6141 11.2032 39.5812C11.333 39.5069 11.467 39.4375 11.6019 39.3728C11.9505 39.2056 12.2993 39.0742 12.6215 38.8562C12.6353 38.8469 12.7934 38.747 12.7786 38.7202C12.7652 38.6961 12.5611 38.769 12.543 38.7746C12.0365 38.9307 11.5404 39.1183 11.0317 39.2693C10.9567 39.2916 10.8812 39.3124 10.8059 39.3335C10.7886 39.3383 10.7403 39.3568 10.753 39.3441C10.8125 39.2846 10.922 39.2471 10.9932 39.2036C11.318 39.0051 11.6722 38.8559 12.0279 38.7225C12.0358 38.7195 12.1948 38.6548 12.1374 38.6636C11.9622 38.6905 11.7901 38.7762 11.6246 38.8365C11.4504 38.9 11.2765 38.9549 11.0974 39.0027C11.0064 39.027 10.7355 39.102 10.8293 39.0926C10.9307 39.0824 11.0412 39.046 11.1359 39.011C11.336 38.9371 11.5323 38.8542 11.7333 38.7822C11.8988 38.7228 12.0619 38.6574 12.2273 38.5979C12.3066 38.5693 12.373 38.5293 12.2597 38.5881C11.9974 38.7243 11.7395 38.8689 11.4803 39.011C11.3695 39.0718 11.435 39.0579 11.5143 39.0314C11.6979 38.9702 11.8815 38.92 12.0687 38.8713C12.7153 38.7029 13.3882 38.5677 13.9704 38.2248C14.3743 37.9869 14.8094 37.788 15.1652 37.4779C15.2732 37.3837 15.3935 37.3271 15.5201 37.2626C15.5692 37.2376 15.7005 37.1373 15.6591 37.1735C15.4686 37.3402 15.2433 37.4723 15.0217 37.5927C14.6718 37.7827 14.3117 37.954 13.9628 38.1463C13.7227 38.2786 13.4693 38.3819 13.2234 38.5027C13.1493 38.5392 13.076 38.5792 13.0044 38.6205C12.9354 38.6604 12.8859 38.7232 12.8209 38.7686C12.7336 38.8295 12.7082 38.8501 12.8352 38.8501C12.974 38.8501 13.0799 38.7818 13.2121 38.758C13.3519 38.7328 13.504 38.6319 13.632 38.5722C13.8572 38.4672 14.0851 38.3664 14.3057 38.252C14.4874 38.1578 14.6823 38.0788 14.851 37.9612C15.0431 37.8273 15.2713 37.7402 15.459 37.5995C15.551 37.5304 15.6598 37.4829 15.7573 37.422C15.8788 37.346 15.9894 37.2419 16.0971 37.1478C16.1736 37.0811 16.3993 36.8813 16.3109 36.9311C16.2227 36.9807 16.1447 37.0442 16.0526 37.0912C15.8148 37.2123 15.5688 37.3141 15.3253 37.4227C14.7707 37.6701 14.2417 37.9505 13.7113 38.2452C13.341 38.4509 12.9075 38.6067 12.481 38.6334C12.4649 38.6344 12.4051 38.6542 12.4342 38.6251C12.4859 38.5734 12.5543 38.5406 12.62 38.5103C12.8191 38.4184 13.0365 38.3478 13.2446 38.2784C13.6369 38.1476 14.0118 37.9972 14.3759 37.7966C14.5252 37.7143 14.678 37.6367 14.8253 37.5511C14.9349 37.4874 15.0518 37.4359 15.1591 37.3683C15.2328 37.3219 15.316 37.2966 15.3902 37.2528C15.4026 37.2455 15.4663 37.2071 15.4522 37.2158C15.326 37.2929 15.1913 37.3564 15.0564 37.4167C14.8271 37.5193 14.5764 37.5553 14.3465 37.6538C14.1712 37.729 14.0106 37.8271 13.8405 37.9121C13.6929 37.9859 13.5452 38.0689 13.4054 38.1568C13.3816 38.1718 13.2135 38.2528 13.3367 38.2089C13.6079 38.1125 13.8787 38.0169 14.1343 37.8827C14.4086 37.7386 14.6783 37.5845 14.9522 37.4393C15.1711 37.3233 15.3613 37.1671 15.5775 37.0451C16.0848 36.7589 16.5915 36.4678 17.0759 36.1449" stroke="white" stroke-width="0.675325" stroke-linecap="round"/>
<path d="M16.8992 36.1584C16.9154 36.1564 16.9342 36.1335 16.9475 36.1237C16.9877 36.0943 17.0335 36.0729 17.079 36.0527C17.2112 35.9939 17.3319 35.9077 17.4672 35.8563C17.6248 35.7965 17.7689 35.6884 17.9007 35.5875C18.034 35.4853 18.1974 35.4086 18.3402 35.3186C18.4798 35.2307 18.6074 35.1225 18.745 35.0301C18.9774 34.8742 19.1868 34.678 19.4013 34.4992C19.5875 34.3441 19.7952 34.2159 19.9791 34.0574C20.1411 33.9177 20.3219 33.8136 20.4881 33.6843C20.6127 33.5874 20.7605 33.5057 20.8756 33.3995C20.92 33.3585 21.0139 33.2775 21.0727 33.2628" stroke="white" stroke-width="0.675325" stroke-linecap="round"/>
<path d="M16.1575 37.0334C16.1863 37.0298 16.2588 36.9628 16.2828 36.9425C16.3632 36.8745 16.4497 36.7677 16.5499 36.7329C16.6468 36.6992 16.7274 36.6216 16.8087 36.5622C16.8696 36.5178 16.9435 36.4919 17.0054 36.449C17.0721 36.4028 17.1377 36.343 17.2095 36.3071C17.2741 36.2748 17.3661 36.207 17.4164 36.1568C17.5048 36.0683 17.6474 36.0111 17.7438 35.9147" stroke="white" stroke-width="0.675325" stroke-linecap="round"/>
<path d="M20.883 33.2097C20.9681 33.2097 21.0893 33.1543 21.165 33.115C21.2448 33.0736 21.303 33.0171 21.3765 32.9722C21.4282 32.9406 21.4724 32.8849 21.5175 32.8423C21.5362 32.8247 21.5676 32.831 21.5806 32.8089C21.595 32.7844 21.6085 32.7611 21.6344 32.7458C21.7177 32.6968 21.7634 32.6062 21.8514 32.5622C21.906 32.5349 22.0454 32.4378 22.0685 32.3915" stroke="white" stroke-width="0.675325" stroke-linecap="round"/>
<path d="M2.51159 29.2334C2.57518 29.1698 2.64697 29.1179 2.7183 29.0633C2.97231 28.8691 3.2306 28.6829 3.49529 28.5033C3.92236 28.2135 4.35503 27.9339 4.79858 27.6699C4.977 27.5637 5.15603 27.4579 5.33661 27.3554C5.35358 27.3458 5.40323 27.3183 5.39085 27.3334C5.34285 27.3919 5.28365 27.4403 5.22813 27.4917C4.80485 27.8838 4.36459 28.261 3.90871 28.6147C3.76222 28.7284 3.61344 28.8406 3.45497 28.9372C3.39485 28.9739 3.34728 29.0007 3.28418 29.0267C3.26851 29.0331 3.23496 29.0487 3.2336 29.0318C3.2299 28.9855 3.30819 28.8932 3.32963 28.8654C3.42189 28.7457 3.53129 28.6395 3.64116 28.5363C4.03488 28.1663 4.46555 27.8361 4.87775 27.4873C5.01642 27.37 5.15623 27.2532 5.28677 27.1267C5.33196 27.0829 5.39642 27.0261 5.42897 26.9684C5.44442 26.941 5.37914 27.0068 5.35567 27.0277C5.20209 27.1647 5.046 27.2985 4.88728 27.4294C4.46169 27.7806 4.03012 28.1272 3.58838 28.4578C3.3918 28.605 3.19146 28.7468 2.97778 28.8683C2.93672 28.8917 2.81587 28.9549 2.76081 28.9753C2.74376 28.9817 2.70394 28.9875 2.70657 28.9695C2.71651 28.9015 2.80185 28.8056 2.83924 28.7576C2.94001 28.6285 3.05554 28.5145 3.17716 28.4051C3.49119 28.1226 3.82016 27.8565 4.144 27.5856C4.22114 27.521 4.29663 27.4531 4.37783 27.3935C4.39701 27.3795 4.44847 27.3431 4.44381 27.3664C4.43601 27.4054 4.37657 27.46 4.35438 27.4859C4.22088 27.6413 4.0809 27.792 3.9351 27.9359C3.66408 28.2036 3.36959 28.462 3.04375 28.6616C3.0359 28.6664 2.9366 28.7349 2.91621 28.7298C2.90014 28.7258 2.92619 28.6979 2.93454 28.6836C2.96471 28.6319 2.98132 28.6089 3.02396 28.5612C3.21895 28.3429 3.45832 28.1567 3.68001 27.9667C3.89661 27.7811 4.11706 27.6007 4.34118 27.4243C4.63244 27.195 3.80235 27.935 3.51142 28.1646C3.3698 28.2764 3.22473 28.3821 3.07014 28.4754C3.0279 28.501 2.83406 28.6427 2.76814 28.6257C2.75939 28.6235 2.76415 28.6067 2.76814 28.5986C2.78645 28.5615 2.89373 28.4221 2.90595 28.4065C3.06753 28.2004 3.23813 28.0001 3.41173 27.804C3.51767 27.6843 3.62592 27.5628 3.74011 27.4507C3.75051 27.4405 3.76596 27.4256 3.75404 27.4522C3.7233 27.5207 3.674 27.5821 3.6287 27.6413C3.47832 27.8376 3.31861 28.0259 3.14491 28.202C3.05553 28.2927 2.96423 28.3822 2.86637 28.4637C2.83982 28.4858 2.74096 28.5854 2.69777 28.5825C2.68037 28.5813 2.8744 28.2948 2.88249 28.2849C3.08373 28.0368 3.29667 27.7983 3.52168 27.5716C3.60984 27.4828 3.70019 27.3968 3.79436 27.3143C3.8141 27.2971 3.89438 27.2073 3.9307 27.2073C3.95146 27.2073 3.91463 27.2459 3.90284 27.263C3.83306 27.3642 3.75763 27.4623 3.68294 27.5599C3.51026 27.7854 3.32361 28.0048 3.12805 28.2108C3.0468 28.2964 2.96101 28.376 2.87076 28.452C2.82523 28.4903 2.75237 28.5731 2.69191 28.5913C2.66898 28.5981 2.70933 28.5464 2.72196 28.526C2.76334 28.4594 2.80731 28.3943 2.85464 28.3318C2.98749 28.1562 3.12784 27.983 3.27099 27.8157C3.36623 27.7044 3.46791 27.5986 3.56493 27.4888C3.58874 27.4619 3.61589 27.4293 3.64629 27.4096C3.6836 27.3855 3.75377 27.2875 3.66755 27.3986C3.44574 27.6847 3.15639 27.9292 2.88103 28.1617C2.78395 28.2437 2.67643 28.3157 2.58342 28.4021C2.54095 28.4416 2.54585 28.4108 2.57316 28.3809C2.75725 28.1793 2.91466 27.9516 3.10533 27.7556C3.22158 27.6361 3.35974 27.5377 3.4645 27.4067C3.53317 27.3209 3.61881 27.2421 3.69613 27.1648C3.81616 27.0448 3.96187 26.9519 4.0817 26.832C4.26554 26.6482 4.48987 26.48 4.72748 26.3761C4.85839 26.3188 4.96209 26.2649 5.10571 26.2324C5.36285 26.1744 5.62033 26.1053 5.87464 26.0338C5.97868 26.0045 6.06876 25.948 6.17957 25.948C6.29962 25.948 6.42098 25.9084 6.54168 25.9084C6.62989 25.9084 6.71809 25.9084 6.8063 25.9084C6.8663 25.9084 6.83928 26.0704 6.83928 26.1144C6.83928 26.45 6.58998 26.7515 6.45665 27.0431C6.42372 27.1152 6.40918 27.1988 6.38408 27.274C6.33685 27.4157 6.29199 27.5737 6.269 27.7204C6.24488 27.8745 6.18023 28.0343 6.12973 28.1808C6.05191 28.4064 5.91569 28.6344 5.91569 28.8771C5.91569 28.9629 5.91569 29.0486 5.91569 29.1344C5.91569 29.2123 5.9273 29.2818 5.98826 29.174C6.01932 29.119 6.0554 29.0718 6.07109 29.0091C6.0822 28.9646 6.09901 28.9112 6.12093 28.8705C6.1617 28.7948 6.18244 28.7086 6.21622 28.6294C6.24132 28.5705 6.29832 28.4935 6.29832 28.4285" stroke="white" stroke-width="0.675325" stroke-linecap="round"/>
<path d="M5.63861 29.3125C5.61366 29.3094 5.57232 29.2758 5.54625 29.2656C5.4786 29.2393 5.40728 29.2098 5.33514 29.1967C5.22983 29.1776 5.12343 29.1635 5.01628 29.1681C4.70383 29.1817 4.39857 29.3752 4.1374 29.528C3.96128 29.6311 3.78139 29.7345 3.62283 29.8638C3.5945 29.8869 3.56632 29.9153 3.53413 29.9334C3.53399 29.9335 3.606 29.8627 3.61477 29.8557C3.79844 29.7093 4.00786 29.5943 4.20484 29.4672C4.5332 29.2554 4.84226 29.0212 5.15189 28.7833C5.23898 28.7164 5.32707 28.6507 5.41137 28.5803C5.4168 28.5757 5.48002 28.509 5.49787 28.5062C5.52016 28.5028 5.47631 28.5459 5.46415 28.5649C5.42285 28.6294 5.38007 28.6923 5.33368 28.7533C5.13205 29.0184 4.91122 29.2709 4.60799 29.4225C4.54783 29.4526 4.64524 29.3431 4.64758 29.3404C4.80729 29.1568 5.00516 29.0155 5.1922 28.8617C5.41568 28.6781 5.64192 28.4975 5.86144 28.3091C5.92492 28.2546 5.98675 28.1986 6.04616 28.1397C6.05943 28.1266 6.09473 28.0744 6.1136 28.065C6.15845 28.0425 6.06171 28.151 6.0315 28.191C5.9378 28.3152 5.82577 28.4182 5.70091 28.5106C5.65508 28.5446 5.55706 28.6245 5.49054 28.5979C5.43708 28.5765 5.51491 28.3414 5.52572 28.3112C5.58671 28.1412 5.6734 27.9804 5.74416 27.8143C5.7985 27.6867 5.87598 27.5562 5.90103 27.4184C5.90388 27.4027 5.88784 27.4476 5.88197 27.4624C5.83697 27.5762 5.78585 27.6869 5.7273 27.7945C5.57505 28.0741 5.37833 28.3281 5.14602 28.5458C5.07378 28.6135 4.99778 28.6779 4.91952 28.7386C4.90477 28.75 4.84422 28.8062 4.81617 28.8053C4.79741 28.8047 4.97607 28.4035 4.98916 28.3802C5.12987 28.129 5.28707 27.8867 5.43263 27.6383C5.56557 27.4115 5.68708 27.1756 5.83066 26.9552C5.89876 26.8506 5.80783 26.9948 5.79107 27.0197C5.68238 27.1809 5.57078 27.3412 5.45829 27.4998C5.33335 27.6759 5.19897 27.8467 5.0478 28.0012C5.03944 28.0097 4.83923 28.2221 4.88507 28.1045C4.95665 27.921 5.09604 27.7554 5.21493 27.6017C5.42282 27.3329 5.65546 27.0883 5.90469 26.8577C5.91987 26.8436 6.13652 26.6365 6.16271 26.6583C6.18436 26.6764 6.05272 26.8664 6.0447 26.8804C5.90068 27.1317 5.79168 27.4074 5.63421 27.6508C5.458 27.9231 5.92263 27.0693 6.08428 26.7881C6.13994 26.6912 6.19706 26.5953 6.25287 26.4985C6.25685 26.4916 6.30138 26.3936 6.31884 26.382C6.34909 26.3618 6.29003 26.4487 6.27633 26.4824C6.23719 26.5786 6.20336 26.6758 6.17224 26.7749C6.1225 26.9331 6.06684 27.0893 6.00878 27.2447C5.98847 27.2991 5.96762 27.3533 5.94501 27.4067C5.93755 27.4243 5.91569 27.4867 5.91569 27.4272C5.91569 27.1659 5.99241 26.9073 6.00731 26.6466C6.01051 26.5906 5.96675 26.6092 5.92155 26.6165C5.68989 26.654 5.4701 26.748 5.24865 26.8218C4.79776 26.9721 4.31754 27.1155 3.93216 27.406C3.87138 27.4518 3.78797 27.5123 3.74964 27.5804C3.71532 27.6415 3.86888 27.5064 3.92336 27.4624C4.32179 27.141 4.74622 26.8415 5.23032 26.6634C5.23672 26.6611 5.37684 26.5983 5.37252 26.6371C5.36314 26.7215 5.26802 26.8188 5.22079 26.8833C4.92001 27.2944 4.55065 27.6394 4.16599 27.9697C4.10458 28.0224 3.93637 28.1946 3.98127 28.1273C4.03179 28.0515 4.12102 27.989 4.18725 27.9272" stroke="white" stroke-width="0.675325" stroke-linecap="round"/>
<path d="M2.36646 28.9035C2.33074 28.9464 2.31498 29.0048 2.30049 29.0574C2.25426 29.2253 2.21077 29.3943 2.16854 29.5632C2.06497 29.9775 1.77128 31.2246 1.87094 30.8093C1.94035 30.5201 2.05496 30.2371 2.15535 29.9576C2.20977 29.8061 2.26588 29.6569 2.31368 29.5031C2.34382 29.4061 2.37958 29.3045 2.43169 29.2165C2.44526 29.1936 2.46133 29.1754 2.47128 29.1505C2.48897 29.1063 2.47201 29.2458 2.47201 29.2935C2.47201 29.4998 2.45706 29.7014 2.4163 29.9041C2.34965 30.2355 2.2274 30.5438 2.1275 30.865C2.11237 30.9137 2.06922 31.0149 2.08351 31.0703C2.09975 31.1332 2.17951 30.9822 2.22132 30.9325C2.64841 30.4247 3.10157 29.939 3.5642 29.4635C3.82336 29.1972 4.08433 28.9312 4.36245 28.6843C4.4081 28.6438 4.45461 28.6042 4.50245 28.5663C4.53214 28.5428 4.56416 28.499 4.60067 28.5091C4.63911 28.5198 4.46337 28.9843 4.4548 29.0083C4.23981 29.6124 3.88865 30.2694 3.30031 30.5814C3.19564 30.6369 3.0796 30.6854 3.12366 30.5257C3.20135 30.244 3.39813 29.9805 3.5642 29.7465C3.79463 29.4218 4.03734 29.1081 4.306 28.8141C4.39697 28.7145 4.48955 28.6164 4.58088 28.5172C4.59947 28.497 4.64744 28.4291 4.67984 28.4168C4.70108 28.4087 4.6684 28.4612 4.65785 28.4813C4.62481 28.5443 4.58888 28.606 4.55083 28.666C4.37409 28.9449 4.18045 29.2139 3.98568 29.4804C3.76077 29.7881 3.52144 30.0924 3.26513 30.3747C3.13973 30.5128 2.98706 30.695 2.81433 30.7785C2.75647 30.8065 2.85593 30.608 2.85977 30.6004C2.97997 30.3647 3.12661 30.1361 3.26953 29.9136C3.38865 29.7282 3.50614 29.5389 3.64043 29.3638C3.64519 29.3576 3.75649 29.2031 3.72986 29.2803C3.67449 29.4407 3.59499 29.5969 3.51582 29.7465C3.3373 30.0837 3.14753 30.4327 2.91841 30.7382C2.80399 30.8908 2.67306 31.0406 2.52186 31.1582C2.46702 31.2009 2.35596 31.2838 2.354 31.156C2.35131 30.9818 2.41687 30.7913 2.46175 30.6261C2.51554 30.4281 2.57691 30.2315 2.64353 30.0375C2.74911 29.73 2.88884 29.4386 3.04156 29.152C3.08134 29.0773 3.12276 29.0045 3.16984 28.9343C3.17695 28.9237 3.19594 28.8944 3.19696 28.9072C3.23054 29.327 3.01721 29.7848 2.83925 30.1504C2.73221 30.3703 2.61233 30.6019 2.4229 30.7632C2.3937 30.788 2.345 30.8307 2.30195 30.8313C2.26081 30.832 2.27388 30.735 2.2741 30.717C2.27929 30.2781 2.48732 29.8137 2.76521 29.4797C2.77365 29.4695 2.98457 29.244 2.99685 29.2685C3.00796 29.2908 2.99827 29.3509 2.99611 29.3697C2.97874 29.5208 2.92859 29.6688 2.87663 29.811C2.75084 30.1552 2.58926 30.4946 2.41777 30.8181C2.29704 31.0459 2.1517 31.3242 1.92005 31.4602C1.80315 31.5289 1.86602 31.3001 1.87534 31.2535C1.92573 31.0016 2.02623 30.7548 2.11577 30.5147C2.15968 30.3969 2.21104 30.2669 2.28143 30.1614C2.29513 30.1408 2.28137 30.2109 2.27776 30.2354C2.2631 30.3346 2.24138 30.4324 2.21546 30.5293C2.14165 30.8053 2.05464 31.0823 1.94424 31.3459C1.90071 31.4498 1.85206 31.5518 1.79691 31.6501C1.77707 31.6854 1.72576 31.7857 1.72141 31.7454C1.70109 31.5575 1.74221 31.358 1.75952 31.1714C1.78922 30.8514 1.78766 30.5223 1.85848 30.2075C1.88685 30.0814 1.91491 29.9377 1.98089 29.8242C2.0084 29.7769 2.02704 29.713 2.06006 29.6717C2.07753 29.6499 2.07618 29.6266 2.07618 29.5999C2.07618 29.5594 2.06969 29.6698 2.06812 29.6783C2.00247 30.0357 1.96005 30.3972 1.89586 30.7551C1.83943 31.0697 1.74269 31.3758 1.68036 31.6875" stroke="white" stroke-width="0.675325" stroke-linecap="round"/>
<path d="M2.53799 30.7903C2.53799 31.6809 2.00569 34.3124 2.15829 33.435C2.182 33.2986 2.22351 33.1654 2.25358 33.0304C2.32967 32.6888 2.38841 32.3422 2.50134 32.01C2.58118 31.7751 2.6885 31.5472 2.80187 31.3268C2.81147 31.3082 2.94011 31.0333 2.96753 31.0424C2.9907 31.0502 2.98554 31.2126 2.98586 31.2279C2.9899 31.4238 2.99751 31.6264 2.96973 31.8209C2.93999 32.0291 2.86697 32.2336 2.77035 32.4198C2.74006 32.4781 2.6896 32.6123 2.62595 32.647C2.61148 32.6549 2.62984 32.5684 2.63035 32.5656C2.65565 32.429 2.70578 32.2964 2.75496 32.1669C2.90816 31.7633 3.1488 31.3971 3.29006 30.9882C3.30778 30.9369 3.35603 30.8533 3.35603 30.7983C3.35603 30.7805 3.35359 30.8342 3.34796 30.8511C3.32735 30.913 3.29563 30.9732 3.26807 31.0322C2.95935 31.6922 2.48961 32.2622 2.10991 32.8808C1.97827 33.0953 1.9401 33.3206 1.85775 33.5545C1.77101 33.8008 1.73463 34.067 1.63565 34.308C1.63555 34.3082 1.60049 34.4091 1.6012 34.3674C1.60363 34.2237 1.62967 34.0778 1.64371 33.9349C1.70759 33.2847 1.72392 32.6294 1.79911 31.9807C1.82379 31.7677 1.84432 31.5533 1.87754 31.3415C1.88002 31.3257 1.90826 31.1257 1.90393 31.2469C1.89733 31.4317 1.88092 31.6153 1.87901 31.8004C1.87578 32.1138 1.89304 32.4304 1.85482 32.7423C1.82866 32.9557 1.78073 33.1679 1.72288 33.3749C1.70995 33.4211 1.68069 33.5917 1.62759 33.6182C1.60578 33.6291 1.50972 33.2207 1.50591 33.196C1.45551 32.8693 1.44287 32.5499 1.44287 32.2196C1.44287 32.1591 1.44287 31.9773 1.44287 32.0379C1.44287 32.1444 1.44287 32.2509 1.44287 32.3575C1.44287 32.8267 1.4082 33.3112 1.30066 33.7692C1.28209 33.8484 1.28454 33.7624 1.28454 33.7355C1.28454 33.6626 1.28983 33.5913 1.2948 33.5185C1.32152 33.1278 1.30933 32.737 1.35637 32.3472C1.38811 32.0843 1.42148 31.8212 1.45313 31.5585C1.48208 31.3182 1.5346 31.0918 1.59314 30.8577C1.61545 30.7685 1.63898 30.6803 1.66717 30.5924C1.67834 30.5575 1.68286 30.4975 1.70675 30.4736" stroke="white" stroke-width="0.675325" stroke-linecap="round"/>
<path d="M1.45605 33.6006C1.45605 33.3861 1.44447 34.0302 1.45898 34.2442C1.4658 34.3447 1.46464 34.4595 1.48537 34.558C1.49033 34.5815 1.50794 34.6037 1.50883 34.6269C1.51269 34.7272 1.57602 34.8104 1.60119 34.9069C1.65072 35.0967 1.70786 35.2824 1.74339 35.4742C1.77826 35.6625 1.77111 35.8564 1.82256 36.0416C1.84957 36.1388 1.86664 36.2645 1.93104 36.345C1.9564 36.3767 1.96049 36.43 1.98089 36.4667C2.00923 36.5177 2.02654 36.5756 2.05272 36.628C2.13815 36.7988 2.22815 36.9675 2.31661 37.1367C2.40797 37.3115 2.51789 37.4753 2.63033 37.6351C2.68937 37.719 2.76865 37.7783 2.84144 37.8492C3.0385 38.0409 3.30024 38.1715 3.48796 38.3696C3.6035 38.4916 3.69859 38.6272 3.81781 38.7464C3.97959 38.9082 4.18432 39.015 4.3749 39.1319C4.50887 39.2142 4.66983 39.2683 4.79125 39.3694C4.88476 39.4474 5.04156 39.5082 5.15776 39.538C5.31631 39.5788 5.48477 39.6112 5.63568 39.667C5.74272 39.7067 5.85083 39.7647 5.95527 39.8122C6.24026 39.9417 6.56118 39.9498 6.86274 40.0101C7.27689 40.0929 7.70616 40.145 8.12938 40.145C8.33481 40.145 8.5653 40.1717 8.76857 40.1347C8.9096 40.1091 9.06824 40.1348 9.21131 40.1318C9.2737 40.1304 9.34523 40.1075 9.40189 40.1054C9.55385 40.0998 9.72709 40.0938 9.87101 40.0394C10.0117 39.9863 10.1656 39.9287 10.3123 39.8943C10.5108 39.8477 10.7179 39.7978 10.8899 39.6832" stroke="white" stroke-width="0.675325" stroke-linecap="round"/>
<path d="M10.4941 39.5776C10.6216 39.5362 10.7534 39.5069 10.8789 39.4596C10.8805 39.459 11.0184 39.3986 10.9969 39.3929C10.908 39.3692 10.8091 39.3817 10.7228 39.4083C10.5294 39.4678 10.3414 39.5478 10.1488 39.6106C9.66601 39.768 9.17225 39.9511 8.66447 40.0071C8.48063 40.0274 8.74719 39.9239 8.79055 39.9045C9.07135 39.7794 9.36457 39.6777 9.65404 39.5747C9.92556 39.4781 10.2006 39.3792 10.4838 39.3225C10.5751 39.3043 10.854 39.2873 10.7609 39.2873C10.444 39.2873 10.1305 39.4235 9.82923 39.5116C9.69816 39.55 9.56847 39.6012 9.43413 39.6274C9.35536 39.6429 9.57513 39.5507 9.64524 39.5116C9.84259 39.4016 10.0552 39.3135 10.2712 39.2477C10.382 39.2141 10.4944 39.1878 10.6069 39.1613C10.6479 39.1516 10.6026 39.1554 10.5938 39.1554C10.5188 39.1554 10.3904 39.1288 10.3211 39.1635C10.1484 39.2498 9.96208 39.3091 9.78231 39.3797C9.51453 39.4849 9.24834 39.5373 8.96061 39.4955C8.80859 39.4734 8.66171 39.4721 8.50834 39.4721C8.40596 39.4721 8.71309 39.4721 8.81547 39.4721C9.06152 39.4721 9.29365 39.4013 9.53529 39.3636C9.64976 39.3457 9.77702 39.3567 9.8886 39.3269C9.90021 39.3238 9.80861 39.3137 9.79331 39.3137C9.72048 39.3137 9.64023 39.304 9.57047 39.3284C9.45887 39.3674 9.34936 39.4198 9.24062 39.4662C9.10762 39.5229 8.98187 39.5949 8.85359 39.6612C8.75225 39.7135 8.64947 39.7258 8.54426 39.7623C8.43352 39.8007 8.28688 39.7755 8.17189 39.7755C7.87425 39.7755 7.59464 39.7963 7.29887 39.7499C7.16006 39.7281 7.02195 39.7227 6.88179 39.7227C6.75531 39.7227 6.82919 39.7178 6.90818 39.7286C7.2907 39.7809 7.69742 39.7558 8.08246 39.7389C8.22753 39.7325 8.37316 39.7288 8.51787 39.7161C8.53214 39.7149 8.66892 39.7214 8.64248 39.6817C8.5689 39.5713 8.31017 39.5788 8.19901 39.5717C7.95362 39.5561 7.69792 39.5521 7.45354 39.5798C7.2675 39.6009 7.07315 39.6244 6.89059 39.667C6.76769 39.6957 6.92929 39.6695 6.96389 39.667C7.36444 39.638 7.77037 39.6065 8.17189 39.604C8.25227 39.6035 8.33267 39.604 8.41305 39.604C8.45789 39.604 8.33005 39.5695 8.28697 39.5571C8.14668 39.5166 8.0094 39.4676 7.86549 39.4405C7.75745 39.4202 7.64675 39.4149 7.53783 39.4002C7.51471 39.3971 7.39902 39.3925 7.41249 39.3929C7.50851 39.3957 7.60343 39.4239 7.69983 39.4295C7.88603 39.4403 8.07485 39.4336 8.26132 39.4325C8.3487 39.432 8.42158 39.425 8.50174 39.3929" stroke="white" stroke-width="0.675325" stroke-linecap="round"/>
<path d="M2.20811 34.102C2.25688 34.0472 2.22594 33.9538 2.24476 33.888C2.26612 33.8132 2.27006 33.731 2.30047 33.6593C2.34663 33.5505 2.39502 33.4365 2.40529 33.3184C2.41132 33.2491 2.42714 33.1731 2.44268 33.1051C2.44814 33.0812 2.46134 32.9965 2.48519 32.9937C2.52233 32.9893 2.59671 32.8718 2.59001 32.9622C2.58376 33.0466 2.55537 33.1278 2.5519 33.2129C2.54816 33.3045 2.55116 33.3968 2.55116 33.4885C2.55116 33.6178 2.53873 33.7545 2.56142 33.8821C2.5914 34.0507 2.55116 34.2356 2.55116 34.4055C2.55116 34.4998 2.55116 34.5941 2.55116 34.6884C2.55116 34.7817 2.57408 34.8553 2.58781 34.9464C2.62934 35.222 2.74684 35.497 2.84143 35.7572C2.91089 35.9482 2.95831 36.1561 3.04228 36.345C3.11751 36.5143 3.19788 36.6745 3.27758 36.8405C3.37057 37.0343 3.46362 37.2486 3.61989 37.4006C3.77691 37.5532 3.93285 37.7103 4.08315 37.869C4.23461 38.0288 4.37381 38.1967 4.54349 38.3403C4.625 38.4093 4.70387 38.4769 4.80004 38.525C4.95623 38.6031 5.13327 38.6181 5.28969 38.6936C5.39389 38.7439 5.50439 38.7916 5.60562 38.8461C5.66767 38.8795 5.74076 38.8939 5.79987 38.9311C5.98986 39.0507 6.16505 39.1692 6.37821 39.2478C6.53041 39.3038 6.7269 39.3381 6.88912 39.3401C6.98402 39.3413 7.03264 39.3432 7.11122 39.3856C7.14618 39.4044 7.41585 39.4219 7.40589 39.387C7.38916 39.3285 7.07282 39.3369 7.02839 39.3342C6.7961 39.3202 6.56033 39.3149 6.32763 39.3137C6.25033 39.3133 6.10116 39.3441 6.0271 39.3108C6.00623 39.3014 5.9909 39.2789 5.96553 39.2683C5.87385 39.2299 5.76584 39.2183 5.66499 39.2082C5.46108 39.1878 5.30562 39.1433 5.12696 39.0337C5.0294 38.9738 4.93109 38.9013 4.83669 38.8358C4.73816 38.7675 4.65155 38.7009 4.56914 38.613C4.48838 38.5268 4.41594 38.4327 4.32578 38.3564C4.23882 38.2828 4.12403 38.2423 4.03917 38.1629C3.88128 38.0151 3.70004 37.9165 3.55978 37.7495C3.4484 37.6169 3.34835 37.4753 3.23799 37.3419C3.15986 37.2475 3.11992 37.1395 3.06574 37.0311C3.02141 36.9425 2.98769 36.8486 2.93819 36.7628C2.88977 36.6789 2.8388 36.5955 2.79452 36.5092C2.78477 36.4902 2.7528 36.4678 2.74981 36.4499C2.74404 36.4153 2.71125 36.3803 2.68897 36.3516C2.62366 36.2677 2.56894 36.1556 2.52477 36.0592C2.42833 35.8485 2.38945 35.6206 2.32979 35.398C2.29926 35.2841 2.27568 35.1726 2.25429 35.0571C2.2414 34.9875 2.23721 34.9165 2.23377 34.846C2.23005 34.7698 2.20052 34.6987 2.19565 34.6232C2.19296 34.5815 2.18246 34.4612 2.16926 34.5008C2.15583 34.5411 2.15587 34.6095 2.15534 34.6518C2.15418 34.7429 2.15654 34.8324 2.1656 34.923C2.16671 34.9341 2.17471 35.0133 2.1656 34.9992C2.09718 34.8935 1.9715 34.8288 1.91051 34.7155C1.86113 34.6238 1.85026 34.4239 1.90758 34.3322C1.91844 34.3148 1.95831 34.4442 1.96036 34.4509C1.99643 34.5699 2.03826 34.6849 2.06298 34.8072C2.15253 35.25 2.22832 35.6912 2.37304 36.12C2.44016 36.3189 2.51043 36.5171 2.57902 36.7152C2.62456 36.8468 2.71526 36.9715 2.74614 37.1074C2.77186 37.2205 2.80735 37.4138 2.94699 37.4138" stroke="white" stroke-width="0.675325" stroke-linecap="round"/>
<path d="M31.5777 26.3378C31.5777 26.2662 31.6212 26.2118 31.6469 26.1475C31.6735 26.0811 31.6841 26.0007 31.7334 25.9486C31.8062 25.8716 31.8541 25.7711 31.9133 25.6839C31.9392 25.6457 32.0747 25.5141 31.9574 25.5749C31.8278 25.6421 31.7063 25.7179 31.5803 25.792C31.5241 25.8251 31.4376 25.9261 31.4376 25.9261C31.4376 25.9261 31.6002 25.8495 31.6867 25.8275C31.9219 25.7676 32.1538 25.698 32.3908 25.6441C32.5954 25.5976 32.7716 25.4974 32.9677 25.4279C33.1219 25.3731 32.8797 25.4417 32.8362 25.4668C32.622 25.5904 32.3903 25.6861 32.1797 25.8154C32.0892 25.8709 31.9871 25.9641 31.877 25.9641C31.7572 25.9641 31.6379 25.9486 31.5163 25.9486C31.5039 25.9486 31.4099 25.9545 31.4099 25.9399C31.4099 25.8995 31.6997 25.7663 31.7369 25.7462C31.8953 25.6605 32.0616 25.5859 32.2161 25.4936C32.3673 25.4033 32.5126 25.3874 32.6849 25.3656C32.8805 25.3408 33.0614 25.2745 33.2471 25.2134C33.3774 25.1705 33.5148 25.1488 33.6476 25.1156C33.8295 25.0701 34.0105 25.0767 34.1968 25.0767C34.2124 25.0767 34.3381 25.0823 34.33 25.0888C34.275 25.1328 34.0611 25.1188 33.9901 25.1225C33.8572 25.1295 33.7318 25.1647 33.5991 25.171C33.3465 25.183 33.0954 25.1933 32.8423 25.1779C32.7939 25.175 32.5097 25.1654 32.6987 25.1234C32.8174 25.097 32.9124 25.0767 33.036 25.0767C33.1866 25.0767 33.4123 25.1178 33.555 25.0577C33.6139 25.0329 33.6785 25.0223 33.7418 25.0153C33.8214 25.0064 33.8945 24.9989 33.9754 24.9989" stroke="white" stroke-width="0.675325" stroke-linecap="round"/>
<path d="M31.8735 25.5905C31.8735 25.518 32.1109 25.4522 32.1685 25.4183C32.2737 25.3565 32.371 25.3012 32.4807 25.248C32.6983 25.1423 32.9124 25.0357 33.1467 24.9677C33.2499 24.9378 33.3619 24.9001 33.4694 24.8907C33.5109 24.8871 33.5531 24.8954 33.5913 24.8743C33.6104 24.8638 33.6422 24.8444 33.664 24.8432C33.8669 24.8312 34.0375 24.9332 34.2323 24.9755C34.3179 24.9941 34.4071 24.9708 34.4926 24.9867C34.5877 25.0044 34.6877 25.0056 34.7841 25.0153C34.8567 25.0225 34.8948 25.0299 34.9493 25.0732C35.0182 25.128 35.0822 25.1907 35.15 25.2445C35.2209 25.3008 35.2895 25.3785 35.3454 25.4504C35.3915 25.5095 35.4604 25.5547 35.5132 25.6095C35.6165 25.7166 35.736 25.8034 35.8203 25.9252C35.8584 25.9802 35.9074 26.0135 35.9405 26.0731C35.9684 26.1232 36.0103 26.2125 36.0469 26.2522C36.1033 26.3133 36.1463 26.4197 36.1741 26.4969C36.1921 26.547 36.2307 26.5999 36.2554 26.6492C36.2736 26.6856 36.3107 26.7989 36.3107 26.7582C36.3107 26.6547 36.2757 26.5526 36.2407 26.4554C36.2189 26.3951 36.1926 26.3392 36.1741 26.279C36.1553 26.218 36.1049 26.1797 36.0737 26.1267C36.0531 26.0916 35.9765 26.0658 35.9449 26.0342C35.877 25.9664 35.7753 25.9154 35.7001 25.8482C35.6288 25.7845 35.5571 25.6968 35.4769 25.6458C35.3403 25.5589 35.1764 25.5473 35.028 25.4893C34.9711 25.467 34.9089 25.4566 34.8542 25.4313C34.7873 25.4005 34.7211 25.4071 34.6526 25.3803C34.4851 25.3148 34.2914 25.2608 34.1155 25.2168" stroke="white" stroke-width="0.675325" stroke-linecap="round"/>
<path d="M35.0652 25.5438C35.1679 25.6068 35.2627 25.6905 35.3697 25.7453C35.4675 25.7954 35.5583 25.8473 35.6464 25.914C35.7503 25.9926 35.9028 26.081 35.9405 26.2132C35.9798 26.3505 36.0921 26.4728 36.155 26.6025C36.2357 26.7686 36.2694 26.9802 36.2796 27.1629C36.2909 27.3661 36.3263 27.5608 36.3263 27.7667C36.3263 28.0846 36.3073 28.402 36.2952 28.7164C36.29 28.8511 36.2433 28.9794 36.1862 29.1004C36.1284 29.2227 36.1239 29.3949 36.1239 29.5294" stroke="white" stroke-width="0.675325" stroke-linecap="round"/>
<path d="M36.4664 26.8204C36.4664 26.9514 36.5295 27.0803 36.5477 27.2097C36.5683 27.356 36.5933 27.4965 36.6057 27.6447C36.6276 27.9082 36.6532 28.1683 36.6532 28.437C36.6532 28.5553 36.6486 28.6793 36.6368 28.7968C36.629 28.875 36.5932 28.9524 36.591 29.0312C36.5884 29.1223 36.5541 29.2049 36.5451 29.2951C36.5405 29.3411 36.5263 29.445 36.482 29.4672" stroke="white" stroke-width="0.675325" stroke-linecap="round"/>
<path d="M36.1706 30.0277C36.1706 29.9329 36.1679 30.218 36.1516 30.3114C36.115 30.5209 36.0396 30.7183 35.9526 30.9116C35.9503 30.9168 35.9139 31.0049 35.9059 30.9731C35.8843 30.8864 35.8575 30.8018 35.8315 30.7162C35.7951 30.5956 35.7587 30.4768 35.752 30.3503C35.75 30.3133 35.7684 30.1981 35.7269 30.1704C35.7017 30.1536 35.624 30.3405 35.6093 30.3607C35.5997 30.3737 35.5392 30.4653 35.5202 30.4653C35.5186 30.4653 35.5096 30.3834 35.5081 30.3771C35.4846 30.28 35.4818 30.1808 35.4622 30.083C35.4528 30.0361 35.4249 29.976 35.4233 29.9308C35.4214 29.8771 35.4339 29.8155 35.4077 29.7664C35.3903 29.7338 35.3786 29.691 35.3766 29.654C35.3729 29.5875 35.2605 29.5939 35.2365 29.5519C35.1951 29.4795 35.1211 29.3426 35.0185 29.3426" stroke="white" stroke-width="0.675325" stroke-linecap="round"/>
<path d="M35.579 29.9809C35.6168 29.9809 35.6255 29.9429 35.6508 29.9187C35.7099 29.8621 35.7815 29.8197 35.8437 29.7664C35.9017 29.7167 36.0169 29.5798 36.0149 29.7232C36.0133 29.8403 35.9878 29.9526 35.9526 30.064C35.9388 30.1079 35.8791 30.192 35.8817 30.2387C35.883 30.2628 36.5377 30.1102 36.5841 30.0969C36.7713 30.043 37.0423 30.0261 37.1895 29.8789C37.2419 29.8265 37.3134 29.8034 37.366 29.7509C37.3959 29.7209 37.4993 29.6382 37.3936 29.6575C37.1437 29.7029 36.96 29.9302 36.7112 29.9784C36.7048 29.9796 36.6238 29.9809 36.6567 29.9809C36.7328 29.9809 36.7981 29.9482 36.8703 29.9273C37.0063 29.8881 37.139 29.8516 37.2682 29.7941C37.3545 29.7558 37.425 29.6712 37.5061 29.6142C37.5744 29.5661 37.6339 29.5072 37.705 29.4637C37.725 29.4515 37.7962 29.4022 37.8054 29.3815C37.8223 29.3435 37.8624 29.3254 37.8832 29.289C37.9007 29.2584 37.9125 29.2346 37.9455 29.2181" stroke="white" stroke-width="0.675325" stroke-linecap="round"/>
<path d="M37.6808 29.8408C37.6808 30.0063 37.4938 30.188 37.4006 30.3079C37.2425 30.5112 37.1191 30.7473 36.9456 30.9341C36.7742 31.1188 36.6206 31.3214 36.4431 31.4989C36.3815 31.5605 36.3332 31.6402 36.2796 31.7091C36.2135 31.7942 36.1303 31.8808 36.0772 31.9738C36.0332 32.0508 35.9551 32.1161 35.9025 32.1883C35.8464 32.2653 35.7637 32.3697 35.6724 32.4089C35.6068 32.437 35.5634 32.4907 35.5089 32.5343C35.474 32.5623 35.4035 32.5944 35.38 32.6277C35.349 32.6717 35.2367 32.6689 35.1932 32.709C35.1708 32.7297 35.1063 32.7601 35.0972 32.792C35.0898 32.8178 35.0451 32.8737 35.0185 32.8768C34.9626 32.8834 34.8396 33.0074 34.8723 32.9616C34.9874 32.8005 35.1398 32.673 35.2399 32.4997C35.32 32.361 35.3887 32.2361 35.4389 32.0828C35.4796 31.9582 35.496 31.8341 35.5254 31.7083C35.596 31.4057 35.6568 31.1175 35.6568 30.8027C35.6568 30.7483 35.6669 30.6377 35.5911 30.6349C35.5183 30.6322 35.4611 30.549 35.4146 30.5017C35.3661 30.4522 35.3766 30.4459 35.3766 30.5181C35.3766 30.7472 35.3856 30.9744 35.3922 31.2023C35.394 31.2665 35.4108 31.3683 35.4665 31.3856C35.5612 31.415 35.6981 31.4592 35.7995 31.4254C35.9468 31.3763 36.0993 31.1792 36.2009 31.0691C36.3027 30.9588 36.3843 30.8325 36.4742 30.7127C36.536 30.6303 36.6066 30.501 36.6879 30.4359C36.7127 30.416 36.7268 30.4988 36.7276 30.5051C36.7421 30.6153 36.7425 30.75 36.7285 30.8597C36.726 30.8792 36.6627 31.0384 36.6697 30.9756C36.678 30.9006 36.7424 30.8386 36.7778 30.775" stroke="white" stroke-width="0.675325" stroke-linecap="round"/>
</svg>
