<svg width="365" height="101" viewBox="0 0 365 101" fill="none" xmlns="http://www.w3.org/2000/svg">
<circle cx="183" cy="27" r="25.4302" stroke="white" stroke-width="3.13953"/>
<path d="M169.997 35.186V20.7191L171.58 22.3014H166.833V19.3628H173.659V35.186H169.997ZM182.963 35.4573C181.637 35.4573 180.477 35.2614 179.482 34.8696C178.488 34.4627 177.712 33.8976 177.154 33.1742C176.596 32.4358 176.318 31.5768 176.318 30.5973C176.318 29.6178 176.589 28.7889 177.131 28.1108C177.689 27.4176 178.465 26.8977 179.46 26.5511C180.454 26.1894 181.622 26.0085 182.963 26.0085C184.32 26.0085 185.495 26.1894 186.49 26.5511C187.499 26.8977 188.275 27.4176 188.818 28.1108C189.376 28.7889 189.654 29.6178 189.654 30.5973C189.654 31.5768 189.376 32.4358 188.818 33.1742C188.26 33.8976 187.477 34.4627 186.467 34.8696C185.473 35.2614 184.305 35.4573 182.963 35.4573ZM182.963 32.7673C183.883 32.7673 184.606 32.5639 185.133 32.157C185.676 31.7501 185.947 31.1925 185.947 30.4843C185.947 29.776 185.676 29.2259 185.133 28.8341C184.606 28.4272 183.883 28.2238 182.963 28.2238C182.059 28.2238 181.343 28.4272 180.816 28.8341C180.289 29.2259 180.025 29.776 180.025 30.4843C180.025 31.1925 180.289 31.7501 180.816 32.157C181.343 32.5639 182.059 32.7673 182.963 32.7673ZM182.963 27.8621C181.743 27.8621 180.673 27.6964 179.754 27.3648C178.849 27.0333 178.141 26.5511 177.629 25.9181C177.131 25.2701 176.883 24.5016 176.883 23.6125C176.883 22.6781 177.139 21.8794 177.651 21.2164C178.164 20.5382 178.879 20.0183 179.799 19.6566C180.718 19.2799 181.773 19.0915 182.963 19.0915C184.184 19.0915 185.246 19.2799 186.151 19.6566C187.07 20.0183 187.786 20.5382 188.298 21.2164C188.826 21.8794 189.089 22.6781 189.089 23.6125C189.089 24.5016 188.833 25.2701 188.321 25.9181C187.823 26.5511 187.115 27.0333 186.196 27.3648C185.277 27.6964 184.199 27.8621 182.963 27.8621ZM182.963 25.7147C183.732 25.7147 184.335 25.5414 184.772 25.1948C185.224 24.8482 185.45 24.3735 185.45 23.7707C185.45 23.1378 185.216 22.648 184.749 22.3014C184.297 21.9548 183.702 21.7815 182.963 21.7815C182.24 21.7815 181.652 21.9548 181.2 22.3014C180.748 22.648 180.522 23.1378 180.522 23.7707C180.522 24.3735 180.741 24.8482 181.178 25.1948C181.615 25.5414 182.21 25.7147 182.963 25.7147ZM195.761 32.4961V22.0527H198.677V32.4961H195.761ZM191.851 28.6533V25.8955H202.61V28.6533H191.851Z" fill="white"/>
<path d="M9.84283 83V74.6H17.4988V83H15.5668V75.74L16.0108 76.184H11.3308L11.7748 75.74V83H9.84283ZM22.4611 83.096C21.7731 83.096 21.1611 82.952 20.6251 82.664C20.0971 82.376 19.6771 81.984 19.3651 81.488C19.0611 80.984 18.9091 80.412 18.9091 79.772C18.9091 79.124 19.0611 78.552 19.3651 78.056C19.6771 77.552 20.0971 77.16 20.6251 76.88C21.1611 76.592 21.7731 76.448 22.4611 76.448C23.1411 76.448 23.7491 76.592 24.2851 76.88C24.8211 77.16 25.2411 77.548 25.5451 78.044C25.8491 78.54 26.0011 79.116 26.0011 79.772C26.0011 80.412 25.8491 80.984 25.5451 81.488C25.2411 81.984 24.8211 82.376 24.2851 82.664C23.7491 82.952 23.1411 83.096 22.4611 83.096ZM22.4611 81.56C22.7731 81.56 23.0531 81.488 23.3011 81.344C23.5491 81.2 23.7451 80.996 23.8891 80.732C24.0331 80.46 24.1051 80.14 24.1051 79.772C24.1051 79.396 24.0331 79.076 23.8891 78.812C23.7451 78.548 23.5491 78.344 23.3011 78.2C23.0531 78.056 22.7731 77.984 22.4611 77.984C22.1491 77.984 21.8691 78.056 21.6211 78.2C21.3731 78.344 21.1731 78.548 21.0211 78.812C20.8771 79.076 20.8051 79.396 20.8051 79.772C20.8051 80.14 20.8771 80.46 21.0211 80.732C21.1731 80.996 21.3731 81.2 21.6211 81.344C21.8691 81.488 22.1491 81.56 22.4611 81.56ZM31.0927 83.096C30.5487 83.096 30.0727 82.976 29.6647 82.736C29.2567 82.496 28.9367 82.132 28.7047 81.644C28.4807 81.148 28.3687 80.524 28.3687 79.772C28.3687 79.012 28.4767 78.388 28.6927 77.9C28.9087 77.412 29.2207 77.048 29.6287 76.808C30.0367 76.568 30.5247 76.448 31.0927 76.448C31.7007 76.448 32.2447 76.588 32.7247 76.868C33.2127 77.14 33.5967 77.524 33.8767 78.02C34.1647 78.516 34.3087 79.1 34.3087 79.772C34.3087 80.452 34.1647 81.04 33.8767 81.536C33.5967 82.032 33.2127 82.416 32.7247 82.688C32.2447 82.96 31.7007 83.096 31.0927 83.096ZM27.2767 85.328V76.544H29.0647V77.864L29.0287 79.784L29.1487 81.692V85.328H27.2767ZM30.7687 81.56C31.0807 81.56 31.3567 81.488 31.5967 81.344C31.8447 81.2 32.0407 80.996 32.1847 80.732C32.3367 80.46 32.4127 80.14 32.4127 79.772C32.4127 79.396 32.3367 79.076 32.1847 78.812C32.0407 78.548 31.8447 78.344 31.5967 78.2C31.3567 78.056 31.0807 77.984 30.7687 77.984C30.4567 77.984 30.1767 78.056 29.9287 78.2C29.6807 78.344 29.4847 78.548 29.3407 78.812C29.1967 79.076 29.1247 79.396 29.1247 79.772C29.1247 80.14 29.1967 80.46 29.3407 80.732C29.4847 80.996 29.6807 81.2 29.9287 81.344C30.1767 81.488 30.4567 81.56 30.7687 81.56ZM36.7663 83V77.648L37.1863 78.08H34.5823V76.544H40.8103V78.08H38.2063L38.6263 77.648V83H36.7663ZM45.6722 83V81.74L45.5522 81.464V79.208C45.5522 78.808 45.4282 78.496 45.1802 78.272C44.9402 78.048 44.5682 77.936 44.0642 77.936C43.7202 77.936 43.3802 77.992 43.0442 78.104C42.7162 78.208 42.4362 78.352 42.2042 78.536L41.5322 77.228C41.8842 76.98 42.3082 76.788 42.8042 76.652C43.3002 76.516 43.8042 76.448 44.3162 76.448C45.3002 76.448 46.0642 76.68 46.6082 77.144C47.1522 77.608 47.4242 78.332 47.4242 79.316V83H45.6722ZM43.7042 83.096C43.2002 83.096 42.7682 83.012 42.4082 82.844C42.0482 82.668 41.7722 82.432 41.5802 82.136C41.3882 81.84 41.2922 81.508 41.2922 81.14C41.2922 80.756 41.3842 80.42 41.5682 80.132C41.7602 79.844 42.0602 79.62 42.4682 79.46C42.8762 79.292 43.4082 79.208 44.0642 79.208H45.7802V80.3H44.2682C43.8282 80.3 43.5242 80.372 43.3562 80.516C43.1962 80.66 43.1162 80.84 43.1162 81.056C43.1162 81.296 43.2082 81.488 43.3922 81.632C43.5842 81.768 43.8442 81.836 44.1722 81.836C44.4842 81.836 44.7642 81.764 45.0122 81.62C45.2602 81.468 45.4402 81.248 45.5522 80.96L45.8402 81.824C45.7042 82.24 45.4562 82.556 45.0962 82.772C44.7362 82.988 44.2722 83.096 43.7042 83.096ZM48.2344 82.988L48.3304 81.452C48.3784 81.46 48.4264 81.468 48.4744 81.476C48.5224 81.476 48.5664 81.476 48.6064 81.476C48.8304 81.476 49.0064 81.412 49.1344 81.284C49.2624 81.156 49.3584 80.984 49.4224 80.768C49.4864 80.544 49.5304 80.292 49.5544 80.012C49.5864 79.732 49.6104 79.44 49.6264 79.136L49.7224 76.544H55.2424V83H53.3704V77.624L53.7904 78.08H50.9584L51.3544 77.6L51.2704 79.22C51.2464 79.796 51.1984 80.324 51.1264 80.804C51.0624 81.284 50.9544 81.7 50.8024 82.052C50.6504 82.396 50.4464 82.664 50.1904 82.856C49.9344 83.04 49.6064 83.132 49.2064 83.132C49.0624 83.132 48.9104 83.12 48.7504 83.096C48.5904 83.072 48.4184 83.036 48.2344 82.988ZM60.441 83V76.544H62.397L64.833 80.96H64.053L66.657 76.544H68.409L68.433 83H66.741V78.464L67.029 78.656L64.809 82.376H64.017L61.785 78.524L62.133 78.44V83H60.441ZM73.2502 83.096C72.5622 83.096 71.9502 82.952 71.4142 82.664C70.8862 82.376 70.4662 81.984 70.1542 81.488C69.8502 80.984 69.6982 80.412 69.6982 79.772C69.6982 79.124 69.8502 78.552 70.1542 78.056C70.4662 77.552 70.8862 77.16 71.4142 76.88C71.9502 76.592 72.5622 76.448 73.2502 76.448C73.9302 76.448 74.5382 76.592 75.0742 76.88C75.6102 77.16 76.0302 77.548 76.3342 78.044C76.6382 78.54 76.7902 79.116 76.7902 79.772C76.7902 80.412 76.6382 80.984 76.3342 81.488C76.0302 81.984 75.6102 82.376 75.0742 82.664C74.5382 82.952 73.9302 83.096 73.2502 83.096ZM73.2502 81.56C73.5622 81.56 73.8422 81.488 74.0902 81.344C74.3382 81.2 74.5342 80.996 74.6782 80.732C74.8222 80.46 74.8942 80.14 74.8942 79.772C74.8942 79.396 74.8222 79.076 74.6782 78.812C74.5342 78.548 74.3382 78.344 74.0902 78.2C73.8422 78.056 73.5622 77.984 73.2502 77.984C72.9382 77.984 72.6582 78.056 72.4102 78.2C72.1622 78.344 71.9622 78.548 71.8102 78.812C71.6662 79.076 71.5942 79.396 71.5942 79.772C71.5942 80.14 71.6662 80.46 71.8102 80.732C71.9622 80.996 72.1622 81.2 72.4102 81.344C72.6582 81.488 72.9382 81.56 73.2502 81.56ZM85.6425 83L83.9265 79.94L85.4385 79.04L87.8625 83H85.6425ZM82.8225 80.552V79.052H85.0665V80.552H82.8225ZM85.6305 79.988L83.8665 79.796L85.7265 76.544H87.7065L85.6305 79.988ZM79.2585 83H77.0505L79.4625 79.04L80.9745 79.94L79.2585 83ZM83.3745 83H81.5265V76.544H83.3745V83ZM82.0785 80.552H79.8465V79.052H82.0785V80.552ZM79.2705 79.988L77.1945 76.544H79.1745L81.0225 79.796L79.2705 79.988ZM91.7923 83.096C91.0563 83.096 90.4083 82.952 89.8483 82.664C89.2963 82.376 88.8683 81.984 88.5643 81.488C88.2603 80.984 88.1083 80.412 88.1083 79.772C88.1083 79.124 88.2563 78.552 88.5523 78.056C88.8563 77.552 89.2683 77.16 89.7883 76.88C90.3083 76.592 90.8963 76.448 91.5523 76.448C92.1843 76.448 92.7523 76.584 93.2563 76.856C93.7683 77.12 94.1723 77.504 94.4683 78.008C94.7643 78.504 94.9123 79.1 94.9123 79.796C94.9123 79.868 94.9083 79.952 94.9003 80.048C94.8923 80.136 94.8843 80.22 94.8763 80.3H89.6323V79.208H93.8923L93.1723 79.532C93.1723 79.196 93.1043 78.904 92.9683 78.656C92.8323 78.408 92.6443 78.216 92.4043 78.08C92.1643 77.936 91.8843 77.864 91.5643 77.864C91.2443 77.864 90.9603 77.936 90.7123 78.08C90.4723 78.216 90.2843 78.412 90.1483 78.668C90.0123 78.916 89.9443 79.212 89.9443 79.556V79.844C89.9443 80.196 90.0203 80.508 90.1723 80.78C90.3323 81.044 90.5523 81.248 90.8323 81.392C91.1203 81.528 91.4563 81.596 91.8403 81.596C92.1843 81.596 92.4843 81.544 92.7403 81.44C93.0043 81.336 93.2443 81.18 93.4603 80.972L94.4563 82.052C94.1603 82.388 93.7883 82.648 93.3403 82.832C92.8923 83.008 92.3763 83.096 91.7923 83.096ZM97.5046 83V77.648L97.9246 78.08H95.3206V76.544H101.549V78.08H98.9446L99.3646 77.648V83H97.5046ZM109.017 83.096C108.321 83.096 107.701 82.956 107.157 82.676C106.613 82.388 106.185 81.992 105.873 81.488C105.569 80.984 105.417 80.412 105.417 79.772C105.417 79.124 105.569 78.552 105.873 78.056C106.185 77.552 106.613 77.16 107.157 76.88C107.701 76.592 108.321 76.448 109.017 76.448C109.697 76.448 110.289 76.592 110.793 76.88C111.297 77.16 111.669 77.564 111.909 78.092L110.457 78.872C110.289 78.568 110.077 78.344 109.821 78.2C109.573 78.056 109.301 77.984 109.005 77.984C108.685 77.984 108.397 78.056 108.141 78.2C107.885 78.344 107.681 78.548 107.529 78.812C107.385 79.076 107.313 79.396 107.313 79.772C107.313 80.148 107.385 80.468 107.529 80.732C107.681 80.996 107.885 81.2 108.141 81.344C108.397 81.488 108.685 81.56 109.005 81.56C109.301 81.56 109.573 81.492 109.821 81.356C110.077 81.212 110.289 80.984 110.457 80.672L111.909 81.464C111.669 81.984 111.297 82.388 110.793 82.676C110.289 82.956 109.697 83.096 109.017 83.096ZM115.988 83.096C115.3 83.096 114.688 82.952 114.152 82.664C113.624 82.376 113.204 81.984 112.892 81.488C112.588 80.984 112.436 80.412 112.436 79.772C112.436 79.124 112.588 78.552 112.892 78.056C113.204 77.552 113.624 77.16 114.152 76.88C114.688 76.592 115.3 76.448 115.988 76.448C116.668 76.448 117.276 76.592 117.812 76.88C118.348 77.16 118.768 77.548 119.072 78.044C119.376 78.54 119.528 79.116 119.528 79.772C119.528 80.412 119.376 80.984 119.072 81.488C118.768 81.984 118.348 82.376 117.812 82.664C117.276 82.952 116.668 83.096 115.988 83.096ZM115.988 81.56C116.3 81.56 116.58 81.488 116.828 81.344C117.076 81.2 117.272 80.996 117.416 80.732C117.56 80.46 117.632 80.14 117.632 79.772C117.632 79.396 117.56 79.076 117.416 78.812C117.272 78.548 117.076 78.344 116.828 78.2C116.58 78.056 116.3 77.984 115.988 77.984C115.676 77.984 115.396 78.056 115.148 78.2C114.9 78.344 114.7 78.548 114.548 78.812C114.404 79.076 114.332 79.396 114.332 79.772C114.332 80.14 114.404 80.46 114.548 80.732C114.7 80.996 114.9 81.2 115.148 81.344C115.396 81.488 115.676 81.56 115.988 81.56ZM125.162 82.16V78.08H123.05L123.014 78.908C122.998 79.252 122.978 79.58 122.954 79.892C122.93 80.204 122.882 80.488 122.81 80.744C122.746 80.992 122.65 81.204 122.522 81.38C122.394 81.548 122.222 81.664 122.006 81.728L120.158 81.464C120.39 81.464 120.578 81.396 120.722 81.26C120.866 81.116 120.978 80.92 121.058 80.672C121.138 80.416 121.198 80.128 121.238 79.808C121.278 79.48 121.306 79.136 121.322 78.776L121.406 76.544H127.034V82.16H125.162ZM119.942 84.392V81.464H127.958V84.392H126.218V83H121.682V84.392H119.942ZM132.292 83.096C131.556 83.096 130.908 82.952 130.348 82.664C129.796 82.376 129.368 81.984 129.064 81.488C128.76 80.984 128.608 80.412 128.608 79.772C128.608 79.124 128.756 78.552 129.052 78.056C129.356 77.552 129.768 77.16 130.288 76.88C130.808 76.592 131.396 76.448 132.052 76.448C132.684 76.448 133.252 76.584 133.756 76.856C134.268 77.12 134.672 77.504 134.968 78.008C135.264 78.504 135.412 79.1 135.412 79.796C135.412 79.868 135.408 79.952 135.4 80.048C135.392 80.136 135.384 80.22 135.376 80.3H130.132V79.208H134.392L133.672 79.532C133.672 79.196 133.604 78.904 133.468 78.656C133.332 78.408 133.144 78.216 132.904 78.08C132.664 77.936 132.384 77.864 132.064 77.864C131.744 77.864 131.46 77.936 131.212 78.08C130.972 78.216 130.784 78.412 130.648 78.668C130.512 78.916 130.444 79.212 130.444 79.556V79.844C130.444 80.196 130.52 80.508 130.672 80.78C130.832 81.044 131.052 81.248 131.332 81.392C131.62 81.528 131.956 81.596 132.34 81.596C132.684 81.596 132.984 81.544 133.24 81.44C133.504 81.336 133.744 81.18 133.96 80.972L134.956 82.052C134.66 82.388 134.288 82.648 133.84 82.832C133.392 83.008 132.876 83.096 132.292 83.096ZM140.651 83.096C140.107 83.096 139.631 82.976 139.223 82.736C138.815 82.496 138.495 82.132 138.263 81.644C138.039 81.148 137.927 80.524 137.927 79.772C137.927 79.012 138.035 78.388 138.251 77.9C138.467 77.412 138.779 77.048 139.187 76.808C139.595 76.568 140.083 76.448 140.651 76.448C141.259 76.448 141.803 76.588 142.283 76.868C142.771 77.14 143.155 77.524 143.435 78.02C143.723 78.516 143.867 79.1 143.867 79.772C143.867 80.452 143.723 81.04 143.435 81.536C143.155 82.032 142.771 82.416 142.283 82.688C141.803 82.96 141.259 83.096 140.651 83.096ZM136.835 85.328V76.544H138.623V77.864L138.587 79.784L138.707 81.692V85.328H136.835ZM140.327 81.56C140.639 81.56 140.915 81.488 141.155 81.344C141.403 81.2 141.599 80.996 141.743 80.732C141.895 80.46 141.971 80.14 141.971 79.772C141.971 79.396 141.895 79.076 141.743 78.812C141.599 78.548 141.403 78.344 141.155 78.2C140.915 78.056 140.639 77.984 140.327 77.984C140.015 77.984 139.735 78.056 139.487 78.2C139.239 78.344 139.043 78.548 138.899 78.812C138.755 79.076 138.683 79.396 138.683 79.772C138.683 80.14 138.755 80.46 138.899 80.732C139.043 80.996 139.239 81.2 139.487 81.344C139.735 81.488 140.015 81.56 140.327 81.56ZM152.744 83L151.028 79.94L152.54 79.04L154.964 83H152.744ZM149.924 80.552V79.052H152.168V80.552H149.924ZM152.732 79.988L150.968 79.796L152.828 76.544H154.808L152.732 79.988ZM146.36 83H144.152L146.564 79.04L148.076 79.94L146.36 83ZM150.476 83H148.628V76.544H150.476V83ZM149.18 80.552H146.948V79.052H149.18V80.552ZM146.372 79.988L144.296 76.544H146.276L148.124 79.796L146.372 79.988ZM159.684 83V81.74L159.564 81.464V79.208C159.564 78.808 159.44 78.496 159.192 78.272C158.952 78.048 158.58 77.936 158.076 77.936C157.732 77.936 157.392 77.992 157.056 78.104C156.728 78.208 156.448 78.352 156.216 78.536L155.544 77.228C155.896 76.98 156.32 76.788 156.816 76.652C157.312 76.516 157.816 76.448 158.328 76.448C159.312 76.448 160.076 76.68 160.62 77.144C161.164 77.608 161.436 78.332 161.436 79.316V83H159.684ZM157.716 83.096C157.212 83.096 156.78 83.012 156.42 82.844C156.06 82.668 155.784 82.432 155.592 82.136C155.4 81.84 155.304 81.508 155.304 81.14C155.304 80.756 155.396 80.42 155.58 80.132C155.772 79.844 156.072 79.62 156.48 79.46C156.888 79.292 157.42 79.208 158.076 79.208H159.792V80.3H158.28C157.84 80.3 157.536 80.372 157.368 80.516C157.208 80.66 157.128 80.84 157.128 81.056C157.128 81.296 157.22 81.488 157.404 81.632C157.596 81.768 157.856 81.836 158.184 81.836C158.496 81.836 158.776 81.764 159.024 81.62C159.272 81.468 159.452 81.248 159.564 80.96L159.852 81.824C159.716 82.24 159.468 82.556 159.108 82.772C158.748 82.988 158.284 83.096 157.716 83.096ZM164.442 83V77.648L164.862 78.08H162.258V76.544H168.486V78.08H165.882L166.302 77.648V83H164.442ZM172.976 78.608C173.824 78.616 174.468 78.808 174.908 79.184C175.356 79.552 175.58 80.076 175.58 80.756C175.58 81.468 175.328 82.024 174.824 82.424C174.32 82.816 173.62 83.012 172.724 83.012L169.484 83V76.544H171.344V78.608H172.976ZM172.556 81.68C172.916 81.688 173.192 81.612 173.384 81.452C173.576 81.292 173.672 81.052 173.672 80.732C173.672 80.412 173.576 80.184 173.384 80.048C173.192 79.904 172.916 79.828 172.556 79.82L171.344 79.808V81.68H172.556ZM184.72 83L182.56 79.94L184.084 79.04L186.928 83H184.72ZM180.148 83V76.544H182.02V83H180.148ZM181.468 80.552V79.052H183.724V80.552H181.468ZM184.264 79.988L182.512 79.796L184.78 76.544H186.772L184.264 79.988ZM190.672 83.096C189.984 83.096 189.372 82.952 188.836 82.664C188.308 82.376 187.888 81.984 187.576 81.488C187.272 80.984 187.12 80.412 187.12 79.772C187.12 79.124 187.272 78.552 187.576 78.056C187.888 77.552 188.308 77.16 188.836 76.88C189.372 76.592 189.984 76.448 190.672 76.448C191.352 76.448 191.96 76.592 192.496 76.88C193.032 77.16 193.452 77.548 193.756 78.044C194.06 78.54 194.212 79.116 194.212 79.772C194.212 80.412 194.06 80.984 193.756 81.488C193.452 81.984 193.032 82.376 192.496 82.664C191.96 82.952 191.352 83.096 190.672 83.096ZM190.672 81.56C190.984 81.56 191.264 81.488 191.512 81.344C191.76 81.2 191.956 80.996 192.1 80.732C192.244 80.46 192.316 80.14 192.316 79.772C192.316 79.396 192.244 79.076 192.1 78.812C191.956 78.548 191.76 78.344 191.512 78.2C191.264 78.056 190.984 77.984 190.672 77.984C190.36 77.984 190.08 78.056 189.832 78.2C189.584 78.344 189.384 78.548 189.232 78.812C189.088 79.076 189.016 79.396 189.016 79.772C189.016 80.14 189.088 80.46 189.232 80.732C189.384 80.996 189.584 81.2 189.832 81.344C190.08 81.488 190.36 81.56 190.672 81.56ZM195.5 83V76.544H197.36V79.064H200.168V76.544H202.04V83H200.168V80.588H197.36V83H195.5ZM205.212 83V77.648L205.632 78.08H203.028V76.544H209.256V78.08H206.652L207.072 77.648V83H205.212ZM213.14 83.096C212.404 83.096 211.756 82.952 211.196 82.664C210.644 82.376 210.216 81.984 209.912 81.488C209.608 80.984 209.456 80.412 209.456 79.772C209.456 79.124 209.604 78.552 209.9 78.056C210.204 77.552 210.616 77.16 211.136 76.88C211.656 76.592 212.244 76.448 212.9 76.448C213.532 76.448 214.1 76.584 214.604 76.856C215.116 77.12 215.52 77.504 215.816 78.008C216.112 78.504 216.26 79.1 216.26 79.796C216.26 79.868 216.256 79.952 216.248 80.048C216.24 80.136 216.232 80.22 216.224 80.3H210.98V79.208H215.24L214.52 79.532C214.52 79.196 214.452 78.904 214.316 78.656C214.18 78.408 213.992 78.216 213.752 78.08C213.512 77.936 213.232 77.864 212.912 77.864C212.592 77.864 212.308 77.936 212.06 78.08C211.82 78.216 211.632 78.412 211.496 78.668C211.36 78.916 211.292 79.212 211.292 79.556V79.844C211.292 80.196 211.368 80.508 211.52 80.78C211.68 81.044 211.9 81.248 212.18 81.392C212.468 81.528 212.804 81.596 213.188 81.596C213.532 81.596 213.832 81.544 214.088 81.44C214.352 81.336 214.592 81.18 214.808 80.972L215.804 82.052C215.508 82.388 215.136 82.648 214.688 82.832C214.24 83.008 213.724 83.096 213.14 83.096ZM217.695 83V76.544H219.555V79.064H222.363V76.544H224.235V83H222.363V80.588H219.555V83H217.695ZM227.407 83V77.648L227.827 78.08H225.223V76.544H231.451V78.08H228.847L229.267 77.648V83H227.407ZM235.847 83V76.544H242.267V83H240.395V77.66L240.815 78.08H237.287L237.707 77.66V83H235.847ZM247.866 83.096C247.322 83.096 246.846 82.976 246.438 82.736C246.03 82.496 245.71 82.132 245.478 81.644C245.254 81.148 245.142 80.524 245.142 79.772C245.142 79.012 245.25 78.388 245.466 77.9C245.682 77.412 245.994 77.048 246.402 76.808C246.81 76.568 247.298 76.448 247.866 76.448C248.474 76.448 249.018 76.588 249.498 76.868C249.986 77.14 250.37 77.524 250.65 78.02C250.938 78.516 251.082 79.1 251.082 79.772C251.082 80.452 250.938 81.04 250.65 81.536C250.37 82.032 249.986 82.416 249.498 82.688C249.018 82.96 248.474 83.096 247.866 83.096ZM244.05 85.328V76.544H245.838V77.864L245.802 79.784L245.922 81.692V85.328H244.05ZM247.542 81.56C247.854 81.56 248.13 81.488 248.37 81.344C248.618 81.2 248.814 80.996 248.958 80.732C249.11 80.46 249.186 80.14 249.186 79.772C249.186 79.396 249.11 79.076 248.958 78.812C248.814 78.548 248.618 78.344 248.37 78.2C248.13 78.056 247.854 77.984 247.542 77.984C247.23 77.984 246.95 78.056 246.702 78.2C246.454 78.344 246.258 78.548 246.114 78.812C245.97 79.076 245.898 79.396 245.898 79.772C245.898 80.14 245.97 80.46 246.114 80.732C246.258 80.996 246.454 81.2 246.702 81.344C246.95 81.488 247.23 81.56 247.542 81.56ZM255.55 83.096C254.814 83.096 254.166 82.952 253.606 82.664C253.054 82.376 252.626 81.984 252.322 81.488C252.018 80.984 251.866 80.412 251.866 79.772C251.866 79.124 252.014 78.552 252.31 78.056C252.614 77.552 253.026 77.16 253.546 76.88C254.066 76.592 254.654 76.448 255.31 76.448C255.942 76.448 256.51 76.584 257.014 76.856C257.526 77.12 257.93 77.504 258.226 78.008C258.522 78.504 258.67 79.1 258.67 79.796C258.67 79.868 258.666 79.952 258.658 80.048C258.65 80.136 258.642 80.22 258.634 80.3H253.39V79.208H257.65L256.93 79.532C256.93 79.196 256.862 78.904 256.726 78.656C256.59 78.408 256.402 78.216 256.162 78.08C255.922 77.936 255.642 77.864 255.322 77.864C255.002 77.864 254.718 77.936 254.47 78.08C254.23 78.216 254.042 78.412 253.906 78.668C253.77 78.916 253.702 79.212 253.702 79.556V79.844C253.702 80.196 253.778 80.508 253.93 80.78C254.09 81.044 254.31 81.248 254.59 81.392C254.878 81.528 255.214 81.596 255.598 81.596C255.942 81.596 256.242 81.544 256.498 81.44C256.762 81.336 257.002 81.18 257.218 80.972L258.214 82.052C257.918 82.388 257.546 82.648 257.098 82.832C256.65 83.008 256.134 83.096 255.55 83.096ZM264.486 82.16V78.08H262.374L262.338 78.908C262.322 79.252 262.302 79.58 262.278 79.892C262.254 80.204 262.206 80.488 262.134 80.744C262.07 80.992 261.974 81.204 261.846 81.38C261.718 81.548 261.546 81.664 261.33 81.728L259.482 81.464C259.714 81.464 259.902 81.396 260.046 81.26C260.19 81.116 260.302 80.92 260.382 80.672C260.462 80.416 260.522 80.128 260.562 79.808C260.602 79.48 260.63 79.136 260.646 78.776L260.73 76.544H266.358V82.16H264.486ZM259.266 84.392V81.464H267.282V84.392H265.542V83H261.006V84.392H259.266ZM268.461 83V76.544H270.321V79.064H273.129V76.544H275.001V83H273.129V80.588H270.321V83H268.461ZM280.657 83V81.74L280.537 81.464V79.208C280.537 78.808 280.413 78.496 280.165 78.272C279.925 78.048 279.553 77.936 279.049 77.936C278.705 77.936 278.365 77.992 278.029 78.104C277.701 78.208 277.421 78.352 277.189 78.536L276.517 77.228C276.869 76.98 277.293 76.788 277.789 76.652C278.285 76.516 278.789 76.448 279.301 76.448C280.285 76.448 281.049 76.68 281.593 77.144C282.137 77.608 282.409 78.332 282.409 79.316V83H280.657ZM278.689 83.096C278.185 83.096 277.753 83.012 277.393 82.844C277.033 82.668 276.757 82.432 276.565 82.136C276.373 81.84 276.277 81.508 276.277 81.14C276.277 80.756 276.369 80.42 276.553 80.132C276.745 79.844 277.045 79.62 277.453 79.46C277.861 79.292 278.393 79.208 279.049 79.208H280.765V80.3H279.253C278.813 80.3 278.509 80.372 278.341 80.516C278.181 80.66 278.101 80.84 278.101 81.056C278.101 81.296 278.193 81.488 278.377 81.632C278.569 81.768 278.829 81.836 279.157 81.836C279.469 81.836 279.749 81.764 279.997 81.62C280.245 81.468 280.425 81.248 280.537 80.96L280.825 81.824C280.689 82.24 280.441 82.556 280.081 82.772C279.721 82.988 279.257 83.096 278.689 83.096ZM286.16 83.12C285.664 83.12 285.168 83.068 284.672 82.964C284.184 82.86 283.732 82.704 283.316 82.496L283.82 81.188C284.148 81.348 284.504 81.472 284.888 81.56C285.28 81.64 285.676 81.68 286.076 81.68C286.364 81.68 286.612 81.652 286.82 81.596C287.036 81.532 287.2 81.444 287.312 81.332C287.424 81.22 287.48 81.084 287.48 80.924C287.48 80.716 287.392 80.56 287.216 80.456C287.04 80.344 286.784 80.288 286.448 80.288H285.128V79.124H286.292C286.508 79.124 286.692 79.1 286.844 79.052C286.996 79.004 287.108 78.936 287.18 78.848C287.26 78.752 287.3 78.64 287.3 78.512C287.3 78.376 287.252 78.26 287.156 78.164C287.06 78.068 286.92 77.996 286.736 77.948C286.552 77.892 286.32 77.864 286.04 77.864C285.72 77.864 285.388 77.904 285.044 77.984C284.7 78.056 284.348 78.164 283.988 78.308L283.532 77.012C283.956 76.836 284.376 76.696 284.792 76.592C285.208 76.488 285.62 76.432 286.028 76.424C286.628 76.408 287.168 76.472 287.648 76.616C288.128 76.76 288.504 76.968 288.776 77.24C289.056 77.512 289.196 77.844 289.196 78.236C289.196 78.548 289.1 78.828 288.908 79.076C288.724 79.324 288.468 79.52 288.14 79.664C287.812 79.8 287.444 79.868 287.036 79.868L287.084 79.496C287.796 79.496 288.356 79.64 288.764 79.928C289.172 80.208 289.376 80.592 289.376 81.08C289.376 81.496 289.232 81.86 288.944 82.172C288.664 82.476 288.28 82.712 287.792 82.88C287.312 83.04 286.768 83.12 286.16 83.12ZM290.714 83V76.544H292.574V79.064H295.382V76.544H297.254V83H295.382V80.588H292.574V83H290.714ZM302.91 83V81.74L302.79 81.464V79.208C302.79 78.808 302.666 78.496 302.418 78.272C302.178 78.048 301.806 77.936 301.302 77.936C300.958 77.936 300.618 77.992 300.282 78.104C299.954 78.208 299.674 78.352 299.442 78.536L298.77 77.228C299.122 76.98 299.546 76.788 300.042 76.652C300.538 76.516 301.042 76.448 301.554 76.448C302.538 76.448 303.302 76.68 303.846 77.144C304.39 77.608 304.662 78.332 304.662 79.316V83H302.91ZM300.942 83.096C300.438 83.096 300.006 83.012 299.646 82.844C299.286 82.668 299.01 82.432 298.818 82.136C298.626 81.84 298.53 81.508 298.53 81.14C298.53 80.756 298.622 80.42 298.806 80.132C298.998 79.844 299.298 79.62 299.706 79.46C300.114 79.292 300.646 79.208 301.302 79.208H303.018V80.3H301.506C301.066 80.3 300.762 80.372 300.594 80.516C300.434 80.66 300.354 80.84 300.354 81.056C300.354 81.296 300.446 81.488 300.63 81.632C300.822 81.768 301.082 81.836 301.41 81.836C301.722 81.836 302.002 81.764 302.25 81.62C302.498 81.468 302.678 81.248 302.79 80.96L303.078 81.824C302.942 82.24 302.694 82.556 302.334 82.772C301.974 82.988 301.51 83.096 300.942 83.096ZM310.357 80.528C310.093 80.672 309.801 80.788 309.481 80.876C309.161 80.964 308.809 81.008 308.425 81.008C307.577 81.008 306.925 80.816 306.469 80.432C306.013 80.04 305.785 79.42 305.785 78.572V76.544H307.657V78.452C307.657 78.852 307.761 79.14 307.969 79.316C308.177 79.484 308.469 79.568 308.845 79.568C309.117 79.568 309.377 79.536 309.625 79.472C309.881 79.408 310.125 79.316 310.357 79.196V80.528ZM310.225 83V76.544H312.097V83H310.225ZM317.05 83.096C316.314 83.096 315.666 82.952 315.106 82.664C314.554 82.376 314.126 81.984 313.822 81.488C313.518 80.984 313.366 80.412 313.366 79.772C313.366 79.124 313.514 78.552 313.81 78.056C314.114 77.552 314.526 77.16 315.046 76.88C315.566 76.592 316.154 76.448 316.81 76.448C317.442 76.448 318.01 76.584 318.514 76.856C319.026 77.12 319.43 77.504 319.726 78.008C320.022 78.504 320.17 79.1 320.17 79.796C320.17 79.868 320.166 79.952 320.158 80.048C320.15 80.136 320.142 80.22 320.134 80.3H314.89V79.208H319.15L318.43 79.532C318.43 79.196 318.362 78.904 318.226 78.656C318.09 78.408 317.902 78.216 317.662 78.08C317.422 77.936 317.142 77.864 316.822 77.864C316.502 77.864 316.218 77.936 315.97 78.08C315.73 78.216 315.542 78.412 315.406 78.668C315.27 78.916 315.202 79.212 315.202 79.556V79.844C315.202 80.196 315.278 80.508 315.43 80.78C315.59 81.044 315.81 81.248 316.09 81.392C316.378 81.528 316.714 81.596 317.098 81.596C317.442 81.596 317.742 81.544 317.998 81.44C318.262 81.336 318.502 81.18 318.718 80.972L319.714 82.052C319.418 82.388 319.046 82.648 318.598 82.832C318.15 83.008 317.634 83.096 317.05 83.096ZM321.605 83V76.544H323.465V79.064H326.273V76.544H328.145V83H326.273V80.588H323.465V83H321.605ZM329.937 83V76.544H331.797V79.064H334.605V76.544H336.477V83H334.605V80.588H331.797V83H329.937ZM344.917 83V76.544H346.777V83H344.917ZM341.665 78.608C342.513 78.616 343.149 78.808 343.573 79.184C344.005 79.552 344.221 80.076 344.221 80.756C344.221 81.468 343.977 82.024 343.489 82.424C343.001 82.816 342.309 83.012 341.413 83.012L338.269 83V76.544H340.129V78.608H341.665ZM341.245 81.68C341.605 81.688 341.881 81.612 342.073 81.452C342.265 81.292 342.361 81.052 342.361 80.732C342.361 80.412 342.265 80.184 342.073 80.048C341.881 79.904 341.605 79.828 341.245 79.82L340.129 79.808V81.68H341.245ZM348.582 83V76.544H350.442V80.384L353.586 76.544H355.302V83H353.442V79.16L350.31 83H348.582ZM351.822 75.848C351.118 75.848 350.59 75.696 350.238 75.392C349.886 75.08 349.706 74.612 349.698 73.988H350.922C350.93 74.26 351.006 74.476 351.15 74.636C351.294 74.796 351.514 74.876 351.81 74.876C352.098 74.876 352.318 74.796 352.47 74.636C352.63 74.476 352.71 74.26 352.71 73.988H353.958C353.958 74.612 353.778 75.08 353.418 75.392C353.058 75.696 352.526 75.848 351.822 75.848ZM115.108 97.16V93.08H112.996L112.96 93.908C112.944 94.252 112.924 94.58 112.9 94.892C112.876 95.204 112.828 95.488 112.756 95.744C112.692 95.992 112.596 96.204 112.468 96.38C112.34 96.548 112.168 96.664 111.952 96.728L110.104 96.464C110.336 96.464 110.524 96.396 110.668 96.26C110.812 96.116 110.924 95.92 111.004 95.672C111.084 95.416 111.144 95.128 111.184 94.808C111.224 94.48 111.252 94.136 111.268 93.776L111.352 91.544H116.98V97.16H115.108ZM109.888 99.392V96.464H117.904V99.392H116.164V98H111.628V99.392H109.888ZM118.266 97.988L118.362 96.452C118.41 96.46 118.458 96.468 118.506 96.476C118.554 96.476 118.598 96.476 118.638 96.476C118.862 96.476 119.038 96.412 119.166 96.284C119.294 96.156 119.39 95.984 119.454 95.768C119.518 95.544 119.562 95.292 119.586 95.012C119.618 94.732 119.642 94.44 119.658 94.136L119.754 91.544H125.274V98H123.402V92.624L123.822 93.08H120.99L121.386 92.6L121.302 94.22C121.278 94.796 121.23 95.324 121.158 95.804C121.094 96.284 120.986 96.7 120.834 97.052C120.682 97.396 120.478 97.664 120.222 97.856C119.966 98.04 119.638 98.132 119.238 98.132C119.094 98.132 118.942 98.12 118.782 98.096C118.622 98.072 118.45 98.036 118.266 97.988ZM131.142 98V95.852L131.406 96.152H129.618C128.69 96.152 127.962 95.96 127.434 95.576C126.906 95.192 126.642 94.64 126.642 93.92C126.642 93.152 126.918 92.564 127.47 92.156C128.03 91.748 128.782 91.544 129.726 91.544H132.81V98H131.142ZM126.546 98L128.262 95.54H130.17L128.538 98H126.546ZM131.142 95.276V92.588L131.406 93.068H129.762C129.378 93.068 129.078 93.14 128.862 93.284C128.654 93.428 128.55 93.66 128.55 93.98C128.55 94.596 128.946 94.904 129.738 94.904H131.406L131.142 95.276ZM137.191 97.988L137.287 96.452C137.335 96.46 137.383 96.468 137.431 96.476C137.479 96.476 137.523 96.476 137.563 96.476C137.787 96.476 137.963 96.412 138.091 96.284C138.219 96.156 138.315 95.984 138.379 95.768C138.443 95.544 138.487 95.292 138.511 95.012C138.543 94.732 138.567 94.44 138.583 94.136L138.679 91.544H144.199V98H142.327V92.624L142.747 93.08H139.915L140.311 92.6L140.227 94.22C140.203 94.796 140.155 95.324 140.083 95.804C140.019 96.284 139.911 96.7 139.759 97.052C139.607 97.396 139.403 97.664 139.147 97.856C138.891 98.04 138.563 98.132 138.163 98.132C138.019 98.132 137.867 98.12 137.707 98.096C137.547 98.072 137.375 98.036 137.191 97.988ZM146 98V91.544H147.86V95.384L151.004 91.544H152.72V98H150.86V94.16L147.728 98H146ZM154.519 98V91.544H156.379V96.464H158.983V91.544H160.855V98H154.519ZM160.051 99.392V97.976L160.483 98H158.983V96.464H161.791V99.392H160.051ZM169.439 98.096C168.743 98.096 168.123 97.956 167.579 97.676C167.035 97.388 166.607 96.992 166.295 96.488C165.991 95.984 165.839 95.412 165.839 94.772C165.839 94.124 165.991 93.552 166.295 93.056C166.607 92.552 167.035 92.16 167.579 91.88C168.123 91.592 168.743 91.448 169.439 91.448C170.119 91.448 170.711 91.592 171.215 91.88C171.719 92.16 172.091 92.564 172.331 93.092L170.879 93.872C170.711 93.568 170.499 93.344 170.243 93.2C169.995 93.056 169.723 92.984 169.427 92.984C169.107 92.984 168.819 93.056 168.563 93.2C168.307 93.344 168.103 93.548 167.951 93.812C167.807 94.076 167.735 94.396 167.735 94.772C167.735 95.148 167.807 95.468 167.951 95.732C168.103 95.996 168.307 96.2 168.563 96.344C168.819 96.488 169.107 96.56 169.427 96.56C169.723 96.56 169.995 96.492 170.243 96.356C170.499 96.212 170.711 95.984 170.879 95.672L172.331 96.464C172.091 96.984 171.719 97.388 171.215 97.676C170.711 97.956 170.119 98.096 169.439 98.096ZM174.837 98V92.648L175.257 93.08H172.653V91.544H178.881V93.08H176.277L176.697 92.648V98H174.837ZM183.743 98V96.74L183.623 96.464V94.208C183.623 93.808 183.499 93.496 183.251 93.272C183.011 93.048 182.639 92.936 182.135 92.936C181.791 92.936 181.451 92.992 181.115 93.104C180.787 93.208 180.507 93.352 180.275 93.536L179.603 92.228C179.955 91.98 180.379 91.788 180.875 91.652C181.371 91.516 181.875 91.448 182.387 91.448C183.371 91.448 184.135 91.68 184.679 92.144C185.223 92.608 185.495 93.332 185.495 94.316V98H183.743ZM181.775 98.096C181.271 98.096 180.839 98.012 180.479 97.844C180.119 97.668 179.843 97.432 179.651 97.136C179.459 96.84 179.363 96.508 179.363 96.14C179.363 95.756 179.455 95.42 179.639 95.132C179.831 94.844 180.131 94.62 180.539 94.46C180.947 94.292 181.479 94.208 182.135 94.208H183.851V95.3H182.339C181.899 95.3 181.595 95.372 181.427 95.516C181.267 95.66 181.187 95.84 181.187 96.056C181.187 96.296 181.279 96.488 181.463 96.632C181.655 96.768 181.915 96.836 182.243 96.836C182.555 96.836 182.835 96.764 183.083 96.62C183.331 96.468 183.511 96.248 183.623 95.96L183.911 96.824C183.775 97.24 183.527 97.556 183.167 97.772C182.807 97.988 182.343 98.096 181.775 98.096ZM190.925 98.096C190.381 98.096 189.905 97.976 189.497 97.736C189.089 97.496 188.769 97.132 188.537 96.644C188.313 96.148 188.201 95.524 188.201 94.772C188.201 94.012 188.309 93.388 188.525 92.9C188.741 92.412 189.053 92.048 189.461 91.808C189.869 91.568 190.357 91.448 190.925 91.448C191.533 91.448 192.077 91.588 192.557 91.868C193.045 92.14 193.429 92.524 193.709 93.02C193.997 93.516 194.141 94.1 194.141 94.772C194.141 95.452 193.997 96.04 193.709 96.536C193.429 97.032 193.045 97.416 192.557 97.688C192.077 97.96 191.533 98.096 190.925 98.096ZM187.109 100.328V91.544H188.897V92.864L188.861 94.784L188.981 96.692V100.328H187.109ZM190.601 96.56C190.913 96.56 191.189 96.488 191.429 96.344C191.677 96.2 191.873 95.996 192.017 95.732C192.169 95.46 192.245 95.14 192.245 94.772C192.245 94.396 192.169 94.076 192.017 93.812C191.873 93.548 191.677 93.344 191.429 93.2C191.189 93.056 190.913 92.984 190.601 92.984C190.289 92.984 190.009 93.056 189.761 93.2C189.513 93.344 189.317 93.548 189.173 93.812C189.029 94.076 188.957 94.396 188.957 94.772C188.957 95.14 189.029 95.46 189.173 95.732C189.317 95.996 189.513 96.2 189.761 96.344C190.009 96.488 190.289 96.56 190.601 96.56ZM199.857 96.464L199.449 96.896V91.544H201.321V96.896L200.889 96.464H203.865L203.445 96.896V91.544H205.305V98H195.453V91.544H197.313V96.896L196.893 96.464H199.857ZM210.257 98.096C209.521 98.096 208.873 97.952 208.313 97.664C207.761 97.376 207.333 96.984 207.029 96.488C206.725 95.984 206.573 95.412 206.573 94.772C206.573 94.124 206.721 93.552 207.017 93.056C207.321 92.552 207.733 92.16 208.253 91.88C208.773 91.592 209.361 91.448 210.017 91.448C210.649 91.448 211.217 91.584 211.721 91.856C212.233 92.12 212.637 92.504 212.933 93.008C213.229 93.504 213.377 94.1 213.377 94.796C213.377 94.868 213.373 94.952 213.365 95.048C213.357 95.136 213.349 95.22 213.341 95.3H208.097V94.208H212.357L211.637 94.532C211.637 94.196 211.569 93.904 211.433 93.656C211.297 93.408 211.109 93.216 210.869 93.08C210.629 92.936 210.349 92.864 210.029 92.864C209.709 92.864 209.425 92.936 209.177 93.08C208.937 93.216 208.749 93.412 208.613 93.668C208.477 93.916 208.409 94.212 208.409 94.556V94.844C208.409 95.196 208.485 95.508 208.637 95.78C208.797 96.044 209.017 96.248 209.297 96.392C209.585 96.528 209.921 96.596 210.305 96.596C210.649 96.596 210.949 96.544 211.205 96.44C211.469 96.336 211.709 96.18 211.925 95.972L212.921 97.052C212.625 97.388 212.253 97.648 211.805 97.832C211.357 98.008 210.841 98.096 210.257 98.096ZM219.075 98V90.32L219.915 91.16H217.395V89.6H221.019V98H219.075ZM225.958 98.144C225.254 98.144 224.638 98.04 224.11 97.832C223.582 97.616 223.17 97.316 222.874 96.932C222.578 96.54 222.43 96.084 222.43 95.564C222.43 95.044 222.574 94.604 222.862 94.244C223.158 93.876 223.57 93.6 224.098 93.416C224.626 93.224 225.246 93.128 225.958 93.128C226.678 93.128 227.302 93.224 227.83 93.416C228.366 93.6 228.778 93.876 229.066 94.244C229.362 94.604 229.51 95.044 229.51 95.564C229.51 96.084 229.362 96.54 229.066 96.932C228.77 97.316 228.354 97.616 227.818 97.832C227.29 98.04 226.67 98.144 225.958 98.144ZM225.958 96.716C226.446 96.716 226.83 96.608 227.11 96.392C227.398 96.176 227.542 95.88 227.542 95.504C227.542 95.128 227.398 94.836 227.11 94.628C226.83 94.412 226.446 94.304 225.958 94.304C225.478 94.304 225.098 94.412 224.818 94.628C224.538 94.836 224.398 95.128 224.398 95.504C224.398 95.88 224.538 96.176 224.818 96.392C225.098 96.608 225.478 96.716 225.958 96.716ZM225.958 94.112C225.31 94.112 224.742 94.024 224.254 93.848C223.774 93.672 223.398 93.416 223.126 93.08C222.862 92.736 222.73 92.328 222.73 91.856C222.73 91.36 222.866 90.936 223.138 90.584C223.41 90.224 223.79 89.948 224.278 89.756C224.766 89.556 225.326 89.456 225.958 89.456C226.606 89.456 227.17 89.556 227.65 89.756C228.138 89.948 228.518 90.224 228.79 90.584C229.07 90.936 229.21 91.36 229.21 91.856C229.21 92.328 229.074 92.736 228.802 93.08C228.538 93.416 228.162 93.672 227.674 93.848C227.186 94.024 226.614 94.112 225.958 94.112ZM225.958 92.972C226.366 92.972 226.686 92.88 226.918 92.696C227.158 92.512 227.278 92.26 227.278 91.94C227.278 91.604 227.154 91.344 226.906 91.16C226.666 90.976 226.35 90.884 225.958 90.884C225.574 90.884 225.262 90.976 225.022 91.16C224.782 91.344 224.662 91.604 224.662 91.94C224.662 92.26 224.778 92.512 225.01 92.696C225.242 92.88 225.558 92.972 225.958 92.972ZM233.414 97.988L233.51 96.452C233.558 96.46 233.606 96.468 233.654 96.476C233.702 96.476 233.746 96.476 233.786 96.476C234.01 96.476 234.186 96.412 234.314 96.284C234.442 96.156 234.538 95.984 234.602 95.768C234.666 95.544 234.71 95.292 234.734 95.012C234.766 94.732 234.79 94.44 234.806 94.136L234.902 91.544H240.422V98H238.55V92.624L238.97 93.08H236.138L236.534 92.6L236.45 94.22C236.426 94.796 236.378 95.324 236.306 95.804C236.242 96.284 236.134 96.7 235.982 97.052C235.83 97.396 235.626 97.664 235.37 97.856C235.114 98.04 234.786 98.132 234.386 98.132C234.242 98.132 234.09 98.12 233.93 98.096C233.77 98.072 233.598 98.036 233.414 97.988ZM245.378 98.096C244.642 98.096 243.994 97.952 243.434 97.664C242.882 97.376 242.454 96.984 242.15 96.488C241.846 95.984 241.694 95.412 241.694 94.772C241.694 94.124 241.842 93.552 242.138 93.056C242.442 92.552 242.854 92.16 243.374 91.88C243.894 91.592 244.482 91.448 245.138 91.448C245.77 91.448 246.338 91.584 246.842 91.856C247.354 92.12 247.758 92.504 248.054 93.008C248.35 93.504 248.498 94.1 248.498 94.796C248.498 94.868 248.494 94.952 248.486 95.048C248.478 95.136 248.47 95.22 248.462 95.3H243.218V94.208H247.478L246.758 94.532C246.758 94.196 246.69 93.904 246.554 93.656C246.418 93.408 246.23 93.216 245.99 93.08C245.75 92.936 245.47 92.864 245.15 92.864C244.83 92.864 244.546 92.936 244.298 93.08C244.058 93.216 243.87 93.412 243.734 93.668C243.598 93.916 243.53 94.212 243.53 94.556V94.844C243.53 95.196 243.606 95.508 243.758 95.78C243.918 96.044 244.138 96.248 244.418 96.392C244.706 96.528 245.042 96.596 245.426 96.596C245.77 96.596 246.07 96.544 246.326 96.44C246.59 96.336 246.83 96.18 247.046 95.972L248.042 97.052C247.746 97.388 247.374 97.648 246.926 97.832C246.478 98.008 245.962 98.096 245.378 98.096ZM251.091 98V92.648L251.511 93.08H248.907V91.544H255.135V93.08H252.531L252.951 92.648V98H251.091Z" fill="white"/>
</svg>
