<svg width="39" height="39" viewBox="0 0 39 39" fill="none" xmlns="http://www.w3.org/2000/svg">
<path d="M2.4375 16.25C7.04167 15.1667 14.95 14.4625 13 20.3125C10.5625 27.625 11.375 26 13 29.25C14.3 31.85 13.5417 34.6667 13 35.75M8.125 6.5C10.5625 5.95833 16.25 5.525 19.5 8.125C23.5625 11.375 22.75 16.25 34.125 9.75001M37.375 19.5C37.375 29.3721 29.3721 37.375 19.5 37.375C9.62791 37.375 1.625 29.3721 1.625 19.5C1.625 9.62791 9.62791 1.625 19.5 1.625C29.3721 1.625 37.375 9.62791 37.375 19.5ZM23.2817 19.9859C28.9692 19.1734 30.875 18.6875 29.25 22.75C27.7412 26.522 23.2817 34.0693 20.0317 26.4859C19.2192 24.5901 18.7317 20.6359 23.2817 19.9859Z" stroke="white" stroke-width="3" stroke-linecap="round"/>
</svg>
