<svg width="281" height="125" viewBox="0 0 281 125" fill="none" xmlns="http://www.w3.org/2000/svg">
<mask id="path-1-outside-1_97_198" maskUnits="userSpaceOnUse" x="8" y="13" width="269" height="106" fill="black">
<rect fill="white" x="8" y="13" width="269" height="106"/>
<path d="M62.48 26.952C62.48 26.0987 62.6933 25.3733 63.12 24.776C63.5467 24.1787 64.3573 23.88 65.552 23.88H84.624C85.9893 23.88 86.8 24.264 87.056 25.032C87.3973 25.8 87.568 26.44 87.568 26.952V105.928C87.568 106.44 87.3973 107.08 87.056 107.848C86.8 108.616 85.9893 109 84.624 109H65.552C64.3573 109 63.5467 108.701 63.12 108.104C62.6933 107.507 62.48 106.781 62.48 105.928V75.592H43.408V105.928C43.408 106.44 43.2373 107.08 42.896 107.848C42.64 108.616 41.8293 109 40.464 109H21.392C20.1973 109 19.3867 108.701 18.96 108.104C18.5333 107.507 18.32 106.781 18.32 105.928V26.952C18.32 26.0987 18.5333 25.3733 18.96 24.776C19.3867 24.1787 20.1973 23.88 21.392 23.88H40.464C41.8293 23.88 42.64 24.264 42.896 25.032C43.2373 25.8 43.408 26.44 43.408 26.952V54.856H62.48V26.952ZM174.979 23.88C176.344 23.88 177.155 24.264 177.411 25.032C177.752 25.8 177.923 26.44 177.923 26.952V105.928C177.923 106.44 177.752 107.08 177.411 107.848C177.155 108.616 176.344 109 174.979 109H155.907C154.712 109 153.902 108.701 153.475 108.104C153.048 107.507 152.835 106.781 152.835 105.928V66.376L128.643 104.776C127.96 105.885 127.022 106.867 125.827 107.72C124.632 108.573 123.054 109 121.091 109H107.267C106.072 109 105.262 108.701 104.835 108.104C104.408 107.507 104.195 106.781 104.195 105.928V26.952C104.195 26.0987 104.408 25.3733 104.835 24.776C105.262 24.1787 106.072 23.88 107.267 23.88H126.339C127.704 23.88 128.515 24.264 128.771 25.032C129.112 25.8 129.283 26.44 129.283 26.952V64.968L152.195 27.976C152.963 26.952 153.774 26.0133 154.627 25.16C155.48 24.3067 157.016 23.88 159.235 23.88H174.979ZM232.586 82.12C231.562 79.048 230.239 77.0853 228.618 76.232C226.997 75.3787 225.205 74.952 223.242 74.952H219.658V105.928C219.658 106.44 219.487 107.08 219.146 107.848C218.89 108.616 218.079 109 216.714 109H197.642C196.447 109 195.637 108.701 195.21 108.104C194.783 107.507 194.57 106.781 194.57 105.928V26.952C194.57 26.0987 194.783 25.3733 195.21 24.776C195.637 24.1787 196.447 23.88 197.642 23.88H216.714C218.079 23.88 218.89 24.264 219.146 25.032C219.487 25.8 219.658 26.44 219.658 26.952V54.472H224.01C225.717 54.472 227.423 54.0453 229.13 53.192C230.922 52.3387 232.33 50.376 233.354 47.304L239.242 28.616C239.583 27.7627 239.882 27.08 240.138 26.568C240.394 25.9707 240.735 25.5013 241.162 25.16C241.674 24.8187 242.271 24.6053 242.954 24.52C243.722 24.3493 244.703 24.264 245.898 24.264H263.05C265.269 24.264 266.037 25.3307 265.354 27.464L258.57 49.096C257.119 53.192 255.626 56.6053 254.09 59.336C252.554 62.0667 250.549 63.9867 248.074 65.096C250.805 66.2907 252.81 68.2107 254.09 70.856C255.455 73.5013 256.821 76.744 258.186 80.584L266.25 105.8C266.933 107.933 266.165 109 263.946 109H245.642C244.447 109 243.466 108.957 242.698 108.872C242.015 108.701 241.418 108.445 240.906 108.104C240.479 107.763 240.138 107.336 239.882 106.824C239.626 106.227 239.327 105.501 238.986 104.648L232.586 82.12Z"/>
</mask>
<path d="M62.48 26.952C62.48 26.0987 62.6933 25.3733 63.12 24.776C63.5467 24.1787 64.3573 23.88 65.552 23.88H84.624C85.9893 23.88 86.8 24.264 87.056 25.032C87.3973 25.8 87.568 26.44 87.568 26.952V105.928C87.568 106.44 87.3973 107.08 87.056 107.848C86.8 108.616 85.9893 109 84.624 109H65.552C64.3573 109 63.5467 108.701 63.12 108.104C62.6933 107.507 62.48 106.781 62.48 105.928V75.592H43.408V105.928C43.408 106.44 43.2373 107.08 42.896 107.848C42.64 108.616 41.8293 109 40.464 109H21.392C20.1973 109 19.3867 108.701 18.96 108.104C18.5333 107.507 18.32 106.781 18.32 105.928V26.952C18.32 26.0987 18.5333 25.3733 18.96 24.776C19.3867 24.1787 20.1973 23.88 21.392 23.88H40.464C41.8293 23.88 42.64 24.264 42.896 25.032C43.2373 25.8 43.408 26.44 43.408 26.952V54.856H62.48V26.952ZM174.979 23.88C176.344 23.88 177.155 24.264 177.411 25.032C177.752 25.8 177.923 26.44 177.923 26.952V105.928C177.923 106.44 177.752 107.08 177.411 107.848C177.155 108.616 176.344 109 174.979 109H155.907C154.712 109 153.902 108.701 153.475 108.104C153.048 107.507 152.835 106.781 152.835 105.928V66.376L128.643 104.776C127.96 105.885 127.022 106.867 125.827 107.72C124.632 108.573 123.054 109 121.091 109H107.267C106.072 109 105.262 108.701 104.835 108.104C104.408 107.507 104.195 106.781 104.195 105.928V26.952C104.195 26.0987 104.408 25.3733 104.835 24.776C105.262 24.1787 106.072 23.88 107.267 23.88H126.339C127.704 23.88 128.515 24.264 128.771 25.032C129.112 25.8 129.283 26.44 129.283 26.952V64.968L152.195 27.976C152.963 26.952 153.774 26.0133 154.627 25.16C155.48 24.3067 157.016 23.88 159.235 23.88H174.979ZM232.586 82.12C231.562 79.048 230.239 77.0853 228.618 76.232C226.997 75.3787 225.205 74.952 223.242 74.952H219.658V105.928C219.658 106.44 219.487 107.08 219.146 107.848C218.89 108.616 218.079 109 216.714 109H197.642C196.447 109 195.637 108.701 195.21 108.104C194.783 107.507 194.57 106.781 194.57 105.928V26.952C194.57 26.0987 194.783 25.3733 195.21 24.776C195.637 24.1787 196.447 23.88 197.642 23.88H216.714C218.079 23.88 218.89 24.264 219.146 25.032C219.487 25.8 219.658 26.44 219.658 26.952V54.472H224.01C225.717 54.472 227.423 54.0453 229.13 53.192C230.922 52.3387 232.33 50.376 233.354 47.304L239.242 28.616C239.583 27.7627 239.882 27.08 240.138 26.568C240.394 25.9707 240.735 25.5013 241.162 25.16C241.674 24.8187 242.271 24.6053 242.954 24.52C243.722 24.3493 244.703 24.264 245.898 24.264H263.05C265.269 24.264 266.037 25.3307 265.354 27.464L258.57 49.096C257.119 53.192 255.626 56.6053 254.09 59.336C252.554 62.0667 250.549 63.9867 248.074 65.096C250.805 66.2907 252.81 68.2107 254.09 70.856C255.455 73.5013 256.821 76.744 258.186 80.584L266.25 105.8C266.933 107.933 266.165 109 263.946 109H245.642C244.447 109 243.466 108.957 242.698 108.872C242.015 108.701 241.418 108.445 240.906 108.104C240.479 107.763 240.138 107.336 239.882 106.824C239.626 106.227 239.327 105.501 238.986 104.648L232.586 82.12Z" fill="url(#paint0_linear_97_198)"/>
<path d="M63.12 24.776L54.9827 18.9636L54.9827 18.9636L63.12 24.776ZM87.056 25.032L77.5692 28.1943L77.7218 28.6522L77.9179 29.0933L87.056 25.032ZM87.056 107.848L77.9179 103.787L77.7218 104.228L77.5692 104.686L87.056 107.848ZM62.48 75.592H72.48V65.592H62.48V75.592ZM43.408 75.592V65.592H33.408V75.592H43.408ZM42.896 107.848L33.7579 103.787L33.5618 104.228L33.4092 104.686L42.896 107.848ZM18.96 108.104L10.8227 113.916L10.8227 113.916L18.96 108.104ZM18.96 24.776L10.8227 18.9636L10.8227 18.9636L18.96 24.776ZM42.896 25.032L33.4092 28.1943L33.5618 28.6522L33.7579 29.0934L42.896 25.032ZM43.408 54.856H33.408V64.856H43.408V54.856ZM62.48 54.856V64.856H72.48V54.856H62.48ZM72.48 26.952C72.48 27.8332 72.2306 29.2257 71.2574 30.5884L54.9827 18.9636C53.156 21.5209 52.48 24.3641 52.48 26.952H72.48ZM71.2573 30.5884C70.1096 32.1953 68.6419 33.0686 67.505 33.4874C66.4687 33.8693 65.7153 33.88 65.552 33.88V13.88C63.1745 13.88 58.2231 14.427 54.9827 18.9636L71.2573 30.5884ZM65.552 33.88H84.624V13.88H65.552V33.88ZM84.624 33.88C84.5272 33.88 83.4228 33.8911 81.9751 33.2054C80.2108 32.3696 78.4009 30.6894 77.5692 28.1943L96.5428 21.8697C94.1035 14.5517 86.9392 13.88 84.624 13.88V33.88ZM77.9179 29.0933C77.9289 29.1181 77.8581 28.9663 77.7776 28.6646C77.7007 28.376 77.568 27.777 77.568 26.952H97.568C97.568 24.4244 96.7842 22.2984 96.1941 20.9707L77.9179 29.0933ZM77.568 26.952V105.928H97.568V26.952H77.568ZM77.568 105.928C77.568 105.103 77.7007 104.504 77.7776 104.215C77.8581 103.914 77.9289 103.762 77.9179 103.787L96.1941 111.909C96.7842 110.582 97.568 108.456 97.568 105.928H77.568ZM77.5692 104.686C78.4009 102.191 80.2108 100.51 81.9752 99.6746C83.4228 98.9889 84.5272 99 84.624 99V119C86.9392 119 94.1035 118.328 96.5428 111.01L77.5692 104.686ZM84.624 99H65.552V119H84.624V99ZM65.552 99C65.7153 99 66.4687 99.0107 67.5051 99.3926C68.6419 99.8114 70.1096 100.685 71.2573 102.292L54.9827 113.916C58.2231 118.453 63.1745 119 65.552 119V99ZM71.2573 102.292C72.2306 103.654 72.48 105.047 72.48 105.928H52.48C52.48 108.516 53.156 111.359 54.9827 113.916L71.2573 102.292ZM72.48 105.928V75.592H52.48V105.928H72.48ZM62.48 65.592H43.408V85.592H62.48V65.592ZM33.408 75.592V105.928H53.408V75.592H33.408ZM33.408 105.928C33.408 105.103 33.5407 104.504 33.6177 104.215C33.6981 103.914 33.7689 103.762 33.7579 103.787L52.0341 111.909C52.6242 110.582 53.408 108.456 53.408 105.928H33.408ZM33.4092 104.686C34.2409 102.191 36.0507 100.51 37.8151 99.6746C39.2628 98.9889 40.3672 99 40.464 99V119C42.7792 119 49.9435 118.328 52.3828 111.01L33.4092 104.686ZM40.464 99H21.392V119H40.464V99ZM21.392 99C21.5553 99 22.3087 99.0107 23.3451 99.3926C24.4819 99.8114 25.9496 100.685 27.0973 102.292L10.8227 113.916C14.0631 118.453 19.0145 119 21.392 119V99ZM27.0973 102.292C28.0706 103.654 28.32 105.047 28.32 105.928H8.32C8.32 108.516 8.99603 111.359 10.8227 113.916L27.0973 102.292ZM28.32 105.928V26.952H8.32V105.928H28.32ZM28.32 26.952C28.32 27.8332 28.0706 29.2257 27.0973 30.5884L10.8227 18.9636C8.99603 21.5209 8.32 24.3641 8.32 26.952H28.32ZM27.0973 30.5884C25.9495 32.1953 24.4819 33.0686 23.345 33.4874C22.3086 33.8693 21.5553 33.88 21.392 33.88V13.88C19.0145 13.88 14.0631 14.427 10.8227 18.9636L27.0973 30.5884ZM21.392 33.88H40.464V13.88H21.392V33.88ZM40.464 33.88C40.3672 33.88 39.2628 33.8911 37.8151 33.2054C36.0507 32.3696 34.2409 30.6894 33.4092 28.1943L52.3828 21.8697C49.9435 14.5517 42.7792 13.88 40.464 13.88V33.88ZM33.7579 29.0934C33.7689 29.1182 33.6981 28.9663 33.6177 28.6646C33.5407 28.376 33.408 27.7771 33.408 26.952H53.408C53.408 24.4244 52.6242 22.2984 52.0341 20.9706L33.7579 29.0934ZM33.408 26.952V54.856H53.408V26.952H33.408ZM43.408 64.856H62.48V44.856H43.408V64.856ZM72.48 54.856V26.952H52.48V54.856H72.48ZM177.411 25.032L167.924 28.1943L168.077 28.6523L168.273 29.0934L177.411 25.032ZM177.411 107.848L168.273 103.787L168.077 104.228L167.924 104.686L177.411 107.848ZM152.835 66.376H162.835V31.7426L144.374 61.0456L152.835 66.376ZM128.643 104.776L120.182 99.4456L120.154 99.4902L120.126 99.535L128.643 104.776ZM104.835 108.104L96.6977 113.916L96.6977 113.916L104.835 108.104ZM104.835 24.776L96.6977 18.9636L96.6977 18.9636L104.835 24.776ZM128.771 25.032L119.284 28.1943L119.437 28.6522L119.633 29.0934L128.771 25.032ZM129.283 64.968H119.283V100.105L137.784 70.2336L129.283 64.968ZM152.195 27.976L144.195 21.976L143.928 22.3321L143.694 22.7104L152.195 27.976ZM174.979 33.88C174.882 33.88 173.778 33.8911 172.33 33.2054C170.566 32.3696 168.756 30.6894 167.924 28.1943L186.898 21.8697C184.458 14.5518 177.294 13.88 174.979 13.88V33.88ZM168.273 29.0934C168.284 29.1182 168.213 28.9663 168.133 28.6646C168.056 28.376 167.923 27.7771 167.923 26.952H187.923C187.923 24.4244 187.139 22.2984 186.549 20.9706L168.273 29.0934ZM167.923 26.952V105.928H187.923V26.952H167.923ZM167.923 105.928C167.923 105.103 168.056 104.504 168.133 104.215C168.213 103.914 168.284 103.762 168.273 103.787L186.549 111.909C187.139 110.582 187.923 108.456 187.923 105.928H167.923ZM167.924 104.686C168.756 102.191 170.566 100.51 172.33 99.6746C173.778 98.9889 174.882 99 174.979 99V119C177.294 119 184.458 118.328 186.898 111.01L167.924 104.686ZM174.979 99H155.907V119H174.979V99ZM155.907 99C156.07 99 156.824 99.0107 157.86 99.3926C158.997 99.8114 160.465 100.685 161.612 102.292L145.338 113.916C148.578 118.453 153.53 119 155.907 119V99ZM161.612 102.292C162.586 103.654 162.835 105.047 162.835 105.928H142.835C142.835 108.516 143.511 111.359 145.338 113.916L161.612 102.292ZM162.835 105.928V66.376H142.835V105.928H162.835ZM144.374 61.0456L120.182 99.4456L137.104 110.106L161.296 71.7064L144.374 61.0456ZM120.126 99.535C120.147 99.501 120.166 99.4745 120.181 99.4558C120.195 99.4372 120.203 99.4293 120.201 99.4318C120.197 99.436 120.144 99.4902 120.015 99.5827L131.639 115.857C133.782 114.327 135.694 112.398 137.16 110.017L120.126 99.535ZM120.015 99.5827C121.004 98.8761 121.662 99 121.091 99V119C124.445 119 128.261 118.271 131.639 115.857L120.015 99.5827ZM121.091 99H107.267V119H121.091V99ZM107.267 99C107.43 99 108.184 99.0107 109.22 99.3926C110.357 99.8114 111.825 100.685 112.972 102.292L96.6977 113.916C99.9381 118.453 104.89 119 107.267 119V99ZM112.972 102.292C113.946 103.654 114.195 105.047 114.195 105.928H94.195C94.195 108.516 94.871 111.359 96.6977 113.916L112.972 102.292ZM114.195 105.928V26.952H94.195V105.928H114.195ZM114.195 26.952C114.195 27.8332 113.946 29.2257 112.972 30.5884L96.6977 18.9636C94.871 21.5209 94.195 24.3641 94.195 26.952H114.195ZM112.972 30.5884C111.825 32.1953 110.357 33.0686 109.22 33.4874C108.184 33.8693 107.43 33.88 107.267 33.88V13.88C104.89 13.88 99.9381 14.427 96.6977 18.9636L112.972 30.5884ZM107.267 33.88H126.339V13.88H107.267V33.88ZM126.339 33.88C126.242 33.88 125.138 33.8911 123.69 33.2054C121.926 32.3696 120.116 30.6894 119.284 28.1943L138.258 21.8697C135.819 14.5517 128.654 13.88 126.339 13.88V33.88ZM119.633 29.0934C119.644 29.1182 119.573 28.9663 119.493 28.6646C119.416 28.376 119.283 27.7771 119.283 26.952H139.283C139.283 24.4244 138.499 22.2984 137.909 20.9706L119.633 29.0934ZM119.283 26.952V64.968H139.283V26.952H119.283ZM137.784 70.2336L160.696 33.2416L143.694 22.7104L120.782 59.7024L137.784 70.2336ZM160.195 33.976C160.696 33.3078 161.199 32.7303 161.698 32.2311L147.556 18.0889C146.349 19.2963 145.23 20.5962 144.195 21.976L160.195 33.976ZM161.698 32.2311C160.576 33.3536 159.473 33.7304 159.095 33.8352C158.726 33.9377 158.705 33.88 159.235 33.88V13.88C156.375 13.88 151.342 14.3032 147.556 18.0889L161.698 32.2311ZM159.235 33.88H174.979V13.88H159.235V33.88ZM232.586 82.12L242.205 79.3872L242.144 79.171L242.073 78.9577L232.586 82.12ZM228.618 76.232L233.275 67.3828L233.275 67.3828L228.618 76.232ZM219.658 74.952V64.952H209.658V74.952H219.658ZM219.146 107.848L210.008 103.787L209.812 104.228L209.659 104.686L219.146 107.848ZM195.21 108.104L187.073 113.916L187.073 113.916L195.21 108.104ZM195.21 24.776L187.073 18.9636L187.073 18.9636L195.21 24.776ZM219.146 25.032L209.659 28.1943L209.812 28.6522L210.008 29.0934L219.146 25.032ZM219.658 54.472H209.658V64.472H219.658V54.472ZM229.13 53.192L224.831 44.1634L224.744 44.2047L224.658 44.2477L229.13 53.192ZM233.354 47.304L242.841 50.4663L242.867 50.3879L242.892 50.3091L233.354 47.304ZM239.242 28.616L229.957 24.9021L229.817 25.2518L229.704 25.6109L239.242 28.616ZM240.138 26.568L249.082 31.0401L249.214 30.7773L249.329 30.5072L240.138 26.568ZM241.162 25.16L235.615 16.8395L235.254 17.0802L234.915 17.3513L241.162 25.16ZM242.954 24.52L244.194 34.4428L244.663 34.3842L245.123 34.2819L242.954 24.52ZM265.354 27.464L255.83 24.4162L255.821 24.4439L255.812 24.4716L265.354 27.464ZM258.57 49.096L267.996 52.4345L268.057 52.2625L268.112 52.0884L258.57 49.096ZM248.074 65.096L243.983 55.9709L223.379 65.2072L244.066 74.2576L248.074 65.096ZM254.09 70.856L245.088 75.2116L245.145 75.3278L245.204 75.4424L254.09 70.856ZM258.186 80.584L267.711 77.538L267.662 77.3851L267.608 77.2339L258.186 80.584ZM266.25 105.8L256.725 108.846L256.726 108.848L266.25 105.8ZM242.698 108.872L240.273 118.573L240.925 118.737L241.594 118.811L242.698 108.872ZM240.906 108.104L234.659 115.913L234.998 116.184L235.359 116.425L240.906 108.104ZM239.882 106.824L230.691 110.763L230.806 111.033L230.938 111.296L239.882 106.824ZM238.986 104.648L229.367 107.381L229.508 107.88L229.701 108.362L238.986 104.648ZM242.073 78.9577C240.806 75.1575 238.394 70.0769 233.275 67.3828L223.961 85.0812C222.944 84.546 222.534 83.9332 222.533 83.9325C222.527 83.9226 222.589 84.0143 222.698 84.2486C222.807 84.4811 222.945 84.8185 223.099 85.2823L242.073 78.9577ZM233.275 67.3828C230.117 65.7202 226.709 64.952 223.242 64.952V84.952C223.7 84.952 223.877 85.0371 223.961 85.0812L233.275 67.3828ZM223.242 64.952H219.658V84.952H223.242V64.952ZM209.658 74.952V105.928H229.658V74.952H209.658ZM209.658 105.928C209.658 105.103 209.791 104.504 209.868 104.215C209.948 103.914 210.019 103.762 210.008 103.787L228.284 111.909C228.874 110.582 229.658 108.456 229.658 105.928H209.658ZM209.659 104.686C210.491 102.191 212.301 100.51 214.065 99.6746C215.513 98.9889 216.617 99 216.714 99V119C219.029 119 226.194 118.328 228.633 111.01L209.659 104.686ZM216.714 99H197.642V119H216.714V99ZM197.642 99C197.805 99 198.559 99.0107 199.595 99.3926C200.732 99.8114 202.2 100.685 203.347 102.292L187.073 113.916C190.313 118.453 195.265 119 197.642 119V99ZM203.347 102.292C204.321 103.654 204.57 105.047 204.57 105.928H184.57C184.57 108.516 185.246 111.359 187.073 113.916L203.347 102.292ZM204.57 105.928V26.952H184.57V105.928H204.57ZM204.57 26.952C204.57 27.8332 204.321 29.2257 203.347 30.5884L187.073 18.9636C185.246 21.5209 184.57 24.3641 184.57 26.952H204.57ZM203.347 30.5884C202.2 32.1953 200.732 33.0686 199.595 33.4874C198.559 33.8693 197.805 33.88 197.642 33.88V13.88C195.265 13.88 190.313 14.427 187.073 18.9636L203.347 30.5884ZM197.642 33.88H216.714V13.88H197.642V33.88ZM216.714 33.88C216.617 33.88 215.513 33.8911 214.065 33.2054C212.301 32.3696 210.491 30.6894 209.659 28.1943L228.633 21.8697C226.194 14.5517 219.029 13.88 216.714 13.88V33.88ZM210.008 29.0934C210.019 29.1182 209.948 28.9663 209.868 28.6646C209.791 28.376 209.658 27.7771 209.658 26.952H229.658C229.658 24.4244 228.874 22.2984 228.284 20.9706L210.008 29.0934ZM209.658 26.952V54.472H229.658V26.952H209.658ZM219.658 64.472H224.01V44.472H219.658V64.472ZM224.01 64.472C227.444 64.472 230.673 63.601 233.602 62.1363L224.658 44.2477C224.403 44.3754 224.233 44.4284 224.145 44.4506C224.06 44.4717 224.021 44.472 224.01 44.472V64.472ZM233.429 62.2206C238.846 59.6412 241.478 54.554 242.841 50.4663L223.867 44.1417C223.726 44.5659 223.601 44.8607 223.51 45.0504C223.417 45.2409 223.374 45.2932 223.405 45.2509C223.473 45.1554 223.904 44.6048 224.831 44.1634L233.429 62.2206ZM242.892 50.3091L248.78 31.6211L229.704 25.6109L223.816 44.2989L242.892 50.3091ZM248.527 32.3299C248.819 31.6002 249.001 31.2022 249.082 31.0401L231.194 22.0959C230.763 22.9578 230.348 23.9251 229.957 24.9021L248.527 32.3299ZM249.329 30.5072C249.06 31.1366 248.49 32.104 247.409 32.9687L234.915 17.3513C232.981 18.8987 231.728 20.8047 230.947 22.6288L249.329 30.5072ZM246.709 33.4805C245.784 34.0975 244.868 34.3585 244.194 34.4428L241.714 14.5972C239.674 14.8521 237.564 15.5398 235.615 16.8395L246.709 33.4805ZM245.123 34.2819C244.987 34.3122 244.976 34.304 245.132 34.2904C245.282 34.2774 245.531 34.264 245.898 34.264V14.264C244.308 14.264 242.53 14.3702 240.785 14.7581L245.123 34.2819ZM245.898 34.264H263.05V14.264H245.898V34.264ZM263.05 34.264C262.881 34.264 262.121 34.2538 261.079 33.8814C259.943 33.4759 258.394 32.6007 257.175 30.907C255.96 29.2204 255.629 27.4939 255.598 26.3306C255.569 25.2569 255.784 24.5591 255.83 24.4162L274.878 30.5118C275.517 28.5162 276.63 23.6994 273.405 19.221C270.149 14.6986 265.18 14.264 263.05 14.264V34.264ZM255.812 24.4716L249.028 46.1036L268.112 52.0884L274.896 30.4564L255.812 24.4716ZM249.144 45.7575C247.817 49.5033 246.545 52.3525 245.374 54.4334L262.806 64.2386C264.707 60.8581 266.422 56.8807 267.996 52.4345L249.144 45.7575ZM245.374 54.4334C244.719 55.5987 244.211 55.869 243.983 55.9709L252.165 74.2211C256.887 72.1043 260.389 68.5346 262.806 64.2386L245.374 54.4334ZM244.066 74.2576C244.646 74.5116 244.863 74.7455 245.088 75.2116L263.092 66.5004C260.757 61.6758 256.963 58.0697 252.082 55.9344L244.066 74.2576ZM245.204 75.4424C246.303 77.573 247.498 80.375 248.764 83.9341L267.608 77.2339C266.143 73.113 264.607 69.4297 262.976 66.2696L245.204 75.4424ZM248.661 83.63L256.725 108.846L275.775 102.754L267.711 77.538L248.661 83.63ZM256.726 108.848C256.68 108.705 256.465 108.007 256.494 106.933C256.525 105.77 256.856 104.044 258.071 102.357C259.29 100.663 260.839 99.7881 261.975 99.3826C263.017 99.0102 263.777 99 263.946 99V119C266.076 119 271.045 118.565 274.301 114.043C277.526 109.565 276.413 104.748 275.774 102.752L256.726 108.848ZM263.946 99H245.642V119H263.946V99ZM245.642 99C244.641 99 244.063 98.9621 243.802 98.9332L241.594 118.811C242.869 118.953 244.254 119 245.642 119V99ZM245.123 99.1706C245.395 99.2386 245.885 99.4049 246.453 99.7835L235.359 116.425C236.951 117.486 238.635 118.164 240.273 118.573L245.123 99.1706ZM247.153 100.295C247.91 100.901 248.467 101.633 248.826 102.352L230.938 111.296C231.809 113.039 233.049 114.624 234.659 115.913L247.153 100.295ZM249.073 102.885C248.86 102.386 248.593 101.74 248.271 100.934L229.701 108.362C230.062 109.263 230.392 110.068 230.691 110.763L249.073 102.885ZM248.605 101.915L242.205 79.3872L222.967 84.8528L229.367 107.381L248.605 101.915Z" fill="white" mask="url(#path-1-outside-1_97_198)"/>
<defs>
<linearGradient id="paint0_linear_97_198" x1="25.5" y1="64" x2="293.5" y2="103.5" gradientUnits="userSpaceOnUse">
<stop stop-color="#C7C6E8"/>
<stop offset="1" stop-color="#D9AEE6"/>
</linearGradient>
</defs>
</svg>
