<svg width="46" height="46" viewBox="0 0 46 46" fill="none" xmlns="http://www.w3.org/2000/svg">
<path d="M5.75 7.66663H6.91211C8.8683 7.66663 10.5107 9.13959 10.7228 11.0842L12.2772 25.3323C12.4893 27.277 14.1317 28.75 16.0879 28.75H32.6716C34.4238 28.75 35.953 27.5618 36.386 25.8639L39.0309 15.4926C39.649 13.0688 37.8177 10.712 35.3164 10.712H12.65M12.6974 35.6978H14.1349M12.6974 37.1353H14.1349M33.7808 35.6978H35.2183M33.7808 37.1353H35.2183M15.3333 36.4166C15.3333 37.4752 14.4752 38.3333 13.4167 38.3333C12.3581 38.3333 11.5 37.4752 11.5 36.4166C11.5 35.3581 12.3581 34.5 13.4167 34.5C14.4752 34.5 15.3333 35.3581 15.3333 36.4166ZM36.4167 36.4166C36.4167 37.4752 35.5585 38.3333 34.5 38.3333C33.4415 38.3333 32.5833 37.4752 32.5833 36.4166C32.5833 35.3581 33.4415 34.5 34.5 34.5C35.5585 34.5 36.4167 35.3581 36.4167 36.4166Z" stroke="white" stroke-width="3" stroke-linecap="round"/>
</svg>
