<svg width="39" height="39" viewBox="0 0 39 39" fill="none" xmlns="http://www.w3.org/2000/svg">
<g clip-path="url(#clip0_1_27)">
<path d="M31.8626 31.1897C31.218 29.9269 30.3674 28.7422 29.3108 27.6856C23.8925 22.2673 15.1077 22.2673 9.68942 27.6856C8.63276 28.7422 7.78217 29.9269 7.13765 31.1897M1.625 19.5C1.625 9.62791 9.62791 1.625 19.5 1.625C29.3721 1.625 37.375 9.62791 37.375 19.5C37.375 29.3721 29.3721 37.375 19.5 37.375C9.62791 37.375 1.625 29.3721 1.625 19.5ZM26 16.25C26 19.8398 23.0899 22.75 19.5 22.75C15.9102 22.75 13 19.8398 13 16.25C13 12.6601 15.9102 9.75 19.5 9.75C23.0899 9.75 26 12.6601 26 16.25Z" stroke="white" stroke-width="3"/>
</g>
<defs>
<clipPath id="clip0_1_27">
<rect width="39" height="39" fill="white"/>
</clipPath>
</defs>
</svg>
