<svg width="250" height="86" viewBox="0 0 250 86" fill="none" xmlns="http://www.w3.org/2000/svg">
<mask id="path-1-outside-1_64_189" maskUnits="userSpaceOnUse" x="-10" y="-10" width="269" height="106" fill="black">
<rect fill="white" x="-10" y="-10" width="269" height="106"/>
<path d="M44.48 3.952C44.48 3.09866 44.6933 2.37333 45.12 1.77599C45.5467 1.17866 46.3573 0.879997 47.552 0.879997H66.624C67.9893 0.879997 68.8 1.264 69.056 2.032C69.3973 2.8 69.568 3.44 69.568 3.952V82.928C69.568 83.44 69.3973 84.08 69.056 84.848C68.8 85.616 67.9893 86 66.624 86H47.552C46.3573 86 45.5467 85.7013 45.12 85.104C44.6933 84.5067 44.48 83.7813 44.48 82.928V52.592H25.408V82.928C25.408 83.44 25.2373 84.08 24.896 84.848C24.64 85.616 23.8293 86 22.464 86H3.392C2.19733 86 1.38667 85.7013 0.96 85.104C0.533334 84.5067 0.320001 83.7813 0.320001 82.928V3.952C0.320001 3.09866 0.533334 2.37333 0.96 1.77599C1.38667 1.17866 2.19733 0.879997 3.392 0.879997H22.464C23.8293 0.879997 24.64 1.264 24.896 2.032C25.2373 2.8 25.408 3.44 25.408 3.952V31.856H44.48V3.952ZM156.979 0.879997C158.344 0.879997 159.155 1.264 159.411 2.032C159.752 2.8 159.923 3.44 159.923 3.952V82.928C159.923 83.44 159.752 84.08 159.411 84.848C159.155 85.616 158.344 86 156.979 86H137.907C136.712 86 135.902 85.7013 135.475 85.104C135.048 84.5067 134.835 83.7813 134.835 82.928V43.376L110.643 81.776C109.96 82.8853 109.022 83.8667 107.827 84.72C106.632 85.5733 105.054 86 103.091 86H89.267C88.0723 86 87.2617 85.7013 86.835 85.104C86.4083 84.5067 86.195 83.7813 86.195 82.928V3.952C86.195 3.09866 86.4083 2.37333 86.835 1.77599C87.2617 1.17866 88.0723 0.879997 89.267 0.879997H108.339C109.704 0.879997 110.515 1.264 110.771 2.032C111.112 2.8 111.283 3.44 111.283 3.952V41.968L134.195 4.976C134.963 3.952 135.774 3.01333 136.627 2.16C137.48 1.30666 139.016 0.879997 141.235 0.879997H156.979ZM214.586 59.12C213.562 56.048 212.239 54.0853 210.618 53.232C208.997 52.3787 207.205 51.952 205.242 51.952H201.658V82.928C201.658 83.44 201.487 84.08 201.146 84.848C200.89 85.616 200.079 86 198.714 86H179.642C178.447 86 177.637 85.7013 177.21 85.104C176.783 84.5067 176.57 83.7813 176.57 82.928V3.952C176.57 3.09866 176.783 2.37333 177.21 1.77599C177.637 1.17866 178.447 0.879997 179.642 0.879997H198.714C200.079 0.879997 200.89 1.264 201.146 2.032C201.487 2.8 201.658 3.44 201.658 3.952V31.472H206.01C207.717 31.472 209.423 31.0453 211.13 30.192C212.922 29.3387 214.33 27.376 215.354 24.304L221.242 5.616C221.583 4.76266 221.882 4.08 222.138 3.56799C222.394 2.97066 222.735 2.50133 223.162 2.16C223.674 1.81866 224.271 1.60533 224.954 1.52C225.722 1.34933 226.703 1.26399 227.898 1.26399H245.05C247.269 1.26399 248.037 2.33066 247.354 4.464L240.57 26.096C239.119 30.192 237.626 33.6053 236.09 36.336C234.554 39.0667 232.549 40.9867 230.074 42.096C232.805 43.2907 234.81 45.2107 236.09 47.856C237.455 50.5013 238.821 53.744 240.186 57.584L248.25 82.8C248.933 84.9333 248.165 86 245.946 86H227.642C226.447 86 225.466 85.9573 224.698 85.872C224.015 85.7013 223.418 85.4453 222.906 85.104C222.479 84.7627 222.138 84.336 221.882 83.824C221.626 83.2267 221.327 82.5013 220.986 81.648L214.586 59.12Z"/>
</mask>
<path d="M44.48 3.952C44.48 3.09866 44.6933 2.37333 45.12 1.77599C45.5467 1.17866 46.3573 0.879997 47.552 0.879997H66.624C67.9893 0.879997 68.8 1.264 69.056 2.032C69.3973 2.8 69.568 3.44 69.568 3.952V82.928C69.568 83.44 69.3973 84.08 69.056 84.848C68.8 85.616 67.9893 86 66.624 86H47.552C46.3573 86 45.5467 85.7013 45.12 85.104C44.6933 84.5067 44.48 83.7813 44.48 82.928V52.592H25.408V82.928C25.408 83.44 25.2373 84.08 24.896 84.848C24.64 85.616 23.8293 86 22.464 86H3.392C2.19733 86 1.38667 85.7013 0.96 85.104C0.533334 84.5067 0.320001 83.7813 0.320001 82.928V3.952C0.320001 3.09866 0.533334 2.37333 0.96 1.77599C1.38667 1.17866 2.19733 0.879997 3.392 0.879997H22.464C23.8293 0.879997 24.64 1.264 24.896 2.032C25.2373 2.8 25.408 3.44 25.408 3.952V31.856H44.48V3.952ZM156.979 0.879997C158.344 0.879997 159.155 1.264 159.411 2.032C159.752 2.8 159.923 3.44 159.923 3.952V82.928C159.923 83.44 159.752 84.08 159.411 84.848C159.155 85.616 158.344 86 156.979 86H137.907C136.712 86 135.902 85.7013 135.475 85.104C135.048 84.5067 134.835 83.7813 134.835 82.928V43.376L110.643 81.776C109.96 82.8853 109.022 83.8667 107.827 84.72C106.632 85.5733 105.054 86 103.091 86H89.267C88.0723 86 87.2617 85.7013 86.835 85.104C86.4083 84.5067 86.195 83.7813 86.195 82.928V3.952C86.195 3.09866 86.4083 2.37333 86.835 1.77599C87.2617 1.17866 88.0723 0.879997 89.267 0.879997H108.339C109.704 0.879997 110.515 1.264 110.771 2.032C111.112 2.8 111.283 3.44 111.283 3.952V41.968L134.195 4.976C134.963 3.952 135.774 3.01333 136.627 2.16C137.48 1.30666 139.016 0.879997 141.235 0.879997H156.979ZM214.586 59.12C213.562 56.048 212.239 54.0853 210.618 53.232C208.997 52.3787 207.205 51.952 205.242 51.952H201.658V82.928C201.658 83.44 201.487 84.08 201.146 84.848C200.89 85.616 200.079 86 198.714 86H179.642C178.447 86 177.637 85.7013 177.21 85.104C176.783 84.5067 176.57 83.7813 176.57 82.928V3.952C176.57 3.09866 176.783 2.37333 177.21 1.77599C177.637 1.17866 178.447 0.879997 179.642 0.879997H198.714C200.079 0.879997 200.89 1.264 201.146 2.032C201.487 2.8 201.658 3.44 201.658 3.952V31.472H206.01C207.717 31.472 209.423 31.0453 211.13 30.192C212.922 29.3387 214.33 27.376 215.354 24.304L221.242 5.616C221.583 4.76266 221.882 4.08 222.138 3.56799C222.394 2.97066 222.735 2.50133 223.162 2.16C223.674 1.81866 224.271 1.60533 224.954 1.52C225.722 1.34933 226.703 1.26399 227.898 1.26399H245.05C247.269 1.26399 248.037 2.33066 247.354 4.464L240.57 26.096C239.119 30.192 237.626 33.6053 236.09 36.336C234.554 39.0667 232.549 40.9867 230.074 42.096C232.805 43.2907 234.81 45.2107 236.09 47.856C237.455 50.5013 238.821 53.744 240.186 57.584L248.25 82.8C248.933 84.9333 248.165 86 245.946 86H227.642C226.447 86 225.466 85.9573 224.698 85.872C224.015 85.7013 223.418 85.4453 222.906 85.104C222.479 84.7627 222.138 84.336 221.882 83.824C221.626 83.2267 221.327 82.5013 220.986 81.648L214.586 59.12Z" fill="url(#paint0_linear_64_189)"/>
<path d="M45.12 1.77599L36.9827 -4.0364L36.9827 -4.03637L45.12 1.77599ZM69.056 2.032L59.5692 5.19429L59.7218 5.65223L59.9179 6.09334L69.056 2.032ZM69.056 84.848L59.9179 80.7867L59.7218 81.2278L59.5692 81.6857L69.056 84.848ZM44.48 52.592H54.48V42.592H44.48V52.592ZM25.408 52.592V42.592H15.408V52.592H25.408ZM24.896 84.848L15.7579 80.7866L15.5618 81.2278L15.4092 81.6857L24.896 84.848ZM0.96 85.104L-7.17734 90.9164L-7.17733 90.9164L0.96 85.104ZM0.96 1.77599L-7.17732 -4.03641L-7.17735 -4.03637L0.96 1.77599ZM24.896 2.032L15.4092 5.19427L15.5618 5.65224L15.7579 6.09339L24.896 2.032ZM25.408 31.856H15.408V41.856H25.408V31.856ZM44.48 31.856V41.856H54.48V31.856H44.48ZM54.48 3.952C54.48 4.83321 54.2306 6.22575 53.2574 7.58836L36.9827 -4.03637C35.156 -1.47909 34.48 1.36412 34.48 3.952H54.48ZM53.2573 7.58839C52.1096 9.19527 50.6419 10.0686 49.505 10.4874C48.4687 10.8693 47.7153 10.88 47.552 10.88V-9.12C45.1745 -9.12 40.2231 -8.57303 36.9827 -4.0364L53.2573 7.58839ZM47.552 10.88H66.624V-9.12H47.552V10.88ZM66.624 10.88C66.5272 10.88 65.4228 10.8911 63.9751 10.2054C62.2108 9.36962 60.4009 7.6894 59.5692 5.19429L78.5428 -1.1303C76.1035 -8.44826 68.9392 -9.12 66.624 -9.12V10.88ZM59.9179 6.09334C59.9289 6.11811 59.8581 5.96628 59.7776 5.6646C59.7007 5.376 59.568 4.77705 59.568 3.952H79.568C79.568 1.42445 78.7842 -0.701598 78.1941 -2.02934L59.9179 6.09334ZM59.568 3.952V82.928H79.568V3.952H59.568ZM59.568 82.928C59.568 82.103 59.7007 81.504 59.7776 81.2154C59.8581 80.9137 59.9289 80.7619 59.9179 80.7867L78.1941 88.9093C78.7842 87.5816 79.568 85.4555 79.568 82.928H59.568ZM59.5692 81.6857C60.4009 79.1906 62.2108 77.5104 63.9752 76.6746C65.4228 75.9889 66.5272 76 66.624 76V96C68.9392 96 76.1035 95.3283 78.5428 88.0103L59.5692 81.6857ZM66.624 76H47.552V96H66.624V76ZM47.552 76C47.7153 76 48.4687 76.0107 49.5051 76.3926C50.6419 76.8114 52.1096 77.6847 53.2573 79.2916L36.9827 90.9164C40.2231 95.453 45.1745 96 47.552 96V76ZM53.2573 79.2916C54.2306 80.6542 54.48 82.0468 54.48 82.928H34.48C34.48 85.5159 35.156 88.3591 36.9827 90.9164L53.2573 79.2916ZM54.48 82.928V52.592H34.48V82.928H54.48ZM44.48 42.592H25.408V62.592H44.48V42.592ZM15.408 52.592V82.928H35.408V52.592H15.408ZM15.408 82.928C15.408 82.1029 15.5407 81.504 15.6177 81.2154C15.6981 80.9137 15.7689 80.7618 15.7579 80.7866L34.0341 88.9094C34.6242 87.5816 35.408 85.4556 35.408 82.928H15.408ZM15.4092 81.6857C16.2409 79.1906 18.0507 77.5104 19.8151 76.6746C21.2628 75.9889 22.3672 76 22.464 76V96C24.7792 96 31.9435 95.3283 34.3828 88.0103L15.4092 81.6857ZM22.464 76H3.392V96H22.464V76ZM3.392 76C3.55529 76 4.30866 76.0107 5.34505 76.3926C6.4819 76.8114 7.94956 77.6847 9.09733 79.2916L-7.17733 90.9164C-3.93688 95.453 1.01451 96 3.392 96V76ZM9.09734 79.2916C10.0706 80.6542 10.32 82.0468 10.32 82.928H-9.68C-9.68 85.5159 -9.00397 88.3591 -7.17734 90.9164L9.09734 79.2916ZM10.32 82.928V3.952H-9.68V82.928H10.32ZM10.32 3.952C10.32 4.83321 10.0706 6.22575 9.09735 7.58836L-7.17735 -4.03637C-9.00397 -1.47909 -9.68 1.36412 -9.68 3.952H10.32ZM9.09732 7.58839C7.94955 9.19527 6.48188 10.0686 5.34504 10.4874C4.30865 10.8693 3.55529 10.88 3.392 10.88V-9.12C1.01453 -9.12 -3.93686 -8.57303 -7.17732 -4.03641L9.09732 7.58839ZM3.392 10.88H22.464V-9.12H3.392V10.88ZM22.464 10.88C22.3672 10.88 21.2628 10.8911 19.8151 10.2054C18.0507 9.36961 16.2409 7.68937 15.4092 5.19427L34.3828 -1.13027C31.9435 -8.44825 24.7792 -9.12 22.464 -9.12V10.88ZM15.7579 6.09339C15.7689 6.11816 15.6981 5.96633 15.6177 5.66463C15.5407 5.37603 15.408 4.77706 15.408 3.952H35.408C35.408 1.42442 34.6242 -0.701647 34.0341 -2.02939L15.7579 6.09339ZM15.408 3.952V31.856H35.408V3.952H15.408ZM25.408 41.856H44.48V21.856H25.408V41.856ZM54.48 31.856V3.952H34.48V31.856H54.48ZM159.411 2.032L149.924 5.19429L150.077 5.65226L150.273 6.09339L159.411 2.032ZM159.411 84.848L150.273 80.7866L150.077 81.2277L149.924 81.6857L159.411 84.848ZM134.835 43.376H144.835V8.74258L126.374 38.0456L134.835 43.376ZM110.643 81.776L102.182 76.4456L102.154 76.4902L102.126 76.535L110.643 81.776ZM86.835 85.104L78.6977 90.9164L78.6977 90.9164L86.835 85.104ZM86.835 1.77599L78.6977 -4.03641L78.6977 -4.03637L86.835 1.77599ZM110.771 2.032L101.284 5.19427L101.437 5.65224L101.633 6.09339L110.771 2.032ZM111.283 41.968H101.283V77.1045L119.784 47.2336L111.283 41.968ZM134.195 4.976L126.195 -1.024L125.928 -0.667942L125.694 -0.289574L134.195 4.976ZM156.979 10.88C156.882 10.88 155.778 10.8911 154.33 10.2054C152.566 9.36961 150.756 7.68938 149.924 5.19429L168.898 -1.1303C166.458 -8.44824 159.294 -9.12 156.979 -9.12V10.88ZM150.273 6.09339C150.284 6.11816 150.213 5.96633 150.133 5.66463C150.056 5.37603 149.923 4.77706 149.923 3.952H169.923C169.923 1.42442 169.139 -0.701647 168.549 -2.02939L150.273 6.09339ZM149.923 3.952V82.928H169.923V3.952H149.923ZM149.923 82.928C149.923 82.1029 150.056 81.504 150.133 81.2154C150.213 80.9137 150.284 80.7618 150.273 80.7866L168.549 88.9094C169.139 87.5816 169.923 85.4556 169.923 82.928H149.923ZM149.924 81.6857C150.756 79.1906 152.566 77.5104 154.33 76.6746C155.778 75.9889 156.882 76 156.979 76V96C159.294 96 166.458 95.3282 168.898 88.0103L149.924 81.6857ZM156.979 76H137.907V96H156.979V76ZM137.907 76C138.07 76 138.824 76.0107 139.86 76.3926C140.997 76.8114 142.465 77.6847 143.612 79.2916L127.338 90.9164C130.578 95.453 135.53 96 137.907 96V76ZM143.612 79.2916C144.586 80.6542 144.835 82.0468 144.835 82.928H124.835C124.835 85.5159 125.511 88.3591 127.338 90.9164L143.612 79.2916ZM144.835 82.928V43.376H124.835V82.928H144.835ZM126.374 38.0456L102.182 76.4456L119.104 87.1064L143.296 48.7064L126.374 38.0456ZM102.126 76.535C102.147 76.501 102.166 76.4745 102.181 76.4558C102.195 76.4372 102.203 76.4293 102.201 76.4318C102.197 76.436 102.144 76.4902 102.015 76.5827L113.639 92.8573C115.782 91.3269 117.694 89.3982 119.16 87.017L102.126 76.535ZM102.015 76.5827C103.004 75.8761 103.662 76 103.091 76V96C106.445 96 110.261 95.2706 113.639 92.8573L102.015 76.5827ZM103.091 76H89.267V96H103.091V76ZM89.267 76C89.4303 76 90.1837 76.0107 91.2201 76.3926C92.3569 76.8114 93.8246 77.6847 94.9723 79.2916L78.6977 90.9164C81.9381 95.453 86.8895 96 89.267 96V76ZM94.9723 79.2916C95.9456 80.6542 96.195 82.0468 96.195 82.928H76.195C76.195 85.5159 76.871 88.3591 78.6977 90.9164L94.9723 79.2916ZM96.195 82.928V3.952H76.195V82.928H96.195ZM96.195 3.952C96.195 4.83321 95.9456 6.22575 94.9723 7.58836L78.6977 -4.03637C76.871 -1.47909 76.195 1.36412 76.195 3.952H96.195ZM94.9723 7.58839C93.8245 9.19527 92.3569 10.0686 91.22 10.4874C90.1836 10.8693 89.4303 10.88 89.267 10.88V-9.12C86.8895 -9.12 81.9381 -8.57303 78.6977 -4.03641L94.9723 7.58839ZM89.267 10.88H108.339V-9.12H89.267V10.88ZM108.339 10.88C108.242 10.88 107.138 10.8911 105.69 10.2054C103.926 9.36961 102.116 7.68937 101.284 5.19427L120.258 -1.13027C117.819 -8.44825 110.654 -9.12 108.339 -9.12V10.88ZM101.633 6.09339C101.644 6.11816 101.573 5.96633 101.493 5.66463C101.416 5.37603 101.283 4.77706 101.283 3.952H121.283C121.283 1.42442 120.499 -0.701647 119.909 -2.02939L101.633 6.09339ZM101.283 3.952V41.968H121.283V3.952H101.283ZM119.784 47.2336L142.696 10.2416L125.694 -0.289574L102.782 36.7024L119.784 47.2336ZM142.195 10.976C142.696 10.3078 143.199 9.73032 143.698 9.23106L129.556 -4.91107C128.349 -3.70366 127.23 -2.40385 126.195 -1.024L142.195 10.976ZM143.698 9.23106C142.576 10.3536 141.473 10.7304 141.095 10.8352C140.726 10.9377 140.705 10.88 141.235 10.88V-9.12C138.375 -9.12 133.342 -8.69679 129.556 -4.91107L143.698 9.23106ZM141.235 10.88H156.979V-9.12H141.235V10.88ZM214.586 59.12L224.205 56.3872L224.144 56.171L224.073 55.9577L214.586 59.12ZM210.618 53.232L215.275 44.3828L215.275 44.3828L210.618 53.232ZM201.658 51.952V41.952H191.658V51.952H201.658ZM201.146 84.848L192.008 80.7866L191.812 81.2278L191.659 81.6857L201.146 84.848ZM177.21 85.104L169.073 90.9164L169.073 90.9164L177.21 85.104ZM177.21 1.77599L169.073 -4.03641L169.073 -4.03637L177.21 1.77599ZM201.146 2.032L191.659 5.19427L191.812 5.65224L192.008 6.09339L201.146 2.032ZM201.658 31.472H191.658V41.472H201.658V31.472ZM211.13 30.192L206.831 21.1634L206.744 21.2047L206.658 21.2477L211.13 30.192ZM215.354 24.304L224.841 27.4663L224.867 27.3879L224.892 27.3091L215.354 24.304ZM221.242 5.616L211.957 1.9021L211.817 2.25176L211.704 2.61094L221.242 5.616ZM222.138 3.56799L231.082 8.04013L231.214 7.77729L231.329 7.50719L222.138 3.56799ZM223.162 2.16L217.615 -6.16051L217.254 -5.91978L216.915 -5.64868L223.162 2.16ZM224.954 1.52L226.194 11.4428L226.663 11.3842L227.123 11.2819L224.954 1.52ZM247.354 4.464L237.83 1.41624L237.821 1.44389L237.812 1.4716L247.354 4.464ZM240.57 26.096L249.996 29.4345L250.057 29.2625L250.112 29.0884L240.57 26.096ZM230.074 42.096L225.983 32.9709L205.379 42.2072L226.066 51.2576L230.074 42.096ZM236.09 47.856L227.088 52.2116L227.145 52.3278L227.204 52.4424L236.09 47.856ZM240.186 57.584L249.711 54.538L249.662 54.3851L249.608 54.2339L240.186 57.584ZM248.25 82.8L238.725 85.846L238.726 85.8478L248.25 82.8ZM224.698 85.872L222.273 95.5734L222.925 95.7366L223.594 95.8108L224.698 85.872ZM222.906 85.104L216.659 92.9127L216.998 93.1838L217.359 93.4245L222.906 85.104ZM221.882 83.824L212.691 87.7632L212.806 88.0333L212.938 88.2961L221.882 83.824ZM220.986 81.648L211.367 84.3808L211.508 84.88L211.701 85.3619L220.986 81.648ZM224.073 55.9577C222.806 52.1575 220.394 47.0769 215.275 44.3828L205.961 62.0812C204.944 61.546 204.534 60.9332 204.533 60.9325C204.527 60.9226 204.589 61.0143 204.698 61.2486C204.807 61.4811 204.945 61.8185 205.099 62.2823L224.073 55.9577ZM215.275 44.3828C212.117 42.7202 208.709 41.952 205.242 41.952V61.952C205.7 61.952 205.877 62.0371 205.961 62.0812L215.275 44.3828ZM205.242 41.952H201.658V61.952H205.242V41.952ZM191.658 51.952V82.928H211.658V51.952H191.658ZM191.658 82.928C191.658 82.1029 191.791 81.504 191.868 81.2154C191.948 80.9137 192.019 80.7618 192.008 80.7866L210.284 88.9094C210.874 87.5816 211.658 85.4556 211.658 82.928H191.658ZM191.659 81.6857C192.491 79.1906 194.301 77.5104 196.065 76.6746C197.513 75.9889 198.617 76 198.714 76V96C201.029 96 208.194 95.3283 210.633 88.0103L191.659 81.6857ZM198.714 76H179.642V96H198.714V76ZM179.642 76C179.805 76 180.559 76.0107 181.595 76.3926C182.732 76.8114 184.2 77.6847 185.347 79.2916L169.073 90.9164C172.313 95.453 177.265 96 179.642 96V76ZM185.347 79.2916C186.321 80.6542 186.57 82.0468 186.57 82.928H166.57C166.57 85.5159 167.246 88.3591 169.073 90.9164L185.347 79.2916ZM186.57 82.928V3.952H166.57V82.928H186.57ZM186.57 3.952C186.57 4.83321 186.321 6.22575 185.347 7.58836L169.073 -4.03637C167.246 -1.47909 166.57 1.36412 166.57 3.952H186.57ZM185.347 7.58839C184.2 9.19527 182.732 10.0686 181.595 10.4874C180.559 10.8693 179.805 10.88 179.642 10.88V-9.12C177.265 -9.12 172.313 -8.57303 169.073 -4.03641L185.347 7.58839ZM179.642 10.88H198.714V-9.12H179.642V10.88ZM198.714 10.88C198.617 10.88 197.513 10.8911 196.065 10.2054C194.301 9.36961 192.491 7.68937 191.659 5.19427L210.633 -1.13027C208.194 -8.44825 201.029 -9.12 198.714 -9.12V10.88ZM192.008 6.09339C192.019 6.11816 191.948 5.96633 191.868 5.66463C191.791 5.37603 191.658 4.77706 191.658 3.952H211.658C211.658 1.42442 210.874 -0.701647 210.284 -2.02939L192.008 6.09339ZM191.658 3.952V31.472H211.658V3.952H191.658ZM201.658 41.472H206.01V21.472H201.658V41.472ZM206.01 41.472C209.444 41.472 212.673 40.601 215.602 39.1363L206.658 21.2477C206.403 21.3754 206.233 21.4284 206.145 21.4506C206.06 21.4717 206.021 21.472 206.01 21.472V41.472ZM215.429 39.2206C220.846 36.6412 223.478 31.554 224.841 27.4663L205.867 21.1417C205.726 21.5659 205.601 21.8607 205.51 22.0504C205.417 22.2409 205.374 22.2932 205.405 22.2509C205.473 22.1554 205.904 21.6048 206.831 21.1634L215.429 39.2206ZM224.892 27.3091L230.78 8.62106L211.704 2.61094L205.816 21.2989L224.892 27.3091ZM230.527 9.32989C230.819 8.60023 231.001 8.20224 231.082 8.04013L213.194 -0.904143C212.763 -0.0422481 212.348 0.925103 211.957 1.9021L230.527 9.32989ZM231.329 7.50719C231.06 8.13661 230.49 9.10401 229.409 9.96868L216.915 -5.64868C214.981 -4.10135 213.728 -2.19528 212.947 -0.371205L231.329 7.50719ZM228.709 10.4805C227.784 11.0975 226.868 11.3585 226.194 11.4428L223.714 -8.40278C221.674 -8.14787 219.564 -7.46016 217.615 -6.16051L228.709 10.4805ZM227.123 11.2819C226.987 11.3122 226.976 11.304 227.132 11.2904C227.282 11.2774 227.531 11.264 227.898 11.264V-8.73601C226.308 -8.73601 224.53 -8.6298 222.785 -8.24187L227.123 11.2819ZM227.898 11.264H245.05V-8.73601H227.898V11.264ZM245.05 11.264C244.881 11.264 244.121 11.2538 243.079 10.8814C241.943 10.4759 240.394 9.60069 239.175 7.90704C237.96 6.22035 237.629 4.49394 237.598 3.33056C237.569 2.25692 237.784 1.55909 237.83 1.41624L256.878 7.51176C257.517 5.51616 258.63 0.699406 255.405 -3.77905C252.149 -8.30144 247.18 -8.73601 245.05 -8.73601V11.264ZM237.812 1.4716L231.028 23.1036L250.112 29.0884L256.896 7.45639L237.812 1.4716ZM231.144 22.7575C229.817 26.5033 228.545 29.3525 227.374 31.4334L244.806 41.2386C246.707 37.8581 248.422 33.8807 249.996 29.4345L231.144 22.7575ZM227.374 31.4334C226.719 32.5987 226.211 32.869 225.983 32.9709L234.165 51.2211C238.887 49.1043 242.389 45.5346 244.806 41.2386L227.374 31.4334ZM226.066 51.2576C226.646 51.5116 226.863 51.7455 227.088 52.2116L245.092 43.5004C242.757 38.6758 238.963 35.0697 234.082 32.9344L226.066 51.2576ZM227.204 52.4424C228.303 54.573 229.498 57.375 230.764 60.9341L249.608 54.2339C248.143 50.113 246.607 46.4297 244.976 43.2696L227.204 52.4424ZM230.661 60.63L238.725 85.846L257.775 79.754L249.711 54.538L230.661 60.63ZM238.726 85.8478C238.68 85.7049 238.465 85.0071 238.494 83.9334C238.525 82.7701 238.856 81.0436 240.071 79.357C241.29 77.6633 242.839 76.7881 243.975 76.3826C245.017 76.0102 245.777 76 245.946 76V96C248.076 96 253.045 95.5654 256.301 91.043C259.526 86.5646 258.413 81.7478 257.774 79.7522L238.726 85.8478ZM245.946 76H227.642V96H245.946V76ZM227.642 76C226.641 76 226.063 75.9621 225.802 75.9332L223.594 95.8108C224.869 95.9526 226.254 96 227.642 96V76ZM227.123 76.1706C227.395 76.2386 227.885 76.4049 228.453 76.7835L217.359 93.4245C218.951 94.4858 220.635 95.1641 222.273 95.5734L227.123 76.1706ZM229.153 77.2953C229.91 77.901 230.467 78.6328 230.826 79.3519L212.938 88.2961C213.809 90.0392 215.049 91.6243 216.659 92.9127L229.153 77.2953ZM231.073 79.8848C230.86 79.3856 230.593 78.7401 230.271 77.9341L211.701 85.3619C212.062 86.2626 212.392 87.0677 212.691 87.7632L231.073 79.8848ZM230.605 78.9152L224.205 56.3872L204.967 61.8528L211.367 84.3808L230.605 78.9152Z" fill="white" mask="url(#path-1-outside-1_64_189)"/>
<defs>
<linearGradient id="paint0_linear_64_189" x1="7.5" y1="41" x2="275.5" y2="80.5" gradientUnits="userSpaceOnUse">
<stop stop-color="#C7C6E8"/>
<stop offset="1" stop-color="#D9AEE6"/>
</linearGradient>
</defs>
</svg>
